<?xml version="1.0" standalone="no"?>
<!DOCTYPE svg
  PUBLIC '-//W3C//DTD SVG 1.1//EN'
  'http://www.w3.org/Graphics/SVG/1.1/DTD/svg11.dtd'><svg version="1.1" xmlns="http://www.w3.org/2000/svg"><defs><font horiz-adv-x="0" id="font"><font-face ascent="750" bbox="-195 -278 1153 973" cap-height="700" descent="-250" font-family="INDEPENDENT Headline WEB" font-stretch="normal" font-style="normal" font-weight="700" units-per-em="1000" x-height="477" /><missing-glyph d="M91 700 591 700V0H91ZM341 385 522 661H159ZM135 627 135 73L317 350ZM545 76 545 624L364 350ZM159 38 523 38L341 314Z" horiz-adv-x="682" /><glyph d="" glyph-name=".null" horiz-adv-x="0" unicode="" /><glyph d="" glyph-name="nonmarkingreturn" horiz-adv-x="236" unicode="" /><glyph d="" glyph-name="space" horiz-adv-x="236" unicode=" " /><glyph d="M116 201 115 234Q113 300 104 366Q95 432 84.5 488.5Q74 545 65.5 589Q57 633 57 655Q57 674 64 686Q71 698 80 704.5Q89 711 99 713Q109 715 115 715H121Q127 715 137 713Q147 711 156 704.5Q165 698 172 686Q179 674 179 655Q179 633 170.5 589Q162 545 151.5 488.5Q141 432 132 366Q123 300 121 234L120 201ZM118 -15Q89 -15 68.5 5.5Q48 26 48 55Q48 84 68.5 105Q89 126 118 126Q147 126 168 105Q189 84 189 55Q189 26 168 5.5Q147 -15 118 -15Z" glyph-name="exclam" horiz-adv-x="236" unicode="!" /><glyph d="M62 438 62 700H164L69 438ZM254 438 254 700H356L261 438Z" glyph-name="quotedbl" horiz-adv-x="374" unicode="&quot;" /><glyph d="M458 700 467 700L427 477H566L565 469H426L386 241H525L523 233H384L343 0H334L375 233H180L139 0H130L171 233H32L34 241H173L213 469H74L75 477H214L254 700H263L223 477H418ZM377 241 417 469H222L182 241Z" glyph-name="numbersign" horiz-adv-x="599" unicode="#" /><glyph d="M282 -15Q274 -15 265.5 -15Q257 -15 249 -14V-137H241V-13Q209 -11 178 -6Q147 -1 121 5Q95 11 76 16.5Q57 22 49 26V227H53Q65 184 82.5 145Q100 106 123 75Q146 44 175.5 23Q205 2 241 -6V315L188 340Q161 353 136 368.5Q111 384 92 405Q73 426 62 453Q51 480 51 516Q51 554 64.5 586.5Q78 619 103 644.5Q128 670 163 687.5Q198 705 241 711V789H249V712Q270 715 291 715Q303 715 315.5 714.5Q328 714 341 713V789H349V712Q399 708 441 700Q483 692 498 688L495 531H491Q480 561 467.5 588Q455 615 438.5 637.5Q422 660 400.5 676.5Q379 693 349 701V403L356 400Q388 385 421 368Q454 351 480 328Q506 305 522.5 275Q539 245 539 203Q539 164 526 129.5Q513 95 488.5 67.5Q464 40 428.5 20Q393 0 349 -9V-137H341V-10Q327 -12 312.5 -13.5Q298 -15 282 -15ZM290 709Q271 709 249 704V450L341 407V703Q319 709 290 709ZM150 576Q150 531 173.5 502.5Q197 474 241 454V701Q203 688 176.5 656Q150 624 150 576ZM249 312 249 -7Q266 -10 282 -10Q314 -10 341 -1V268Q333 272 324.5 276Q316 280 308 284ZM438 139Q438 186 412.5 214.5Q387 243 349 263V2Q392 20 415 57Q438 94 438 139Z" glyph-name="dollar" horiz-adv-x="575" unicode="$" /><glyph d="M556 697 251 697Q290 674 313.5 630.5Q337 587 337 542Q337 511 326 479.5Q315 448 294.5 423Q274 398 246 382.5Q218 367 185 367Q152 367 124.5 382.5Q97 398 77 423Q57 448 45.5 479.5Q34 511 34 542Q34 572 45.5 603Q57 634 77 659Q97 684 124.5 699.5Q152 715 185 715Q202 715 216.5 711Q231 707 245 700H562V697L104 0H98ZM112 542Q112 501 114 469Q116 437 123 414.5Q130 392 145 380.5Q160 369 185 369Q210 369 225 380.5Q240 392 247.5 414.5Q255 437 257.5 469Q260 501 260 542Q260 583 257.5 614.5Q255 646 247.5 667.5Q240 689 225 700.5Q210 712 185 712Q160 712 145 700.5Q130 689 123 667.5Q116 646 114 614.5Q112 583 112 542ZM474 -15Q441 -15 413.5 0.5Q386 16 366 41Q346 66 334.5 97.5Q323 129 323 160Q323 190 334.5 221Q346 252 366 277Q386 302 413.5 317.5Q441 333 474 333Q507 333 535 317.5Q563 302 583.5 277Q604 252 615 221Q626 190 626 160Q626 129 615 97.5Q604 66 583.5 41Q563 16 535 0.5Q507 -15 474 -15ZM401 160Q401 119 403 87Q405 55 412 32.5Q419 10 434 -1.5Q449 -13 474 -13Q499 -13 514 -1.5Q529 10 536.5 32.5Q544 55 546.5 87Q549 119 549 160Q549 201 546.5 232.5Q544 264 536.5 285.5Q529 307 514 318.5Q499 330 474 330Q449 330 434 318.5Q419 307 412 285.5Q405 264 403 232.5Q401 201 401 160Z" glyph-name="percent" horiz-adv-x="660" unicode="%" /><glyph d="M629 -15Q602 -15 582 -10Q562 -5 543.5 8Q525 21 504.5 44Q484 67 455 102Q440 83 419.5 62.5Q399 42 373 24.5Q347 7 314.5 -4Q282 -15 242 -15Q198 -15 161.5 0Q125 15 98.5 39.5Q72 64 57.5 96Q43 128 43 162Q43 225 90 280Q137 335 231 374L217 391Q182 435 166 473.5Q150 512 150 550Q150 581 163.5 610Q177 639 201 661.5Q225 684 259 698Q293 712 333 712Q374 712 405.5 702Q437 692 459 675.5Q481 659 492 637.5Q503 616 503 593Q503 570 494 546.5Q485 523 464.5 502Q444 481 412 463Q380 445 334 433L526 198Q548 232 563.5 260Q579 288 589 311Q606 351 606 375Q606 404 588 419Q570 434 540 437L509 441V444H785V441Q751 439 723.5 425.5Q696 412 668.5 383Q641 354 608 307.5Q575 261 529 194Q564 152 589.5 122.5Q615 93 637 74.5Q659 56 678.5 47Q698 38 720 38Q735 38 754 44.5Q773 51 785 62L787 61Q771 41 749.5 26.5Q728 12 706 3Q684 -6 663.5 -10.5Q643 -15 629 -15ZM333 434Q387 472 410 515Q433 558 433 597Q433 644 405 676Q377 708 333 708Q295 708 267 683Q239 658 239 615Q239 597 241.5 581Q244 565 253 546Q262 527 279 503.5Q296 480 324 445ZM319 63Q354 63 388.5 73Q423 83 452 105L232 373Q187 340 168.5 302.5Q150 265 150 222Q150 186 164 157Q178 128 201.5 107Q225 86 255.5 74.5Q286 63 319 63Z" glyph-name="ampersand" horiz-adv-x="814" unicode="&amp;" /><glyph d="M62 438 62 700H164L69 438Z" glyph-name="quotesingle" horiz-adv-x="182" unicode="'" /><glyph d="M35 286Q35 339 49 400.5Q63 462 91.5 524Q120 586 163.5 643Q207 700 266 743L268 741Q235 701 212.5 641.5Q190 582 176 517.5Q162 453 156 392Q150 331 150 288V264Q150 221 156 160Q162 99 176 34.5Q190 -30 212.5 -89.5Q235 -149 268 -189L266 -191Q207 -148 163.5 -91Q120 -34 91.5 28Q63 90 49 152Q35 214 35 266Z" glyph-name="parenleft" horiz-adv-x="289" unicode="(" /><glyph d="M254 266Q254 214 240 152Q226 90 197.5 28Q169 -34 125.5 -91Q82 -148 23 -191L21 -189Q54 -149 76.5 -89.5Q99 -30 113 34.5Q127 99 133 160Q139 221 139 264V288Q139 331 133 392Q127 453 113 517.5Q99 582 76.5 641.5Q54 701 21 741L23 743Q82 700 125.5 643Q169 586 197.5 524Q226 462 240 400.5Q254 339 254 286Z" glyph-name="parenright" horiz-adv-x="289" unicode=")" /><glyph d="M162 323Q157 312 140 318Q123 324 106 337Q89 350 79 365.5Q69 381 79 388L237 498L50 527Q38 529 39.5 546.5Q41 564 50 582.5Q59 601 71.5 613.5Q84 626 93 618L238 500L187 691Q184 703 201 708.5Q218 714 239 714Q260 714 277 708.5Q294 703 291 691L240 500L385 618Q394 626 406.5 613.5Q419 601 428 582.5Q437 564 438.5 546.5Q440 529 428 527L241 498L399 388Q409 381 399 365.5Q389 350 372 337Q355 324 338 318Q321 312 316 323L239 497Z" glyph-name="asterisk" horiz-adv-x="478" unicode="*" /><glyph d="M286 149 278 149V353H72V361H278V566H286V361H490V353H286Z" glyph-name="plus" horiz-adv-x="561" unicode="+" /><glyph d="M55 -118Q89 -117 116 -106Q143 -95 162.5 -77.5Q182 -60 192.5 -36.5Q203 -13 204 14Q204 33 199 46Q197 51 193 52.5Q189 54 185 46Q177 27 160.5 11.5Q144 -4 117 -4Q83 -4 65.5 16.5Q48 37 48 62Q48 88 66.5 109Q85 130 120 130Q139 130 156 121Q173 112 185.5 96.5Q198 81 205 60.5Q212 40 212 17Q212 -12 200.5 -37.5Q189 -63 168.5 -81.5Q148 -100 119 -111.5Q90 -123 55 -124Z" glyph-name="comma" horiz-adv-x="255" unicode="," /><glyph d="M58 227 58 289H268V227Z" glyph-name="hyphen" horiz-adv-x="326" unicode="-" /><glyph d="M117 -15Q88 -15 67.5 5.5Q47 26 47 55Q47 84 67.5 105Q88 126 117 126Q146 126 167 105Q188 84 188 55Q188 26 167 5.5Q146 -15 117 -15Z" glyph-name="period" horiz-adv-x="235" unicode="." /><glyph d="M31 -112 374 791H391L48 -112Z" glyph-name="slash" horiz-adv-x="420" unicode="/" /><glyph d="M559 350Q559 286 542 220.5Q525 155 492.5 103Q460 51 412 18Q364 -15 302 -15Q240 -15 192 18Q144 51 111.5 103Q79 155 62 220.5Q45 286 45 350Q45 415 62 480Q79 545 111.5 597Q144 649 192 682Q240 715 302 715Q364 715 412 682Q460 649 492.5 597Q525 545 542 480Q559 415 559 350ZM426 350Q426 449 417 518Q408 587 391.5 629.5Q375 672 352.5 691Q330 710 302 710Q274 710 251.5 691Q229 672 212.5 629.5Q196 587 187 518Q178 449 178 350Q178 250 187 181.5Q196 113 212.5 70.5Q229 28 251.5 9Q274 -10 302 -10Q330 -10 352.5 9Q375 28 391.5 70.5Q408 113 417 181.5Q426 250 426 350Z" glyph-name="zero" horiz-adv-x="604" unicode="0" /><glyph d="M42 5 114 21Q160 32 160 74V642Q144 635 124 630Q104 625 85 622Q66 619 49.5 617.5Q33 616 22 616V619Q57 621 95.5 630.5Q134 640 168.5 654.5Q203 669 231 685Q259 701 274 715H281V73Q281 53 293.5 39.5Q306 26 326 21L398 5V0H42Z" glyph-name="one" horiz-adv-x="403" unicode="1" /><glyph d="M31 0 31 6L199 167Q288 253 324.5 336.5Q361 420 361 493Q361 569 322 614.5Q283 660 205 660Q179 660 153.5 650.5Q128 641 106.5 625Q85 609 69.5 587.5Q54 566 49 541H51Q61 546 74 550Q87 554 98 554Q131 554 147.5 534.5Q164 515 164 491Q164 468 148 450Q132 432 103 432Q72 432 55 454.5Q38 477 38 505Q38 542 54.5 579.5Q71 617 102 647Q133 677 176 696Q219 715 273 715Q323 715 362.5 699.5Q402 684 429.5 657.5Q457 631 471.5 597.5Q486 564 486 528Q486 489 471 451.5Q456 414 424.5 373Q393 332 344.5 285.5Q296 239 229 180L157 117H434Q470 117 486 135.5Q502 154 513 185L526 224H531L498 0Z" glyph-name="two" horiz-adv-x="567" unicode="2" /><glyph d="M338 546Q338 580 327 605Q316 630 297 646.5Q278 663 253 671.5Q228 680 199 680Q157 680 119.5 657.5Q82 635 60 590Q68 597 79 600Q90 603 100 603Q122 603 139 589.5Q156 576 156 549Q156 524 139 510.5Q122 497 103 497Q83 497 65.5 511.5Q48 526 48 555Q48 584 64.5 612.5Q81 641 109.5 664Q138 687 176.5 701.5Q215 716 260 716Q301 716 337 706.5Q373 697 399.5 677.5Q426 658 441.5 629Q457 600 457 561Q457 529 443 502.5Q429 476 405.5 456Q382 436 351.5 423Q321 410 287 405V404Q338 394 375.5 374Q413 354 438 327.5Q463 301 475.5 269Q488 237 488 204Q488 158 468 118Q448 78 412.5 48.5Q377 19 328.5 2Q280 -15 223 -15Q178 -15 140 -7Q102 1 74.5 16Q47 31 31 51Q15 71 15 95Q15 114 30 134Q45 154 74 154Q101 154 114.5 142Q128 130 135 111.5Q142 93 145.5 72Q149 51 157 32.5Q165 14 179.5 2Q194 -10 223 -10Q258 -10 284.5 4Q311 18 330 40Q349 62 358.5 89Q368 116 368 143Q368 188 348 223.5Q328 259 298.5 284.5Q269 310 236 325.5Q203 341 177 346V349L201 361Q269 395 303.5 443.5Q338 492 338 546Z" glyph-name="three" horiz-adv-x="530" unicode="3" /><glyph d="M310 167 8 167L6 173Q21 191 43 224Q65 257 89.5 300Q114 343 138 393.5Q162 444 181.5 496.5Q201 549 213 601Q225 653 225 700H378Q372 639 338.5 565Q305 491 255 419Q205 347 143 282.5Q81 218 16 174H310V374L431 394V174H562V167H431V59Q431 40 442.5 28.5Q454 17 482 12L534 3V0H206V3L259 12Q287 17 298 28.5Q309 40 309 59Z" glyph-name="four" horiz-adv-x="574" unicode="4" /><glyph d="M235 -10Q265 -10 292.5 2Q320 14 340.5 36.5Q361 59 373.5 91Q386 123 386 162Q386 210 362.5 247.5Q339 285 297 306.5Q255 328 198.5 333Q142 338 76 321L93 701H333Q375 701 400.5 702Q426 703 440 705Q456 706 463 708L456 600Q455 589 445.5 586.5Q436 584 428 584H94L87 442Q178 462 251.5 453Q325 444 377 413.5Q429 383 457 335.5Q485 288 485 231Q485 182 465.5 137.5Q446 93 411.5 59Q377 25 329.5 5Q282 -15 227 -15Q184 -15 147.5 -7.5Q111 0 84.5 13.5Q58 27 43 46.5Q28 66 28 89Q28 106 42.5 125Q57 144 87 144Q112 144 125 132.5Q138 121 146 104Q154 87 159 67Q164 47 172.5 30Q181 13 195 1.5Q209 -10 235 -10Z" glyph-name="five" horiz-adv-x="524" unicode="5" /><glyph d="M482 745Q446 725 407 690.5Q368 656 331 611.5Q294 567 261.5 515.5Q229 464 207 410Q235 427 268 436Q301 445 333 445Q374 445 411.5 431Q449 417 478 389.5Q507 362 524.5 321.5Q542 281 542 229Q542 187 525.5 144Q509 101 477 65.5Q445 30 398.5 7.5Q352 -15 293 -15Q240 -15 193.5 5Q147 25 113 62Q79 99 59.5 151.5Q40 204 40 268Q40 357 80 436Q120 515 183 578Q246 641 324.5 685Q403 729 480 748ZM246 410Q227 410 206 407Q190 362 181.5 320Q173 278 173 224Q173 172 182.5 129Q192 86 208.5 55Q225 24 247.5 7Q270 -10 296 -10Q328 -10 350 9Q372 28 386 57Q400 86 406.5 122Q413 158 413 191Q413 237 402.5 277Q392 317 371 346.5Q350 376 319 393Q288 410 246 410Z" glyph-name="six" horiz-adv-x="568" unicode="6" /><glyph d="M111 -10Q130 36 154.5 86Q179 136 205.5 186Q232 236 260 285Q288 334 314 378Q375 482 440 583H19V708Q23 706 31.5 704.5Q40 703 57.5 702Q75 701 103.5 700.5Q132 700 176 700H485V698Q463 634 429 535Q399 446 356.5 317Q314 188 253 0Z" glyph-name="seven" horiz-adv-x="491" unicode="7" /><glyph d="M68 536Q68 574 85.5 606.5Q103 639 133 663Q163 687 203.5 701Q244 715 290 715Q343 715 383.5 702Q424 689 451.5 667.5Q479 646 493 618Q507 590 507 560Q507 527 492.5 502Q478 477 455.5 459Q433 441 404.5 429.5Q376 418 349 412Q385 394 418.5 375Q452 356 478 330.5Q504 305 519.5 272Q535 239 535 193Q535 148 515.5 110Q496 72 462.5 44.5Q429 17 385 1Q341 -15 292 -15Q235 -15 188.5 -0.5Q142 14 110 39.5Q78 65 60.5 99Q43 133 43 172Q43 208 58.5 237Q74 266 99 287Q124 308 154 322.5Q184 337 212 345Q185 359 159 376Q133 393 113 416.5Q93 440 80.5 469.5Q68 499 68 536ZM412 571Q412 606 401.5 632.5Q391 659 373.5 676.5Q356 694 334.5 703Q313 712 291 712Q271 712 250 704Q229 696 212 681Q195 666 184.5 643.5Q174 621 174 592Q174 558 188 532Q202 506 225.5 485.5Q249 465 280 448Q311 431 345 414Q357 423 369 439Q381 455 390.5 475.5Q400 496 406 520.5Q412 545 412 571ZM145 158Q145 113 158 80.5Q171 48 192 27.5Q213 7 239 -2.5Q265 -12 290 -12Q317 -12 343 -2.5Q369 7 389.5 25.5Q410 44 422.5 70.5Q435 97 435 131Q435 173 415 203Q395 233 363 256.5Q331 280 292 300.5Q253 321 215 343Q180 304 162.5 254Q145 204 145 158Z" glyph-name="eight" horiz-adv-x="578" unicode="8" /><glyph d="M86 -46Q122 -26 161 9Q200 44 237.5 88Q275 132 307 183.5Q339 235 361 289Q333 272 300 263Q267 254 235 254Q194 254 156.5 268Q119 282 90 309.5Q61 337 43.5 377.5Q26 418 26 470Q26 512 42.5 555Q59 598 91 633.5Q123 669 169.5 691.5Q216 714 275 714Q328 714 374.5 694Q421 674 455 637Q489 600 508.5 547.5Q528 495 528 431Q528 342 488 263Q448 184 385 121Q322 58 243.5 14Q165 -30 88 -49ZM322 289Q343 289 362 292Q378 337 387 379Q396 421 396 475Q396 527 386.5 570Q377 613 360.5 644Q344 675 321.5 692Q299 709 272 709Q240 709 218 690Q196 671 182 642Q168 613 162 577Q156 541 156 508Q156 462 166.5 422Q177 382 198 352.5Q219 323 250 306Q281 289 322 289Z" glyph-name="nine" horiz-adv-x="568" unicode="9" /><glyph d="M128 336Q99 336 78.5 356.5Q58 377 58 406Q58 435 78.5 456Q99 477 128 477Q157 477 178 456Q199 435 199 406Q199 377 178 356.5Q157 336 128 336ZM128 -15Q99 -15 78.5 5.5Q58 26 58 55Q58 84 78.5 105Q99 126 128 126Q157 126 178 105Q199 84 199 55Q199 26 178 5.5Q157 -15 128 -15Z" glyph-name="colon" horiz-adv-x="257" unicode=":" /><glyph d="M131 336Q102 336 81.5 356.5Q61 377 61 406Q61 435 81.5 456Q102 477 131 477Q160 477 181 456Q202 435 202 406Q202 377 181 356.5Q160 336 131 336ZM68 -118Q102 -117 129 -106Q156 -95 175.5 -77.5Q195 -60 205.5 -36.5Q216 -13 217 14Q217 33 212 46Q210 51 206 52.5Q202 54 198 46Q190 27 173.5 11.5Q157 -4 130 -4Q96 -4 78.5 16.5Q61 37 61 62Q61 88 79.5 109Q98 130 133 130Q152 130 169 121Q186 112 198.5 96.5Q211 81 218 60.5Q225 40 225 17Q225 -12 213.5 -37.5Q202 -63 181.5 -81.5Q161 -100 132 -111.5Q103 -123 68 -124Z" glyph-name="semicolon" horiz-adv-x="277" unicode=";" /><glyph d="M43 365 460 520V506L58 358L460 210V196L43 351Z" glyph-name="less" horiz-adv-x="534" unicode="&lt;" /><glyph d="M71 460 71 468H489V460ZM71 247 71 255H489V247Z" glyph-name="equal" horiz-adv-x="561" unicode="=" /><glyph d="M491 351 74 196V210L476 358L74 506V520L491 365Z" glyph-name="greater" horiz-adv-x="534" unicode="&gt;" /><glyph d="M222 715Q305 715 355 671Q405 627 405 552Q405 517 391.5 489Q378 461 357.5 437Q337 413 312.5 391.5Q288 370 267 347.5Q246 325 231.5 300.5Q217 276 216 246L214 201H209V244Q209 294 222 332Q235 370 250.5 404.5Q266 439 279 473Q292 507 292 547Q292 580 282 603.5Q272 627 255 643Q238 659 216 666.5Q194 674 170 674Q139 674 114 663Q89 652 72.5 634Q56 616 47 593.5Q38 571 38 548Q38 542 38.5 533.5Q39 525 40 520H41Q48 535 64.5 548.5Q81 562 104 562Q129 562 143.5 545Q158 528 158 508Q158 488 141.5 471.5Q125 455 103 455Q84 455 70.5 463Q57 471 48.5 484.5Q40 498 36 515.5Q32 533 32 551Q32 578 44 607Q56 636 80 660Q104 684 139.5 699.5Q175 715 222 715ZM218 -15Q189 -15 168.5 5.5Q148 26 148 55Q148 84 168.5 105Q189 126 218 126Q247 126 268 105Q289 84 289 55Q289 26 268 5.5Q247 -15 218 -15Z" glyph-name="question" horiz-adv-x="443" unicode="?" /><glyph d="M680 -130Q632 -155 579 -166.5Q526 -178 476 -178Q368 -178 286.5 -146.5Q205 -115 150.5 -62Q96 -9 68 61.5Q40 132 40 210Q40 291 70.5 365.5Q101 440 157.5 497.5Q214 555 293.5 589.5Q373 624 472 624Q556 624 624.5 597Q693 570 742.5 522.5Q792 475 819 411Q846 347 846 272Q846 202 827 148Q808 94 776.5 58Q745 22 704.5 3.5Q664 -15 621 -15Q593 -15 573 -8Q553 -1 541 10.5Q529 22 523 35.5Q517 49 515 62Q495 27 461 6Q427 -15 392 -15Q363 -15 341 -5.5Q319 4 304 19.5Q289 35 281 54.5Q273 74 273 95Q273 128 292.5 158.5Q312 189 356 206L515 269V341Q515 369 506 389Q497 409 482.5 422Q468 435 449.5 441Q431 447 411 447Q368 447 338 428Q308 409 294 380Q300 387 310 392Q320 397 331 397Q352 397 366 382.5Q380 368 380 351Q380 327 365 314.5Q350 302 332 302Q315 302 299.5 315.5Q284 329 284 353Q284 375 296.5 399.5Q309 424 332.5 445Q356 466 390 479.5Q424 493 467 493Q499 493 527 485.5Q555 478 576 461Q597 444 609.5 417Q622 390 622 351V64Q622 35 638.5 25.5Q655 16 670 16Q699 16 729 34.5Q759 53 783.5 86Q808 119 824 165.5Q840 212 840 268Q840 354 809 420Q778 486 726.5 530Q675 574 608.5 596.5Q542 619 470 619Q409 619 347 595Q285 571 235 522.5Q185 474 153 399Q121 324 121 222Q121 136 148.5 65.5Q176 -5 225 -55Q274 -105 342 -132.5Q410 -160 492 -160Q547 -160 590.5 -151.5Q634 -143 680 -126ZM515 263Q494 254 469.5 243Q445 232 424.5 216.5Q404 201 390.5 181Q377 161 377 134Q377 99 401 76Q425 53 462 53Q475 53 488.5 57Q502 61 515 68Z" glyph-name="at" horiz-adv-x="889" unicode="@" /><glyph d="M244 0 -23 0V3Q2 7 22.5 18Q43 29 62 52Q81 75 100 111Q119 147 140 200L287 576L236 700H373L612 136Q630 93 646.5 68.5Q663 44 677.5 31.5Q692 19 705 14Q718 9 729 6L739 3V0H391V3L415 5Q471 10 486 34.5Q501 59 474 124L403 295H185L149 201Q136 167 127.5 133.5Q119 100 123.5 73.5Q128 47 149 29Q170 11 215 6L244 3ZM400 302 291 567L188 302Z" glyph-name="A" horiz-adv-x="714" unicode="A" /><glyph d="M369 700Q434 700 479.5 686.5Q525 673 554 650.5Q583 628 596.5 599.5Q610 571 610 541Q610 504 589.5 473Q569 442 535 420.5Q501 399 456 386.5Q411 374 363 373V372Q497 370 574 322.5Q651 275 651 189Q651 152 634.5 117.5Q618 83 583.5 57Q549 31 497 15.5Q445 0 374 0H18V3L44 7Q71 11 88 20.5Q105 30 114.5 43.5Q124 57 127.5 73Q131 89 131 106V594Q131 611 127.5 627Q124 643 114.5 656.5Q105 670 88 679.5Q71 689 44 693L18 697V700ZM253 375 318 375Q362 375 393 389Q424 403 444 426Q464 449 473.5 478Q483 507 483 537Q483 571 472 599.5Q461 628 439.5 649Q418 670 386.5 682Q355 694 314 694H253ZM253 106Q253 61 279 33.5Q305 6 361 6H368Q408 6 436.5 20.5Q465 35 483 59Q501 83 509 114Q517 145 517 178Q517 264 467 316.5Q417 369 318 369H253Z" glyph-name="B" horiz-adv-x="683" unicode="B" /><glyph d="M180 349Q180 272 202 206.5Q224 141 262.5 93.5Q301 46 353 19Q405 -8 465 -8Q513 -8 549.5 12Q586 32 614 63Q642 94 661.5 130Q681 166 695 198L714 241H718L716 37Q691 27 659 17.5Q627 8 591.5 0.5Q556 -7 519 -11Q482 -15 447 -15Q357 -15 282.5 10.5Q208 36 154 83Q100 130 70 197.5Q40 265 40 349Q40 432 69.5 499.5Q99 567 153 615Q207 663 282.5 689Q358 715 449 715Q489 715 529.5 712Q570 709 606 705Q642 701 670.5 697Q699 693 714 691V502H710L691 539Q676 569 654.5 599Q633 629 603.5 653.5Q574 678 535 693.5Q496 709 446 709Q385 709 335.5 681.5Q286 654 251.5 606Q217 558 198.5 492Q180 426 180 349Z" glyph-name="C" horiz-adv-x="767" unicode="C" /><glyph d="M18 700 385 700Q487 700 564.5 671.5Q642 643 693.5 595Q745 547 771.5 484.5Q798 422 798 353Q798 284 771.5 220.5Q745 157 693.5 108Q642 59 564.5 29.5Q487 0 385 0H18V3L44 7Q71 11 88 20.5Q105 30 114.5 43.5Q124 57 127.5 73Q131 89 131 106V594Q131 611 127.5 627Q124 643 114.5 656.5Q105 670 88 679.5Q71 689 44 693L18 697ZM363 6Q437 6 492.5 30Q548 54 585.5 98.5Q623 143 642 206.5Q661 270 661 350Q661 430 640.5 493.5Q620 557 580.5 601.5Q541 646 484 670Q427 694 353 694H253V109Q253 88 256.5 69Q260 50 269.5 36Q279 22 296 14Q313 6 340 6Z" glyph-name="D" horiz-adv-x="838" unicode="D" /><glyph d="M411 6Q450 6 480 11.5Q510 17 533.5 29.5Q557 42 577 62.5Q597 83 617 112L682 208H686L666 0H18V3L44 7Q71 11 88 20.5Q105 30 114.5 43.5Q124 57 127.5 73Q131 89 131 106V594Q131 611 127.5 627Q124 643 114.5 656.5Q105 670 88 679.5Q71 689 44 693L18 697V700H638V502H634L586 587Q568 619 545 640Q522 661 492 673Q462 685 424.5 689.5Q387 694 339 694H253V364L305 365Q336 366 359.5 369Q383 372 402 383Q421 394 436 417Q451 440 464 481L475 515H478V208H475L464 242Q451 283 436 306Q421 329 402 340Q383 351 359.5 354Q336 357 305 358L253 359V106Q253 61 273.5 33.5Q294 6 350 6Z" glyph-name="E" horiz-adv-x="719" unicode="E" /><glyph d="M131 594Q131 611 127.5 627Q124 643 114.5 656.5Q105 670 88 679.5Q71 689 44 693L18 697V700H618V502H614L566 587Q548 619 525 640Q502 661 472 673Q442 685 404.5 689.5Q367 694 319 694H253V344L285 345Q327 346 357 349Q387 352 408.5 363Q430 374 445.5 397Q461 420 474 461L485 495H488V188H485L474 222Q461 263 445.5 286Q430 309 408.5 320Q387 331 357 334Q327 337 285 338L253 339V106Q253 89 256.5 73.5Q260 58 270.5 44.5Q281 31 300 21.5Q319 12 350 7L376 3V0H18V3L44 7Q71 11 88 20.5Q105 30 114.5 43.5Q124 57 127.5 73Q131 89 131 106Z" glyph-name="F" horiz-adv-x="640" unicode="F" /><glyph d="M481 -4Q558 -4 587 14Q616 32 616 58V198Q616 232 600.5 252Q585 272 534 277L486 281V284H815V281L788 277Q770 274 760 271Q750 268 745 260Q740 252 739 238Q738 224 738 199V61H794V55Q773 53 735.5 41.5Q698 30 651.5 17.5Q605 5 552 -5Q499 -15 446 -15Q345 -15 269 14.5Q193 44 142 93.5Q91 143 65 208Q39 273 39 343Q39 426 70.5 494Q102 562 157.5 611.5Q213 661 290 688Q367 715 458 715Q502 715 545.5 711.5Q589 708 627 702.5Q665 697 695.5 691.5Q726 686 742 683L743 492H739L720 529Q705 559 682 590.5Q659 622 627 648.5Q595 675 553 692Q511 709 458 709Q400 709 349 681.5Q298 654 260 606Q222 558 200.5 492Q179 426 179 349Q179 276 199 211.5Q219 147 257.5 99Q296 51 351.5 23.5Q407 -4 478 -4Z" glyph-name="G" horiz-adv-x="836" unicode="G" /><glyph d="M522 7Q549 11 566 20.5Q583 30 592.5 43.5Q602 57 605.5 73Q609 89 609 106V367H253V106Q253 89 256.5 73Q260 57 269.5 43.5Q279 30 296 20.5Q313 11 340 7L366 3V0H18V3L44 7Q71 11 88 20.5Q105 30 114.5 43.5Q124 57 127.5 73Q131 89 131 106V594Q131 611 127.5 627Q124 643 114.5 656.5Q105 670 88 679.5Q71 689 44 693L18 697V700H366V697L340 693Q313 689 296 679.5Q279 670 269.5 656.5Q260 643 256.5 627Q253 611 253 594V374H609V594Q609 611 605.5 627Q602 643 592.5 656.5Q583 670 566 679.5Q549 689 522 693L496 697V700H844V697L818 693Q791 689 774 679.5Q757 670 747.5 656.5Q738 643 734.5 627Q731 611 731 594V106Q731 89 734.5 73Q738 57 747.5 43.5Q757 30 774 20.5Q791 11 818 7L844 3V0H496V3Z" glyph-name="H" horiz-adv-x="862" unicode="H" /><glyph d="M44 7Q71 11 88 20.5Q105 30 114.5 43.5Q124 57 127.5 73Q131 89 131 106V594Q131 611 127.5 627Q124 643 114.5 656.5Q105 670 88 679.5Q71 689 44 693L18 697V700H366V697L340 693Q313 689 296 679.5Q279 670 269.5 656.5Q260 643 256.5 627Q253 611 253 594V106Q253 89 256.5 73Q260 57 269.5 43.5Q279 30 296 20.5Q313 11 340 7L366 3V0H18V3Z" glyph-name="I" horiz-adv-x="384" unicode="I" /><glyph d="M128 594Q128 611 124.5 627Q121 643 111.5 656.5Q102 670 85 679.5Q68 689 41 693L15 697V700H343V697L317 693Q274 686 262 660.5Q250 635 250 594V19Q250 -22 236.5 -51Q223 -80 200.5 -98.5Q178 -117 149.5 -126Q121 -135 90 -135Q52 -135 19.5 -120.5Q-13 -106 -30 -92L-28 -88Q-13 -96 3.5 -98.5Q20 -101 33 -101Q52 -101 69.5 -96Q87 -91 100 -77.5Q113 -64 120.5 -41Q128 -18 128 18Z" glyph-name="J" horiz-adv-x="369" unicode="J" /><glyph d="M508 539Q549 577 562.5 604Q576 631 571 648.5Q566 666 546 675.5Q526 685 500 689L448 697V700H746V697L735 694Q721 690 700 678Q679 666 653.5 647.5Q628 629 599 605.5Q570 582 540 555L390 420L567 191Q603 144 631 111.5Q659 79 681.5 58Q704 37 723 25.5Q742 14 762 8L779 3V0Q729 -9 693 -12Q657 -15 628 -12Q596 -9 573.5 2Q551 13 532.5 31Q514 49 496.5 73Q479 97 457 127L283 361H253V106Q253 89 255 73Q257 57 265 43.5Q273 30 289 20.5Q305 11 332 7L358 3V0H18V3L44 7Q71 11 88 20.5Q105 30 114.5 43.5Q124 57 127.5 73Q131 89 131 106V594Q131 611 127.5 627Q124 643 114.5 656.5Q105 670 88 679.5Q71 689 44 693L18 697V700H366V697L340 693Q313 689 296 679.5Q279 670 269.5 656.5Q260 643 256.5 627Q253 611 253 594V368H260Q276 368 290 369.5Q304 371 318.5 377Q333 383 350 395Q367 407 390 428Z" glyph-name="K" horiz-adv-x="761" unicode="K" /><glyph d="M131 594Q131 611 127.5 627Q124 643 114.5 656.5Q105 670 88 679.5Q71 689 44 693L18 697V700H366V697L340 693Q313 689 296 679.5Q279 670 269.5 656.5Q260 643 256.5 627Q253 611 253 594V106Q253 61 273.5 33.5Q294 6 350 6H382Q426 6 459.5 13Q493 20 519.5 34Q546 48 566.5 70Q587 92 606 122L660 208H664L646 0H18V3L44 7Q71 11 88 20.5Q105 30 114.5 43.5Q124 57 127.5 73Q131 89 131 106Z" glyph-name="L" horiz-adv-x="679" unicode="L" /><glyph d="M360 697 334 693Q310 689 297 682.5Q284 676 279.5 666.5Q275 657 277.5 646Q280 635 286 622L531 128L752 627Q752 656 734 670.5Q716 685 667 693L641 697V700H969V697L943 693Q923 690 910 680.5Q897 671 889.5 657.5Q882 644 879 627.5Q876 611 876 594V106Q876 89 879.5 73Q883 57 892.5 43.5Q902 30 919 20.5Q936 11 963 7L989 3V0H641V3L667 7Q694 11 711 20.5Q728 30 737.5 43.5Q747 57 750.5 73Q754 89 754 106V613L476 -15H469L147 613L143 173Q143 125 152.5 95.5Q162 66 178.5 48Q195 30 217 21.5Q239 13 263 7L279 3V0H10V3L26 7Q50 13 69 21.5Q88 30 102 48Q116 66 123.5 95.5Q131 125 132 173L140 621L129 635Q108 662 83 676.5Q58 691 29 697V700H360Z" glyph-name="M" horiz-adv-x="1004" unicode="M" /><glyph d="M694 -15 162 585L166 213Q167 150 176.5 112Q186 74 202.5 53Q219 32 240.5 22.5Q262 13 286 7L302 3V0H19V3L35 7Q59 13 80 22.5Q101 32 117 53Q133 74 143.5 112Q154 150 155 213V589L143 602Q103 646 70.5 668.5Q38 691 -6 697V700H250Q260 683 272.5 665.5Q285 648 302 626.5Q319 605 342.5 578.5Q366 552 397 516L693 178L690 487Q689 550 679 588Q669 626 652.5 647Q636 668 615 677.5Q594 687 570 693L554 697V700H837V697L821 693Q797 687 775.5 677.5Q754 668 737.5 647Q721 626 711 588Q701 550 701 487V-15Z" glyph-name="N" horiz-adv-x="839" unicode="N" /><glyph d="M401 715Q468 715 532.5 689.5Q597 664 648 616.5Q699 569 730 501.5Q761 434 761 350Q761 266 730 198.5Q699 131 648 83.5Q597 36 532.5 10.5Q468 -15 401 -15Q334 -15 269.5 10.5Q205 36 154 83.5Q103 131 71.5 198.5Q40 266 40 350Q40 434 71.5 501.5Q103 569 154 616.5Q205 664 269.5 689.5Q334 715 401 715ZM401 710Q342 710 300 684.5Q258 659 231.5 612Q205 565 192.5 498.5Q180 432 180 350Q180 268 192.5 201.5Q205 135 231.5 88Q258 41 300 15.5Q342 -10 401 -10Q460 -10 501.5 15.5Q543 41 569.5 88Q596 135 608.5 201.5Q621 268 621 350Q621 432 608.5 498.5Q596 565 569.5 612Q543 659 501.5 684.5Q460 710 401 710Z" glyph-name="O" horiz-adv-x="801" unicode="O" /><glyph d="M600 508Q600 465 581 429Q562 393 529 367.5Q496 342 450.5 328Q405 314 352 314H289V319H305Q380 319 423.5 370.5Q467 422 467 507Q467 592 419 643Q371 694 281 694H253V116Q253 88 257.5 69.5Q262 51 274 39.5Q286 28 306.5 21Q327 14 360 7L379 3V0H18V3L44 7Q71 11 88 20.5Q105 30 114.5 43.5Q124 57 127.5 73Q131 89 131 106V594Q131 611 127.5 627Q124 643 114.5 656.5Q105 670 88 679.5Q71 689 44 693L18 697V700H334Q394 700 443 686Q492 672 527 647Q562 622 581 586.5Q600 551 600 508Z" glyph-name="P" horiz-adv-x="623" unicode="P" /><glyph d="M401 715Q468 715 532.5 689.5Q597 664 648 616.5Q699 569 730 501.5Q761 434 761 350Q761 291 745 239.5Q729 188 701 146Q673 104 635 72Q597 40 553 19L703 -71Q718 -80 738 -90.5Q758 -101 781.5 -110Q805 -119 831 -125.5Q857 -132 884 -133V-137Q878 -140 862 -146Q846 -152 824 -158Q802 -164 776 -168.5Q750 -173 723 -173Q691 -173 668 -169.5Q645 -166 620.5 -154.5Q596 -143 564 -121Q532 -99 483 -63L417 -14Q413 -15 409 -15Q405 -15 401 -15Q334 -15 269.5 10.5Q205 36 154 83.5Q103 131 71.5 198.5Q40 266 40 350Q40 434 71.5 501.5Q103 569 154 616.5Q205 664 269.5 689.5Q334 715 401 715ZM401 710Q342 710 300 684.5Q258 659 231.5 612Q205 565 192.5 498.5Q180 432 180 350Q180 268 192.5 201.5Q205 135 231.5 88Q258 41 300 15.5Q342 -10 401 -10Q460 -10 501.5 15.5Q543 41 569.5 88Q596 135 608.5 201.5Q621 268 621 350Q621 432 608.5 498.5Q596 565 569.5 612Q543 659 501.5 684.5Q460 710 401 710Z" glyph-name="Q" horiz-adv-x="801" unicode="Q" /><glyph d="M358 700Q420 700 471 687.5Q522 675 558.5 651Q595 627 615 593.5Q635 560 635 518Q635 449 583 407Q531 365 442 349L587 174Q625 128 653.5 97.5Q682 67 705.5 47.5Q729 28 748.5 18.5Q768 9 788 5L799 3V0Q749 -9 718 -12Q687 -15 658 -12Q626 -9 600.5 2Q575 13 553 30.5Q531 48 511 72Q491 96 469 125L315 332H253V106Q253 89 255 73Q257 57 265 43.5Q273 30 289 20.5Q305 11 332 7L358 3V0H18V3L44 7Q71 11 88 20.5Q105 30 114.5 43.5Q124 57 127.5 73Q131 89 131 106V594Q131 611 127.5 627Q124 643 114.5 656.5Q105 670 88 679.5Q71 689 44 693L18 697V700ZM253 338 278 338Q395 338 450 385Q505 432 505 515Q505 562 489 596Q473 630 444.5 651.5Q416 673 378 683.5Q340 694 295 694H253Z" glyph-name="R" horiz-adv-x="762" unicode="R" /><glyph d="M543 203Q543 158 525 118Q507 78 473.5 48.5Q440 19 392.5 2Q345 -15 286 -15Q250 -15 217 -10Q184 -5 155 2Q126 9 100.5 16Q75 23 53 26V247H57Q71 198 91.5 151.5Q112 105 140 69Q168 33 204 11.5Q240 -10 286 -10Q323 -10 352 2Q381 14 401 34Q421 54 431.5 81.5Q442 109 442 139Q442 168 431.5 189.5Q421 211 403 228Q385 245 361.5 259Q338 273 312 286L211 340Q184 355 159 371Q134 387 115 407.5Q96 428 84.5 454.5Q73 481 73 517Q73 560 90.5 596Q108 632 140 658.5Q172 685 216 700Q260 715 313 715Q345 715 376 710Q407 705 434.5 699Q462 693 484.5 687Q507 681 520 679L517 517H513Q500 553 484 587.5Q468 622 445 649Q422 676 390 692.5Q358 709 312 709Q285 709 259.5 700Q234 691 214.5 673.5Q195 656 183.5 631.5Q172 607 172 576Q172 531 197 503.5Q222 476 266 453L363 401Q395 384 427.5 366.5Q460 349 485.5 326.5Q511 304 527 274.5Q543 245 543 203Z" glyph-name="S" horiz-adv-x="586" unicode="S" /><glyph d="M288 694 242 694Q205 694 178 684.5Q151 675 131 657.5Q111 640 94.5 614.5Q78 589 61 557L27 492H23V700H675V492H671L637 557Q620 589 603.5 614.5Q587 640 567 657.5Q547 675 520.5 684.5Q494 694 456 694H410V106Q410 89 413.5 73Q417 57 426.5 43.5Q436 30 453 20.5Q470 11 497 7L523 3V0H175V3L201 7Q228 11 245 20.5Q262 30 271.5 43.5Q281 57 284.5 73Q288 89 288 106Z" glyph-name="T" horiz-adv-x="698" unicode="T" /><glyph d="M243 206Q243 132 287 89Q331 46 410 46Q446 46 477 58.5Q508 71 531 90Q554 109 567 131.5Q580 154 580 174V594Q580 611 576.5 627Q573 643 563.5 656.5Q554 670 537 679.5Q520 689 493 693L467 697V700H815V697L789 693Q762 689 745 679.5Q728 670 718.5 656.5Q709 643 705.5 627Q702 611 702 594V106Q702 89 705.5 73Q709 57 718.5 43.5Q728 30 745 20.5Q762 11 789 7L815 3V0H580V142Q570 121 550.5 94Q531 67 502.5 43Q474 19 436 2Q398 -15 350 -15Q290 -15 247 2Q204 19 176 47.5Q148 76 134.5 115Q121 154 121 197V594Q121 611 117.5 627Q114 643 104.5 656.5Q95 670 78 679.5Q61 689 34 693L8 697V700H356V697L330 693Q303 689 286 679.5Q269 670 259.5 656.5Q250 643 246.5 627Q243 611 243 594Z" glyph-name="U" horiz-adv-x="833" unicode="U" /><glyph d="M720 700 720 697Q692 686 670 672.5Q648 659 628 633.5Q608 608 587 564.5Q566 521 538 450L357 -15H344L105 554Q87 597 70.5 623Q54 649 39.5 663.5Q25 678 12 684.5Q-1 691 -12 694L-22 697V700H336V697L322 695Q252 685 238 648.5Q224 612 250 546L410 144L528 449Q549 503 561.5 546.5Q574 590 571 621Q568 652 547.5 671Q527 690 482 694L453 697V700Z" glyph-name="V" horiz-adv-x="690" unicode="V" /><glyph d="M542 456 346 -15H333L104 554Q86 598 70 624Q54 650 39 664.5Q24 679 11 685Q-2 691 -13 694L-23 697V700H325V697L311 695Q248 686 235.5 649Q223 612 249 546L404 145L538 467L494 574Q479 610 467.5 632Q456 654 444.5 666.5Q433 679 421 685Q409 691 393 694L377 697V700H715V697L701 695Q674 691 655 684Q636 677 627 664Q618 651 619 629.5Q620 608 632 576L798 146L907 449Q927 504 939 547.5Q951 591 949 622Q947 653 926.5 671.5Q906 690 861 694L832 697V700H1099V697Q1071 686 1048.5 672.5Q1026 659 1005.5 633.5Q985 608 964 565Q943 522 917 450L748 -15H735Z" glyph-name="W" horiz-adv-x="1067" unicode="W" /><glyph d="M5 700 248 700L422 411L481 505Q540 598 527.5 643.5Q515 689 451 695L429 697V700H714V697L696 693Q682 690 665 682.5Q648 675 628 660Q600 639 566.5 601Q533 563 488 497L426 405L565 181Q618 96 657 54Q696 12 736 6L755 3V0H523L324 331L209 148Q182 105 181.5 78.5Q181 52 196 36.5Q211 21 235 14.5Q259 8 282 5L304 3V0H-16V3L-3 6Q20 11 44.5 20.5Q69 30 95 48.5Q121 67 148.5 96Q176 125 206 169L321 336L188 547Q145 616 106.5 650Q68 684 24 693L5 697Z" glyph-name="X" horiz-adv-x="731" unicode="X" /><glyph d="M420 355 473 441Q519 515 536.5 561.5Q554 608 550 635.5Q546 663 523.5 675Q501 687 467 693L443 697V700H733V697L728 696Q693 689 665 669.5Q637 650 608 615.5Q579 581 545 530Q511 479 465 410L423 347V99Q423 68 440.5 41.5Q458 15 510 7L536 3V0H188V3L214 7Q240 11 256.5 20Q273 29 282.5 41.5Q292 54 296 68.5Q300 83 301 99V315L109 603Q82 644 60.5 663.5Q39 683 10 691L-10 697V700H351V697L313 691Q265 683 255 657Q245 631 272 589Z" glyph-name="Y" horiz-adv-x="714" unicode="Y" /><glyph d="M306 694Q229 694 182 666.5Q135 639 100 574L61 502H57V700H631V697L154 6H353Q442 6 495.5 32Q549 58 585 119L653 235H657L637 0H13V3L493 694Z" glyph-name="Z" horiz-adv-x="680" unicode="Z" /><glyph d="M292 -185 292 -191H83V738H292V732H87Q100 690 119.5 633Q139 576 157 514.5Q175 453 187.5 390Q200 327 200 273Q200 219 187.5 156.5Q175 94 157 32Q139 -30 119.5 -86.5Q100 -143 87 -185Z" glyph-name="bracketleft" horiz-adv-x="295" unicode="[" /><glyph d="M29 791 46 791L389 -112H372Z" glyph-name="backslash" horiz-adv-x="420" unicode="\" /><glyph d="M208 -185Q195 -143 175.5 -86.5Q156 -30 138 32Q120 94 107.5 156.5Q95 219 95 273Q95 327 107.5 390Q120 453 138 514.5Q156 576 175.5 633Q195 690 208 732H3V738H212V-191H3V-185Z" glyph-name="bracketright" horiz-adv-x="295" unicode="]" /><glyph d="M98 358 276 715H284L462 358H454L280 668L106 358Z" glyph-name="asciicircum" horiz-adv-x="561" unicode="^" /><glyph d="M0 -99 0 -77H360V-99Z" glyph-name="underscore" horiz-adv-x="360" unicode="_" /><glyph d="M150 700 195 541H191L35 700Z" glyph-name="grave" horiz-adv-x="400" unicode="`" /><glyph d="M380 88Q380 59 397 48Q414 37 429 37Q442 37 452.5 41Q463 45 468 48L470 46Q464 37 455 26.5Q446 16 432.5 6.5Q419 -3 401 -9Q383 -15 361 -15Q320 -15 298 8Q276 31 274 63Q254 28 219.5 6.5Q185 -15 150 -15Q121 -15 99 -5.5Q77 4 62 19.5Q47 35 39 54.5Q31 74 31 95Q31 128 50.5 158.5Q70 189 114 206L275 269V341Q275 369 266 389Q257 409 242.5 422Q228 435 209.5 441Q191 447 171 447Q128 447 98 428Q68 409 54 380Q60 387 70 392Q80 397 91 397Q112 397 126 382.5Q140 368 140 351Q140 327 125 314.5Q110 302 92 302Q75 302 59.5 315.5Q44 329 44 353Q44 375 56.5 399.5Q69 424 92.5 445Q116 466 150 479.5Q184 493 227 493Q259 493 287.5 485.5Q316 478 337 461Q358 444 370 417Q382 390 382 351ZM135 134Q135 99 159 76Q183 53 220 53Q233 53 246.5 57Q260 61 273 68L275 263Q254 254 229.5 243Q205 232 184 216.5Q163 201 149 181Q135 161 135 134Z" glyph-name="a" horiz-adv-x="459" unicode="a" /><glyph d="M533 261Q533 207 515 157Q497 107 464 68.5Q431 30 383.5 7.5Q336 -15 277 -15Q258 -15 235.5 -12Q213 -9 191 -3Q169 3 149.5 11Q130 19 116 28Q111 26 95.5 15.5Q80 5 72 -7H68V690L-8 721V724Q45 732 85.5 742Q126 752 175 766H177Q176 750 176 721Q176 694 175.5 654Q175 614 175 552V421Q197 452 236 472.5Q275 493 323 493Q366 493 404 476Q442 459 470.5 428Q499 397 516 354.5Q533 312 533 261ZM175 98Q175 39 205.5 14.5Q236 -10 278 -10Q310 -10 336.5 8Q363 26 382 57.5Q401 89 411 130.5Q421 172 421 218Q421 263 409.5 302Q398 341 376 369.5Q354 398 321 414Q288 430 246 430Q227 430 210 426.5Q193 423 175 415Z" glyph-name="b" horiz-adv-x="566" unicode="b" /><glyph d="M262 -15Q209 -15 166.5 3.5Q124 22 94.5 55.5Q65 89 49 135.5Q33 182 33 238Q33 284 50.5 329.5Q68 375 100.5 411.5Q133 448 179 470.5Q225 493 281 493Q316 493 345 486Q374 479 394.5 467Q415 455 426 439Q437 423 437 406Q437 380 420 364.5Q403 349 382 349Q367 349 355.5 355.5Q344 362 338 372Q330 386 328 402.5Q326 419 323 436Q319 459 309 474.5Q299 490 275 490Q241 490 216 473Q191 456 174.5 427.5Q158 399 150 360.5Q142 322 142 278Q142 228 154 187Q166 146 189 117Q212 88 245 72Q278 56 319 56Q345 56 367.5 63.5Q390 71 408 83Q426 95 438.5 110Q451 125 457 140H461Q459 124 446.5 98Q434 72 409.5 47Q385 22 348.5 3.5Q312 -15 262 -15Z" glyph-name="c" horiz-adv-x="474" unicode="c" /><glyph d="M499 52 564 31V28Q555 27 532 21.5Q509 16 482 9.5Q455 3 429.5 -4Q404 -11 390 -15H388L392 57Q370 26 330.5 5.5Q291 -15 238 -15Q198 -15 161 1Q124 17 95.5 47.5Q67 78 50.5 123.5Q34 169 34 227Q34 278 51.5 326Q69 374 103 411Q137 448 186.5 470.5Q236 493 300 493Q320 493 344.5 489Q369 485 392 478V690L316 721V724Q369 732 409.5 742Q450 752 499 766H501Q500 750 500 721Q500 694 499.5 654Q499 614 499 552ZM146 260Q146 215 157.5 176Q169 137 191 108.5Q213 80 246 64Q279 48 321 48Q340 48 357 51.5Q374 55 392 63V380Q392 407 383.5 427.5Q375 448 361.5 461.5Q348 475 331 481.5Q314 488 297 488Q257 488 228.5 468.5Q200 449 181.5 417Q163 385 154.5 344Q146 303 146 260Z" glyph-name="d" horiz-adv-x="575" unicode="d" /><glyph d="M34 238Q34 288 50 334Q66 380 96 415Q126 450 168 471.5Q210 493 262 493Q308 493 344 478.5Q380 464 405 439Q430 414 443.5 380.5Q457 347 457 310V305H144Q143 297 143 289.5Q143 282 143 278Q143 228 155 187Q167 146 190 117Q213 88 246 72Q279 56 320 56Q346 56 368.5 63.5Q391 71 409 83Q427 95 439.5 110Q452 125 458 140H462Q460 124 447.5 98Q435 72 410.5 47Q386 22 349.5 3.5Q313 -15 263 -15Q210 -15 167.5 3.5Q125 22 95.5 55.5Q66 89 50 135.5Q34 182 34 238ZM346 309 346 348Q346 374 342.5 399Q339 424 329.5 444.5Q320 465 303.5 477.5Q287 490 262 490Q235 490 214.5 476Q194 462 180 438Q166 414 157 381Q148 348 144 309Z" glyph-name="e" horiz-adv-x="491" unicode="e" /><glyph d="M251 770Q274 770 296 763.5Q318 757 335.5 744.5Q353 732 364 712.5Q375 693 375 667Q375 644 360.5 628Q346 612 326 612Q303 612 290.5 627Q278 642 278 659Q278 677 290.5 691Q303 705 325 705Q337 705 348 699Q359 693 364 685L366 686Q359 718 335 735Q311 752 283 752Q266 752 249.5 746.5Q233 741 220.5 728Q208 715 200 693Q192 671 192 637V477H276V471H192V58Q192 36 202 25.5Q212 15 239 9L264 3V0H23V3L37 7Q64 15 74.5 27Q85 39 85 58V471H21V477H85V599Q85 641 98 673Q111 705 133.5 726.5Q156 748 186.5 759Q217 770 251 770Z" glyph-name="f" horiz-adv-x="291" unicode="f" /><glyph d="M448 413Q427 413 410 409Q430 377 430 340Q430 309 415.5 281Q401 253 375 232.5Q349 212 314 200Q279 188 238 188Q203 188 173.5 196Q144 204 120 218Q107 195 107 175Q107 150 122 130.5Q137 111 186 108L335 99Q408 95 451.5 67.5Q495 40 495 -25Q495 -62 476 -99.5Q457 -137 420.5 -167Q384 -197 331 -216Q278 -235 209 -235Q109 -235 56.5 -199.5Q4 -164 4 -113Q4 -93 14 -75.5Q24 -58 40 -44.5Q56 -31 76.5 -23Q97 -15 118 -13L120 -14Q99 -37 91.5 -62Q84 -87 84 -106Q84 -156 127 -186.5Q170 -217 255 -217Q288 -217 319 -209.5Q350 -202 373.5 -187Q397 -172 411 -149Q425 -126 425 -96Q425 -69 416 -52Q407 -35 389.5 -25Q372 -15 347.5 -10Q323 -5 293 -3L161 6Q108 10 72.5 35Q37 60 37 106Q37 124 44.5 141.5Q52 159 63.5 174Q75 189 89 201Q103 213 115 220Q83 242 64 273Q45 304 45 340Q45 372 59.5 400Q74 428 100 448.5Q126 469 161.5 481Q197 493 238 493Q293 493 337 471.5Q381 450 405 415Q412 427 423 440.5Q434 454 448.5 466Q463 478 481 485.5Q499 493 519 493Q524 493 535 492Q546 491 553 488V483Q553 467 548.5 439.5Q544 412 535 393Q487 413 448 413ZM238 489Q211 489 194.5 477.5Q178 466 169 445.5Q160 425 157.5 398Q155 371 155 340Q155 309 157.5 282Q160 255 169 235Q178 215 194.5 203.5Q211 192 238 192Q265 192 281.5 203.5Q298 215 306.5 235Q315 255 317.5 282Q320 309 320 340Q320 371 317.5 398Q315 425 306.5 445.5Q298 466 281.5 477.5Q265 489 238 489Z" glyph-name="g" horiz-adv-x="539" unicode="g" /><glyph d="M487 54Q487 37 499.5 25.5Q512 14 534 9L559 3V0H318V3L333 8Q353 15 366.5 25Q380 35 380 54V330Q380 363 371 384Q362 405 348 416Q334 427 317.5 431Q301 435 286 435Q258 435 230.5 421Q203 407 185 389V54Q185 37 198 25.5Q211 14 232 9L258 3V0H16V3L31 8Q51 15 64.5 25Q78 35 78 54V690L2 721V724Q55 732 95.5 742Q136 752 185 766H187Q186 750 186 721Q186 694 185.5 654Q185 614 185 552V393Q193 405 207.5 422.5Q222 440 243.5 455.5Q265 471 292.5 482Q320 493 353 493Q371 493 394 487.5Q417 482 438 467Q459 452 473 425Q487 398 487 354Z" glyph-name="h" horiz-adv-x="566" unicode="h" /><glyph d="M141 609Q114 609 95.5 627Q77 645 77 672Q77 698 95.5 716.5Q114 735 141 735Q168 735 186.5 716.5Q205 698 205 672Q205 645 186.5 627Q168 609 141 609ZM197 53Q197 34 210.5 23Q224 12 244 7L259 3V0H28V3L42 7Q63 13 76.5 23.5Q90 34 90 53V417L14 448V451Q67 459 107.5 469Q148 479 197 493H199Q198 477 198 448Q198 421 197.5 381Q197 341 197 279Z" glyph-name="i" horiz-adv-x="276" unicode="i" /><glyph d="M135 609Q108 609 89.5 627Q71 645 71 672Q71 698 89.5 716.5Q108 735 135 735Q162 735 180.5 716.5Q199 698 199 672Q199 645 180.5 627Q162 609 135 609ZM192 -54Q192 -101 180.5 -134.5Q169 -168 148.5 -190Q128 -212 101 -222Q74 -232 43 -232Q16 -232 -15 -224Q-46 -216 -65 -197L-61 -193Q-34 -206 -9 -206Q30 -206 57.5 -181Q85 -156 85 -108V417L9 448V451Q62 459 102.5 469Q143 479 192 493H194Q193 477 193 448Q193 421 192.5 381Q192 341 192 279Z" glyph-name="j" horiz-adv-x="260" unicode="j" /><glyph d="M276 320 430 115Q452 86 468.5 66.5Q485 47 498.5 35Q512 23 523 16.5Q534 10 543 7L555 3V0H445Q426 0 411.5 3Q397 6 381 17Q365 28 346 51Q327 74 300 113L196 264H185V54Q185 33 197 23.5Q209 14 232 9L258 3V0H16V3L31 8Q54 15 66 24Q78 33 78 54V690L2 721V724Q55 732 95.5 742Q136 752 185 766H187Q186 750 186 721Q186 694 185.5 654Q185 614 185 552V268H209L310 355Q366 402 366 433Q366 463 322 469L288 474V477H518V474L506 471Q486 466 452.5 450.5Q419 435 370 396Z" glyph-name="k" horiz-adv-x="535" unicode="k" /><glyph d="M186 53Q186 34 199.5 23Q213 12 233 7L248 3V0H17V3L31 7Q52 13 65.5 23.5Q79 34 79 53V690L3 721V724Q56 732 96.5 742Q137 752 186 766H188Q187 750 187 721Q187 694 186.5 654Q186 614 186 552Z" glyph-name="l" horiz-adv-x="265" unicode="l" /><glyph d="M269 0 27 0V3L42 8Q62 15 75.5 24.5Q89 34 89 53V417L13 448V451Q66 459 106.5 469Q147 479 196 493H198L196 393Q204 405 217 422.5Q230 440 250 455.5Q270 471 296 482Q322 493 355 493Q371 493 390.5 489Q410 485 428 474Q446 463 461 443.5Q476 424 482 393Q490 406 504.5 423.5Q519 441 539.5 456.5Q560 472 586.5 482.5Q613 493 645 493Q663 493 685.5 487.5Q708 482 728.5 467Q749 452 762.5 424.5Q776 397 776 353V53Q776 36 789 25Q802 14 823 9L849 3V0H607V3L622 8Q642 15 655.5 24.5Q669 34 669 53V328Q669 361 661.5 382Q654 403 642 415Q630 427 615 431Q600 435 585 435Q557 435 528 420Q499 405 483 389Q486 373 486 353V53Q486 36 499 25Q512 14 533 9L559 3V0H317V3L332 8Q352 15 365.5 24.5Q379 34 379 53V328Q379 361 372 382Q365 403 353.5 415Q342 427 328 431Q314 435 299 435Q271 435 242.5 421Q214 407 196 389V53Q196 36 209 25Q222 14 243 9L269 3Z" glyph-name="m" horiz-adv-x="855" unicode="m" /><glyph d="M391 330Q391 363 382 384Q373 405 359 416Q345 427 328.5 431Q312 435 297 435Q269 435 241.5 421Q214 407 196 389V53Q196 36 209 25Q222 14 243 9L269 3V0H27V3L42 8Q62 15 75.5 24.5Q89 34 89 53V417L13 448V451Q66 459 106.5 469Q147 479 196 493H198L196 393Q204 405 218.5 422.5Q233 440 254.5 455.5Q276 471 303.5 482Q331 493 364 493Q382 493 405 487.5Q428 482 449 467Q470 452 484 425Q498 398 498 354V53Q498 36 511 25Q524 14 545 9L571 3V0H329V3L344 8Q364 15 377.5 24.5Q391 34 391 53Z" glyph-name="n" horiz-adv-x="577" unicode="n" /><glyph d="M515 239Q515 186 496 140Q477 94 444 59.5Q411 25 367 5Q323 -15 274 -15Q225 -15 181 4.5Q137 24 104 58.5Q71 93 52 139.5Q33 186 33 239Q33 292 52 338Q71 384 104 418.5Q137 453 181 473Q225 493 274 493Q323 493 367 473Q411 453 444 418.5Q477 384 496 338Q515 292 515 239ZM394 239Q394 308 384 355.5Q374 403 357 433Q340 463 318.5 476Q297 489 274 489Q251 489 229 476Q207 463 190.5 433Q174 403 164 355.5Q154 308 154 239Q154 170 164 122Q174 74 190.5 44.5Q207 15 229 2Q251 -11 274 -11Q297 -11 318.5 2Q340 15 357 45Q374 75 384 122.5Q394 170 394 239Z" glyph-name="o" horiz-adv-x="548" unicode="o" /><glyph d="M550 251Q550 197 532.5 148.5Q515 100 482 63.5Q449 27 402 6Q355 -15 296 -15Q267 -15 241 -11Q215 -7 192 -1V-162Q192 -182 201.5 -192.5Q211 -203 239 -211L264 -217V-220H23V-217L37 -213Q65 -205 75 -193Q85 -181 85 -162V417L9 448V451Q62 459 102.5 469Q143 479 192 493H194L192 421Q214 452 253 472.5Q292 493 340 493Q383 493 421 475.5Q459 458 487.5 426.5Q516 395 533 350.5Q550 306 550 251ZM192 98Q192 43 223.5 16.5Q255 -10 297 -10Q337 -10 364 11Q391 32 407.5 65Q424 98 431 138.5Q438 179 438 218Q438 263 426.5 302Q415 341 393 369.5Q371 398 338 414Q305 430 263 430Q244 430 227 426.5Q210 423 192 415Z" glyph-name="p" horiz-adv-x="584" unicode="p" /><glyph d="M300 493Q323 493 351 487.5Q379 482 397 474Q419 474 448.5 480Q478 486 495 493H499V-162Q499 -181 509 -193Q519 -205 547 -213L561 -217V-220H320V-217L345 -211Q373 -203 382.5 -192.5Q392 -182 392 -162V57Q370 26 330.5 5.5Q291 -15 238 -15Q198 -15 161 1Q124 17 95.5 47.5Q67 78 50.5 123.5Q34 169 34 227Q34 278 51.5 326Q69 374 103 411Q137 448 186.5 470.5Q236 493 300 493ZM146 260Q146 215 157.5 176Q169 137 191 108.5Q213 80 246 64Q279 48 321 48Q340 48 357 51.5Q374 55 392 63V380Q392 407 383.5 427.5Q375 448 361.5 461.5Q348 475 331 481.5Q314 488 297 488Q257 488 228.5 468.5Q200 449 181.5 417Q163 385 154.5 344Q146 303 146 260Z" glyph-name="q" horiz-adv-x="567" unicode="q" /><glyph d="M13 448 13 451Q66 459 106.5 469Q147 479 196 493H198L196 383Q204 395 219 414Q234 433 255.5 450.5Q277 468 303.5 480.5Q330 493 359 493Q365 493 370.5 493Q376 493 382 492Q380 475 376 456Q373 439 368 419.5Q363 400 355 380Q301 402 259 397.5Q217 393 196 379V54Q196 22 242 12L286 3V0H27V3L42 8Q62 15 75.5 25Q89 35 89 54V417Z" glyph-name="r" horiz-adv-x="384" unicode="r" /><glyph d="M216 -15Q190 -15 164.5 -10.5Q139 -6 116.5 0Q94 6 75 11Q56 16 44 16V165H48Q63 127 80.5 95Q98 63 119 39.5Q140 16 164.5 3Q189 -10 219 -10Q273 -10 299 18Q325 46 325 82Q325 107 315 123.5Q305 140 287.5 153Q270 166 247 176Q224 186 197 198Q168 211 142 223.5Q116 236 96.5 252.5Q77 269 65.5 291Q54 313 54 346Q54 378 67.5 405Q81 432 105.5 451.5Q130 471 163.5 482Q197 493 237 493Q278 493 314 485Q350 477 375 477L370 359H366Q353 386 340 410Q327 434 312 451Q297 468 278.5 478Q260 488 234 488Q186 488 161.5 460.5Q137 433 137 397Q137 362 160 342Q183 322 227 302Q257 288 288.5 276Q320 264 345.5 247Q371 230 387 206Q403 182 403 144Q403 112 389.5 83Q376 54 351 32.5Q326 11 292 -2Q258 -15 216 -15Z" glyph-name="s" horiz-adv-x="435" unicode="s" /><glyph d="M194 -15Q140 -15 108 14.5Q76 44 76 100V471H10V477H76L181 620H183V477H310V471H183V102Q183 61 207 44Q231 27 260 27Q283 27 299 36.5Q315 46 326 60L329 58Q323 46 311 33Q299 20 282 9.5Q265 -1 243 -8Q221 -15 194 -15Z" glyph-name="t" horiz-adv-x="317" unicode="t" /><glyph d="M552 31 552 28Q537 26 509.5 20Q482 14 453 7.5Q424 1 400.5 -5.5Q377 -12 369 -15H367L370 85Q363 74 350 57Q337 40 317 24Q297 8 270.5 -3.5Q244 -15 210 -15Q185 -15 161 -6.5Q137 2 118.5 19Q100 36 89 63Q78 90 78 126V423Q78 440 65.5 451.5Q53 463 31 468L6 474V477H185V137Q185 110 192.5 92Q200 74 212.5 63Q225 52 241.5 47.5Q258 43 275 43Q301 43 326.5 56Q352 69 370 89V423Q370 440 357 451.5Q344 463 323 468L297 474V477H477V52Z" glyph-name="u" horiz-adv-x="561" unicode="u" /><glyph d="M518 477 518 473L514 472Q494 467 478 452.5Q462 438 447 414Q432 390 416.5 356Q401 322 382 278L256 -9H251L94 355Q79 390 69 410.5Q59 431 49 444Q36 460 24.5 464.5Q13 469 2 471L-10 473V477H258V473L242 472Q204 470 193 450Q182 430 199 387L307 123L397 328Q420 380 420 408.5Q420 437 408 450.5Q396 464 378 467Q360 470 347 472L340 473V477Z" glyph-name="v" horiz-adv-x="506" unicode="v" /><glyph d="M394 312 255 -9H250L93 355Q78 390 68 410.5Q58 431 48 444Q35 460 23.5 464.5Q12 469 1 471L-11 473V477H257V473L241 472Q203 470 192 450Q181 430 198 387L306 123L391 320L327 477H448L581 123L671 328Q694 380 694 408.5Q694 437 683 451Q672 465 654.5 468Q637 471 624 472L614 473V477H792V473L788 472Q768 467 752 452.5Q736 438 721 414Q706 390 690.5 356Q675 322 656 278L530 -9H525Z" glyph-name="w" horiz-adv-x="778" unicode="w" /><glyph d="M358 0 231 214L189 152Q160 110 152 82Q144 54 151 37.5Q158 21 177 13.5Q196 6 221 4L232 3V0H-12V3L-1 5Q14 8 30.5 12.5Q47 17 67 30Q87 43 111.5 67Q136 91 166 132L229 217L132 370Q113 400 97 419.5Q81 439 66.5 450Q52 461 37.5 466Q23 471 7 474V477H192L301 290L344 350Q386 407 380.5 439Q375 471 321 473L296 474V477H518V474L512 473Q500 471 484 466Q468 461 449 450Q430 439 409.5 420.5Q389 402 368 373L303 287L387 154Q416 108 437 80Q458 52 474.5 36Q491 20 506 13.5Q521 7 538 4L544 3V0Z" glyph-name="x" horiz-adv-x="529" unicode="x" /><glyph d="M51 -176Q51 -151 68 -133.5Q85 -116 110 -116Q122 -116 135.5 -120.5Q149 -125 162 -127Q175 -129 186 -125.5Q197 -122 204 -105L250 -1L68 410Q44 464 3 472L-7 474V477H249V474L233 472Q202 468 192.5 449Q183 430 200 388L306 129L388 323Q410 374 409.5 403.5Q409 433 396 448Q383 463 362.5 467.5Q342 472 323 473L315 474V477H513V474L509 473Q489 468 473 453.5Q457 439 440.5 411.5Q424 384 405 342Q386 300 359 238L182 -173Q167 -208 149.5 -221.5Q132 -235 111 -235Q86 -235 68.5 -218Q51 -201 51 -176Z" glyph-name="y" horiz-adv-x="499" unicode="y" /><glyph d="M12 0 12 3L314 472H189Q163 472 144.5 464Q126 456 112 442Q98 428 87 410Q76 392 65 372L44 335H41L50 477H436V474L136 5H298Q324 5 344.5 14.5Q365 24 381.5 40Q398 56 410 76Q422 96 431 117L446 153H449L441 0Z" glyph-name="z" horiz-adv-x="475" unicode="z" /><glyph d="M141 190Q141 237 119 259Q97 281 59 281H0V287H59Q97 287 119 309Q141 331 141 378Q141 397 132 428.5Q123 460 111.5 495.5Q100 531 91 565Q82 599 82 623Q82 648 90 670.5Q98 693 118.5 710.5Q139 728 173.5 738Q208 748 262 748L270 746L263 745Q234 741 213.5 721Q193 701 193 651Q193 634 199 604Q205 574 212.5 539.5Q220 505 226 469.5Q232 434 232 407Q232 364 195.5 329Q159 294 93 285V283Q126 278 152 265.5Q178 253 195.5 236Q213 219 222.5 198.5Q232 178 232 157Q232 130 226 94.5Q220 59 212.5 24.5Q205 -10 199 -40Q193 -70 193 -87Q193 -137 213.5 -157Q234 -177 263 -181L270 -182L262 -184Q208 -184 173.5 -174Q139 -164 118.5 -146.5Q98 -129 90 -106.5Q82 -84 82 -59Q82 -35 91 -0.5Q100 34 111.5 70Q123 106 132 138.5Q141 171 141 190Z" glyph-name="braceleft" horiz-adv-x="294" unicode="{" /><glyph d="M84 -192 84 874H112V-192Z" glyph-name="bar" horiz-adv-x="196" unicode="|" /><glyph d="M153 190Q153 171 162 138.5Q171 106 182.5 70Q194 34 203 -0.5Q212 -35 212 -59Q212 -84 204 -106.5Q196 -129 175.5 -146.5Q155 -164 120.5 -174Q86 -184 32 -184L24 -182L31 -181Q60 -177 80.5 -157Q101 -137 101 -87Q101 -70 95 -40Q89 -10 81.5 24.5Q74 59 68 94.5Q62 130 62 157Q62 178 71.5 198.5Q81 219 98.5 236Q116 253 142 265.5Q168 278 201 283V285Q135 294 98.5 329Q62 364 62 407Q62 434 68 469.5Q74 505 81.5 539.5Q89 574 95 604Q101 634 101 651Q101 701 80.5 721Q60 741 31 745L24 746L32 748Q86 748 120.5 738Q155 728 175.5 710.5Q196 693 204 670.5Q212 648 212 623Q212 599 203 565Q194 531 182.5 495.5Q171 460 162 428.5Q153 397 153 378Q153 331 175 309Q197 287 235 287H294V281H235Q197 281 175 259Q153 237 153 190Z" glyph-name="braceright" horiz-adv-x="294" unicode="}" /><glyph d="M386 310Q369 310 340.5 316Q312 322 279.5 329.5Q247 337 215 343Q183 349 159 349Q127 349 109.5 331.5Q92 314 82 287L81 292Q86 320 96.5 338Q107 356 120.5 366.5Q134 377 149.5 381Q165 385 181 385Q199 385 230 379Q261 373 295 365.5Q329 358 360 352Q391 346 407 346Q439 346 456.5 363.5Q474 381 484 408L485 403Q480 375 470 357Q460 339 446.5 328.5Q433 318 417.5 314Q402 310 386 310Z" glyph-name="asciitilde" horiz-adv-x="561" unicode="~" /><glyph d="" glyph-name="uni00A0" horiz-adv-x="236" unicode="" /><glyph d="M109 477Q138 477 159 456.5Q180 436 180 407Q180 378 159 357Q138 336 109 336Q80 336 59.5 357Q39 378 39 407Q39 436 59.5 456.5Q80 477 109 477ZM111 261 112 228Q114 162 123 96Q132 30 142.5 -26.5Q153 -83 161.5 -127Q170 -171 170 -193Q170 -212 163 -224Q156 -236 147 -242.5Q138 -249 128 -251Q118 -253 112 -253H106Q100 -253 90 -251Q80 -249 71 -242.5Q62 -236 55 -224Q48 -212 48 -193Q48 -171 56.5 -127Q65 -83 75.5 -26.5Q86 30 95 96Q104 162 106 228L107 261Z" glyph-name="exclamdown" horiz-adv-x="218" unicode="" /><glyph d="M270 -15Q246 -15 219 -10L200 -115H197L216 -9Q134 8 87.5 74.5Q41 141 41 238Q41 284 58.5 329.5Q76 375 108.5 411.5Q141 448 187 470.5Q233 493 289 493Q293 493 297 493Q301 493 305 492L320 575H323L308 492Q371 488 408 463Q445 438 445 406Q445 380 428 364.5Q411 349 390 349Q375 349 363.5 355.5Q352 362 346 372Q338 386 336 402.5Q334 419 331 436Q328 452 323 464.5Q318 477 307 484L235 81Q276 56 327 56Q353 56 375.5 63.5Q398 71 416 83Q434 95 446.5 110Q459 125 465 140H469Q467 124 454.5 98Q442 72 417.5 47Q393 22 356.5 3.5Q320 -15 270 -15ZM150 278Q150 210 171.5 160Q193 110 232 83L304 485Q294 490 283 490Q249 490 224 473Q199 456 182.5 427.5Q166 399 158 360.5Q150 322 150 278Z" glyph-name="cent" horiz-adv-x="505" unicode="" /><glyph d="M602 376 421 376Q413 340 397.5 306Q382 272 364 242Q346 212 327.5 188.5Q309 165 294 151Q329 136 377 119.5Q425 103 474 89Q523 75 566 66Q609 57 634 57Q682 57 682 80Q682 89 670.5 92.5Q659 96 645.5 101Q632 106 620.5 116Q609 126 609 149Q609 163 620 176.5Q631 190 652 190Q671 190 687.5 173Q704 156 704 127Q704 108 691 81Q678 54 652.5 29.5Q627 5 589 -12Q551 -29 502 -29Q465 -29 429 -20.5Q393 -12 359.5 1.5Q326 15 296 30.5Q266 46 241 60Q234 51 224 38Q214 25 199.5 13Q185 1 166 -7.5Q147 -16 123 -16Q78 -16 53.5 10Q29 36 29 74Q29 98 39 118.5Q49 139 65.5 153Q82 167 103.5 175Q125 183 148 183Q174 183 210.5 176Q247 169 289 152Q299 211 302.5 268Q306 325 309 376H139V384H309Q311 461 322.5 520.5Q334 580 359 623Q374 649 396 668.5Q418 688 444.5 701Q471 714 499.5 720.5Q528 727 556 727Q589 727 619.5 718Q650 709 674 691.5Q698 674 712.5 648Q727 622 727 589Q727 567 719 546.5Q711 526 695.5 510.5Q680 495 657 485.5Q634 476 604 476Q579 476 553.5 487Q528 498 509 513L511 517Q533 510 555 510Q579 510 597.5 520Q616 530 628.5 546.5Q641 563 647 583Q653 603 653 624Q653 661 633.5 690Q614 719 572 719Q542 719 519 699.5Q496 680 482 637Q477 622 472.5 603.5Q468 585 462 556Q456 527 446.5 485.5Q437 444 423 384H602ZM125 -10Q147 -10 164.5 -2Q182 6 195.5 17Q209 28 219 41Q229 54 236 63Q226 69 210.5 77.5Q195 86 177 93.5Q159 101 140.5 106.5Q122 112 106 112Q74 112 58.5 94Q43 76 43 59Q43 48 47 35.5Q51 23 61 13Q71 3 86.5 -3.5Q102 -10 125 -10Z" glyph-name="sterling" horiz-adv-x="773" unicode="" /><glyph d="M81 349Q81 388 95.5 435.5Q110 483 145 527L55 613L86 644L172 558Q207 590 255 606Q303 622 348 622Q393 622 441 605.5Q489 589 524 558L610 644L641 613L551 527Q586 483 600.5 435.5Q615 388 615 349Q615 310 600.5 262.5Q586 215 551 171L641 85L610 54L524 140Q489 109 441 92.5Q393 76 348 76Q303 76 255 92Q207 108 172 140L86 54L55 85L145 171Q110 215 95.5 262.5Q81 310 81 349ZM571 349Q571 397 554.5 439.5Q538 482 509 513.5Q480 545 439 563.5Q398 582 348 582Q299 582 257.5 563.5Q216 545 187 513.5Q158 482 141.5 439.5Q125 397 125 349Q125 301 141.5 258.5Q158 216 187 184.5Q216 153 257.5 134.5Q299 116 348 116Q398 116 439 134.5Q480 153 509 184.5Q538 216 554.5 258.5Q571 301 571 349Z" glyph-name="currency" horiz-adv-x="696" unicode="" /><glyph d="M574 0 226 0V3L252 7Q278 11 294.5 20Q311 29 320.5 41.5Q330 54 334 68.5Q338 83 339 99V250H133V257H339V315L268 421H133V428H264L147 603Q120 644 98.5 663.5Q77 683 48 691L28 697V700H389V697L351 691Q303 683 293 657Q283 631 310 589L458 355L511 441Q557 515 574.5 561.5Q592 608 588 635.5Q584 663 561.5 675Q539 687 505 693L481 697V700H771V697L766 696Q732 689 704.5 670.5Q677 652 649.5 619.5Q622 587 590 540Q558 493 515 428H641V421H510Q508 418 506.5 415.5Q505 413 503 410L461 347V257H641V250H461V99Q461 68 478.5 41.5Q496 15 548 7L574 3Z" glyph-name="yen" horiz-adv-x="797" unicode="" /><glyph d="M86 412 86 874H114V412ZM86 -192 86 271H114V-192Z" glyph-name="brokenbar" horiz-adv-x="200" unicode="" /><glyph d="M483 -25Q483 -60 468.5 -90Q454 -120 427 -142Q400 -164 362 -176.5Q324 -189 277 -189Q259 -189 241.5 -185.5Q224 -182 208 -178Q192 -174 178.5 -170.5Q165 -167 154 -167Q143 -167 138.5 -171Q134 -175 132 -179H128Q127 -172 125.5 -150Q124 -128 123 -101.5Q122 -75 121.5 -50Q121 -25 121 -11H125L132 -31Q158 -106 194.5 -145.5Q231 -185 281 -185Q301 -185 319 -177Q337 -169 350.5 -155.5Q364 -142 372 -124.5Q380 -107 380 -87Q381 -43 355.5 -13.5Q330 16 291.5 38.5Q253 61 207.5 81.5Q162 102 123.5 127.5Q85 153 59 188Q33 223 33 275Q33 304 47 332.5Q61 361 83.5 383.5Q106 406 135 421.5Q164 437 194 441Q179 461 170.5 483.5Q162 506 162 535Q162 570 176.5 600Q191 630 218 652Q245 674 283 686.5Q321 699 368 699Q386 699 403.5 695.5Q421 692 437 688Q453 684 467 680.5Q481 677 491 677Q502 677 506.5 681Q511 685 513 689H517Q519 682 520 660Q521 638 522 611.5Q523 585 523.5 560Q524 535 524 521H520L513 541Q487 616 450.5 655.5Q414 695 364 695Q344 695 326.5 687Q309 679 295.5 665.5Q282 652 273.5 634.5Q265 617 265 597Q264 553 289.5 523.5Q315 494 353.5 471.5Q392 449 437.5 428.5Q483 408 521.5 382.5Q560 357 586 322Q612 287 612 235Q612 206 598 177.5Q584 149 561 126Q538 103 509 87.5Q480 72 450 68Q465 49 474 26Q483 3 483 -25ZM123 327Q123 296 141 272.5Q159 249 187.5 229.5Q216 210 251.5 193.5Q287 177 323 159Q359 141 392 120Q425 99 448 72Q485 87 503.5 116.5Q522 146 522 183Q522 215 504 238.5Q486 262 457.5 281Q429 300 393 316.5Q357 333 321 351Q285 369 252.5 389.5Q220 410 197 438Q159 423 141 393Q123 363 123 327Z" glyph-name="section" horiz-adv-x="645" unicode="" /><glyph d="M110 573Q85 573 68 590Q51 607 51 631Q51 655 68 672Q85 689 110 689Q134 689 151 672Q168 655 168 631Q168 607 151 590Q134 573 110 573ZM290 573Q265 573 248 590Q231 607 231 631Q231 655 248 672Q265 689 290 689Q314 689 331 672Q348 655 348 631Q348 607 331 590Q314 573 290 573Z" glyph-name="dieresis" horiz-adv-x="400" unicode="" /><glyph d="M445 -57Q361 -57 287.5 -25Q214 7 158.5 62.5Q103 118 71 191.5Q39 265 39 349Q39 433 71 506.5Q103 580 158.5 635Q214 690 287.5 722Q361 754 445 754Q529 754 602.5 722Q676 690 731.5 634.5Q787 579 819 505.5Q851 432 851 348Q851 264 819 190.5Q787 117 731.5 62Q676 7 602.5 -25Q529 -57 445 -57ZM445 747Q364 747 292 715.5Q220 684 166 630Q112 576 80.5 503.5Q49 431 49 349Q49 267 80.5 194.5Q112 122 166 68Q220 14 292 -17.5Q364 -49 445 -49Q526 -49 598 -17.5Q670 14 724 68Q778 122 809.5 194.5Q841 267 841 349Q841 431 809.5 503.5Q778 576 724 630Q670 684 598 715.5Q526 747 445 747ZM454 102Q405 102 363 120Q321 138 290.5 170.5Q260 203 243 248.5Q226 294 226 350Q226 401 243.5 448Q261 495 293 531Q325 567 369.5 588.5Q414 610 468 610Q543 610 587 584Q631 558 631 523Q631 497 614 481.5Q597 466 576 466Q561 466 549 472.5Q537 479 531 489Q523 503 521 519.5Q519 536 516 553Q512 576 502 591Q492 606 468 606Q437 606 412.5 589.5Q388 573 370.5 544Q353 515 344 477Q335 439 335 395Q335 345 347 304Q359 263 382 234Q405 205 438 189Q471 173 512 173Q538 173 561 180.5Q584 188 602 199.5Q620 211 633 226Q646 241 652 256L655 254Q653 238 640 212.5Q627 187 602.5 162.5Q578 138 541 120Q504 102 454 102Z" glyph-name="copyright" horiz-adv-x="891" unicode="" /><glyph d="M393 310Q393 281 410 270Q427 259 442 259Q455 259 465.5 263Q476 267 481 270L483 268Q477 259 468 248.5Q459 238 445.5 228.5Q432 219 414 213Q396 207 374 207Q333 207 311 230Q289 253 287 285Q267 250 232.5 228.5Q198 207 163 207Q134 207 112 216.5Q90 226 75 241.5Q60 257 52 276.5Q44 296 44 317Q44 350 63.5 380.5Q83 411 127 428L288 491V563Q288 591 279 611Q270 631 255.5 644Q241 657 222.5 663Q204 669 184 669Q141 669 111 650Q81 631 67 602Q73 609 83 614Q93 619 104 619Q125 619 139 604.5Q153 590 153 573Q153 549 138 536.5Q123 524 105 524Q88 524 72.5 537.5Q57 551 57 575Q57 597 69.5 621.5Q82 646 105.5 667Q129 688 163 701.5Q197 715 240 715Q272 715 300.5 707.5Q329 700 350 683Q371 666 383 639Q395 612 395 573ZM148 356Q148 321 172 298Q196 275 233 275Q246 275 259.5 279Q273 283 286 290L288 485Q267 476 242.5 465Q218 454 197 438.5Q176 423 162 403Q148 383 148 356Z" glyph-name="ordfeminine" horiz-adv-x="500" unicode="" /><glyph d="M228 504 230 500L152 278L230 56L228 52L40 278ZM405 504 407 500L329 278L407 56L405 52L217 278Z" glyph-name="guillemotleft" horiz-adv-x="458" unicode="" /><glyph d="M480 247 480 460H70V468H488V247Z" glyph-name="logicalnot" horiz-adv-x="561" unicode="" /><glyph d="M45 473Q45 531 67.5 582.5Q90 634 128.5 672Q167 710 219 732.5Q271 755 330 755Q389 755 441 732.5Q493 710 531.5 672Q570 634 592.5 582.5Q615 531 615 473Q615 415 592.5 363.5Q570 312 531.5 274Q493 236 441 213.5Q389 191 330 191Q271 191 219 213.5Q167 236 128.5 274Q90 312 67.5 363.5Q45 415 45 473ZM608 473Q608 531 586 581Q564 631 526.5 668.5Q489 706 438.5 727.5Q388 749 330 749Q272 749 221.5 727.5Q171 706 133.5 668.5Q96 631 74 581Q52 531 52 473Q52 415 74 365Q96 315 133.5 277.5Q171 240 221.5 218.5Q272 197 330 197Q388 197 438.5 218.5Q489 240 526.5 277.5Q564 315 586 365Q608 415 608 473ZM459 561Q459 530 434.5 508.5Q410 487 381 479L431 408Q463 362 484 344.5Q505 327 524 322L532 320V317Q494 310 470 310.5Q446 311 430 319Q414 327 402.5 341.5Q391 356 377 378L319 471H280V370Q280 353 286 340Q292 327 318 322L330 320V317H168V320L180 322Q206 327 214 340Q222 353 222 370V598Q222 615 214 629.5Q206 644 180 646L168 647V651H330Q390 651 424.5 627Q459 603 459 561ZM280 647 280 475H292Q348 475 371.5 498Q395 521 395 561Q395 606 369 626.5Q343 647 300 647Z" glyph-name="registered" horiz-adv-x="660" unicode="" /><glyph d="M67 584 67 624H332V584Z" glyph-name="macron" horiz-adv-x="400" unicode="" /><glyph d="M192 405Q159 405 130.5 417.5Q102 430 81 451Q60 472 48 500Q36 528 36 560Q36 592 48 620Q60 648 81 669Q102 690 130.5 702.5Q159 715 192 715Q225 715 253.5 702.5Q282 690 303 669Q324 648 336 620Q348 592 348 560Q348 528 336 500Q324 472 303 451Q282 430 253.5 417.5Q225 405 192 405ZM192 693Q165 693 141.5 682.5Q118 672 101 654Q84 636 74.5 612Q65 588 65 560Q65 532 74.5 508Q84 484 101 466Q118 448 141.5 437.5Q165 427 192 427Q219 427 242.5 437.5Q266 448 283.5 466Q301 484 310.5 508Q320 532 320 560Q320 588 310.5 612Q301 636 283.5 654Q266 672 242.5 682.5Q219 693 192 693Z" glyph-name="degree" horiz-adv-x="384" unicode="" /><glyph d="M286 149 278 149V353H72V361H278V566H286V361H490V353H286ZM490 0 72 0V8H490Z" glyph-name="plusminus" horiz-adv-x="561" unicode="" /><glyph d="M318 714Q318 671 285.5 631.5Q253 592 195 537L102 449H343L331 369H23V375L135 496Q183 548 207 600Q231 652 231 697Q231 744 205.5 774.5Q180 805 134 805Q106 805 80 788Q54 771 42 740Q47 742 53.5 742.5Q60 743 62 743Q81 743 92.5 732Q104 721 104 705Q104 688 94 677.5Q84 667 67 667Q50 667 39.5 680Q29 693 29 709Q29 732 39.5 755Q50 778 69 796.5Q88 815 114.5 826.5Q141 838 173 838Q208 838 235 828Q262 818 280.5 801Q299 784 308.5 761.5Q318 739 318 714Z" glyph-name="twosuperior" horiz-adv-x="365" unicode="" /><glyph d="M118 597 134 605Q176 626 199 658Q222 690 222 723Q222 766 195 787.5Q168 809 134 809Q109 809 86 797Q63 785 49 759Q59 761 64 761Q82 761 93 750.5Q104 740 104 725Q104 709 93.5 700Q83 691 68 691Q54 691 43.5 702.5Q33 714 33 730Q33 749 44 767.5Q55 786 74.5 801Q94 816 119.5 825.5Q145 835 174 835Q200 835 223 828Q246 821 263.5 808Q281 795 291.5 775.5Q302 756 302 731Q302 711 293.5 694.5Q285 678 271 665.5Q257 653 238.5 644.5Q220 636 200 631Q260 616 290 578.5Q320 541 320 499Q320 473 309 447.5Q298 422 276 402Q254 382 220.5 369.5Q187 357 142 357Q116 357 93 362Q70 367 52.5 376.5Q35 386 25 399.5Q15 413 15 429Q15 442 25 455.5Q35 469 54 469Q80 469 90 452.5Q100 436 106 416Q112 396 120.5 379.5Q129 363 154 363Q175 363 191 371.5Q207 380 218 393.5Q229 407 235 424Q241 441 241 458Q241 486 229.5 507Q218 528 200 543.5Q182 559 160 570.5Q138 582 117 591Z" glyph-name="threesuperior" horiz-adv-x="351" unicode="" /><glyph d="M365 700 209 541H205L250 700Z" glyph-name="acute" horiz-adv-x="400" unicode="" /><glyph d="M103 -166 103 423Q103 440 90.5 451.5Q78 463 56 468L31 474V477H210V137Q210 110 217.5 92Q225 74 237.5 63Q250 52 266.5 47.5Q283 43 300 43Q326 43 351.5 56Q377 69 395 89V423Q395 440 382 451.5Q369 463 348 468L322 474V477H502V52L577 31V28Q562 26 534.5 20Q507 14 478 7.5Q449 1 425.5 -5.5Q402 -12 394 -15H392L395 85Q388 74 375 57Q362 40 342 24Q322 8 295.5 -3.5Q269 -15 235 -15Q196 -15 162.5 4.5Q129 24 113 66V-166Z" glyph-name="mu" horiz-adv-x="607" unicode="" /><glyph d="M286 -111Q286 -146 263.5 -172Q241 -198 205 -198Q182 -198 164 -185.5Q146 -173 146 -153Q146 -139 155 -130.5Q164 -122 176 -122Q193 -122 201 -133.5Q209 -145 209 -158Q209 -167 206.5 -176Q204 -185 202 -190Q235 -192 256.5 -167Q278 -142 278 -105V283H239Q196 283 158 299Q120 315 92 343.5Q64 372 47.5 410Q31 448 31 491Q31 535 47.5 573Q64 611 92 639Q120 667 158 683.5Q196 700 239 700H286ZM457 -186 457 700H465V-186Z" glyph-name="paragraph" horiz-adv-x="565" unicode="" /><glyph d="M127 296Q95 296 72 319Q49 342 49 374Q49 407 72 430Q95 453 127 453Q160 453 183 430Q206 407 206 374Q206 342 183 319Q160 296 127 296Z" glyph-name="periodcentered" horiz-adv-x="255" unicode="" /><glyph d="M225 -6 191 -55Q205 -56 224.5 -62.5Q244 -69 261.5 -80.5Q279 -92 291.5 -109.5Q304 -127 304 -150Q304 -171 294.5 -188Q285 -205 270 -216Q255 -227 236 -233Q217 -239 197 -239Q166 -239 139 -228.5Q112 -218 96 -207L97 -204Q117 -209 136 -209Q164 -209 187 -196.5Q210 -184 210 -150Q210 -131 195 -112Q180 -93 153 -85L222 -6Z" glyph-name="cedilla" horiz-adv-x="400" unicode="" /><glyph d="M105 784Q87 777 64.5 774Q42 771 26 771H20V775Q43 776 67.5 782.5Q92 789 114.5 798.5Q137 808 155.5 818.5Q174 829 183 838H190V420Q190 395 216 387L263 373V369H32V373L79 387Q105 395 105 420Z" glyph-name="onesuperior" horiz-adv-x="268" unicode="" /><glyph d="M525 460Q525 407 506 361Q487 315 454 280.5Q421 246 377 226Q333 206 284 206Q235 206 191 225.5Q147 245 114 279.5Q81 314 62 360.5Q43 407 43 460Q43 513 62 559Q81 605 114 639.5Q147 674 191 694Q235 714 284 714Q333 714 377 694Q421 674 454 639.5Q487 605 506 559Q525 513 525 460ZM404 460Q404 529 394 576.5Q384 624 367 654Q350 684 328.5 697Q307 710 284 710Q261 710 239 697Q217 684 200.5 654Q184 624 174 576.5Q164 529 164 460Q164 391 174 343Q184 295 200.5 265.5Q217 236 239 223Q261 210 284 210Q307 210 328.5 223Q350 236 367 266Q384 296 394 343.5Q404 391 404 460Z" glyph-name="ordmasculine" horiz-adv-x="568" unicode="" /><glyph d="M241 278 53 7L51 11L129 278L51 545L53 549ZM418 278 230 7L228 11L306 278L228 545L230 549Z" glyph-name="guillemotright" horiz-adv-x="464" unicode="" /><glyph d="M150 660Q132 653 109.5 650Q87 647 71 647H65V651Q88 652 112.5 658.5Q137 665 159.5 674.5Q182 684 200.5 694.5Q219 705 228 714H235V296Q235 271 261 263L308 249V245H77V249L124 263Q150 271 150 296ZM758 700 774 700L224 0H208ZM769 102 578 102L577 109L760 469H836L605 152H769V260L843 273V153H919V102H843V51Q843 26 869 18L916 4V0H695V4L742 18Q768 26 768 51Z" glyph-name="onequarter" horiz-adv-x="979" unicode="" /><glyph d="M131 660Q113 653 90.5 650Q68 647 52 647H46V651Q69 652 93.5 658.5Q118 665 140.5 674.5Q163 684 181.5 694.5Q200 705 209 714H216V296Q216 271 242 263L289 249V245H58V249L105 263Q131 271 131 296ZM739 700 755 700L205 0H189ZM910 345Q910 302 877.5 262.5Q845 223 787 168L694 80H935L923 0H615V6L727 127Q775 179 799 231Q823 283 823 328Q823 375 797.5 405.5Q772 436 726 436Q698 436 672 419Q646 402 634 371Q639 373 645.5 373.5Q652 374 654 374Q673 374 684.5 363Q696 352 696 336Q696 319 686 308.5Q676 298 659 298Q642 298 631.5 311Q621 324 621 340Q621 363 631.5 386Q642 409 661 427.5Q680 446 706.5 457.5Q733 469 765 469Q800 469 827 459Q854 449 872.5 432Q891 415 900.5 392.5Q910 370 910 345Z" glyph-name="onehalf" horiz-adv-x="979" unicode="" /><glyph d="M165 473 181 481Q223 502 246 534Q269 566 269 599Q269 642 242 663.5Q215 685 181 685Q156 685 133 673Q110 661 96 635Q106 637 111 637Q129 637 140 626.5Q151 616 151 601Q151 585 140.5 576Q130 567 115 567Q101 567 90.5 578.5Q80 590 80 606Q80 625 91 643.5Q102 662 121.5 677Q141 692 166.5 701.5Q192 711 221 711Q247 711 270 704Q293 697 310.5 684Q328 671 338.5 651.5Q349 632 349 607Q349 587 340.5 570.5Q332 554 318 541.5Q304 529 285.5 520.5Q267 512 247 507Q307 492 337 454.5Q367 417 367 375Q367 349 356 323.5Q345 298 323 278Q301 258 267.5 245.5Q234 233 189 233Q163 233 140 238Q117 243 99.5 252.5Q82 262 72 275.5Q62 289 62 305Q62 318 72 331.5Q82 345 101 345Q127 345 137 328.5Q147 312 153 292Q159 272 167.5 255.5Q176 239 201 239Q222 239 238 247.5Q254 256 265 269.5Q276 283 282 300Q288 317 288 334Q288 362 276.5 383Q265 404 247 419.5Q229 435 207 446.5Q185 458 164 467ZM761 700 777 700L227 0H211ZM772 102 581 102L580 109L763 469H839L608 152H772V260L846 273V153H922V102H846V51Q846 26 872 18L919 4V0H698V4L745 18Q771 26 771 51Z" glyph-name="threequarters" horiz-adv-x="979" unicode="" /><glyph d="M218 477Q247 477 267.5 456.5Q288 436 288 407Q288 378 267.5 357Q247 336 218 336Q189 336 168 357Q147 378 147 407Q147 436 168 456.5Q189 477 218 477ZM214 -253Q131 -253 81 -209Q31 -165 31 -90Q31 -55 44.5 -27Q58 1 78.5 25Q99 49 123.5 70.5Q148 92 169 114.5Q190 137 204.5 161.5Q219 186 220 216L222 261H227V218Q227 169 214 130.5Q201 92 185.5 57.5Q170 23 157 -11Q144 -45 144 -85Q144 -118 154 -141.5Q164 -165 181 -181Q198 -197 220 -204.5Q242 -212 266 -212Q298 -212 322.5 -201Q347 -190 363.5 -172Q380 -154 389 -131.5Q398 -109 398 -86Q398 -80 397.5 -71.5Q397 -63 396 -58H395Q388 -73 371.5 -86.5Q355 -100 332 -100Q307 -100 292.5 -83Q278 -66 278 -46Q278 -26 294.5 -9.5Q311 7 333 7Q352 7 365.5 -1Q379 -9 387.5 -22.5Q396 -36 400 -53.5Q404 -71 404 -89Q404 -116 392 -145Q380 -174 356 -198Q332 -222 296.5 -237.5Q261 -253 214 -253Z" glyph-name="questiondown" horiz-adv-x="433" unicode="" /><glyph d="M278 923 323 764H319L163 923ZM244 0 -23 0V3Q2 7 22.5 18Q43 29 62 52Q81 75 100 111Q119 147 140 200L287 576L236 700H373L612 136Q630 93 646.5 68.5Q663 44 677.5 31.5Q692 19 705 14Q718 9 729 6L739 3V0H391V3L415 5Q471 10 486 34.5Q501 59 474 124L403 295H185L149 201Q136 167 127.5 133.5Q119 100 123.5 73.5Q128 47 149 29Q170 11 215 6L244 3ZM400 302 291 567L188 302Z" glyph-name="Agrave" horiz-adv-x="714" unicode="" /><glyph d="M493 923 337 764H333L378 923ZM244 0 -23 0V3Q2 7 22.5 18Q43 29 62 52Q81 75 100 111Q119 147 140 200L287 576L236 700H373L612 136Q630 93 646.5 68.5Q663 44 677.5 31.5Q692 19 705 14Q718 9 729 6L739 3V0H391V3L415 5Q471 10 486 34.5Q501 59 474 124L403 295H185L149 201Q136 167 127.5 133.5Q119 100 123.5 73.5Q128 47 149 29Q170 11 215 6L244 3ZM400 302 291 567L188 302Z" glyph-name="Aacute" horiz-adv-x="714" unicode="" /><glyph d="M463 764 456 764L328 842L200 764H193L325 923H331ZM244 0 -23 0V3Q2 7 22.5 18Q43 29 62 52Q81 75 100 111Q119 147 140 200L287 576L236 700H373L612 136Q630 93 646.5 68.5Q663 44 677.5 31.5Q692 19 705 14Q718 9 729 6L739 3V0H391V3L415 5Q471 10 486 34.5Q501 59 474 124L403 295H185L149 201Q136 167 127.5 133.5Q119 100 123.5 73.5Q128 47 149 29Q170 11 215 6L244 3ZM400 302 291 567L188 302Z" glyph-name="Acircumflex" horiz-adv-x="714" unicode="" /><glyph d="M185 794Q186 834 207.5 862.5Q229 891 271 891Q289 891 305.5 885.5Q322 880 338.5 873Q355 866 372 860.5Q389 855 407 855Q436 855 449 870.5Q462 886 465 900H471Q470 860 448.5 831.5Q427 803 385 803Q367 803 350.5 808.5Q334 814 317.5 821Q301 828 284 833.5Q267 839 249 839Q220 839 207 823.5Q194 808 191 794ZM244 0 -23 0V3Q2 7 22.5 18Q43 29 62 52Q81 75 100 111Q119 147 140 200L287 576L236 700H373L612 136Q630 93 646.5 68.5Q663 44 677.5 31.5Q692 19 705 14Q718 9 729 6L739 3V0H391V3L415 5Q471 10 486 34.5Q501 59 474 124L403 295H185L149 201Q136 167 127.5 133.5Q119 100 123.5 73.5Q128 47 149 29Q170 11 215 6L244 3ZM400 302 291 567L188 302Z" glyph-name="Atilde" horiz-adv-x="714" unicode="" /><glyph d="M238 796Q213 796 196 813Q179 830 179 854Q179 878 196 895Q213 912 238 912Q262 912 279 895Q296 878 296 854Q296 830 279 813Q262 796 238 796ZM418 796Q393 796 376 813Q359 830 359 854Q359 878 376 895Q393 912 418 912Q442 912 459 895Q476 878 476 854Q476 830 459 813Q442 796 418 796ZM244 0 -23 0V3Q2 7 22.5 18Q43 29 62 52Q81 75 100 111Q119 147 140 200L287 576L236 700H373L612 136Q630 93 646.5 68.5Q663 44 677.5 31.5Q692 19 705 14Q718 9 729 6L739 3V0H391V3L415 5Q471 10 486 34.5Q501 59 474 124L403 295H185L149 201Q136 167 127.5 133.5Q119 100 123.5 73.5Q128 47 149 29Q170 11 215 6L244 3ZM400 302 291 567L188 302Z" glyph-name="Adieresis" horiz-adv-x="714" unicode="" /><glyph d="M228 839Q228 881 257 909.5Q286 938 328 938Q370 938 399 909.5Q428 881 428 839Q428 797 399 768.5Q370 740 328 740Q286 740 257 768.5Q228 797 228 839ZM414 839Q414 876 388.5 900.5Q363 925 328 925Q293 925 267.5 900.5Q242 876 242 839Q242 801 267.5 777Q293 753 328 753Q363 753 388.5 777Q414 801 414 839ZM244 0 -23 0V3Q2 7 22.5 18Q43 29 62 52Q81 75 100 111Q119 147 140 200L287 576L236 700H373L612 136Q630 93 646.5 68.5Q663 44 677.5 31.5Q692 19 705 14Q718 9 729 6L739 3V0H391V3L415 5Q471 10 486 34.5Q501 59 474 124L403 295H185L149 201Q136 167 127.5 133.5Q119 100 123.5 73.5Q128 47 149 29Q170 11 215 6L244 3ZM400 302 291 567L188 302Z" glyph-name="Aring" horiz-adv-x="714" unicode="" /><glyph d="M238 0 -32 0V3L-21 7Q7 17 28 28Q49 39 71.5 64.5Q94 90 122.5 136.5Q151 183 193 263L410 673Q400 686 370 692L345 697V700H925V502H921L873 587Q855 619 833.5 640Q812 661 784 673Q756 685 720 689.5Q684 694 636 694H540V364L592 365Q623 366 646.5 369Q670 372 689 383Q708 394 723 417Q738 440 751 481L762 515H765V208H762L751 242Q738 283 723 306Q708 329 689 340Q670 351 646.5 354Q623 357 592 358L540 359V106Q540 61 560.5 33.5Q581 6 637 6H698Q737 6 767 11.5Q797 17 820.5 29.5Q844 42 864 62.5Q884 83 904 112L969 208H973L953 0H345V3L371 7Q399 12 408.5 25Q418 38 418 57V281H212L178 215Q145 151 137 112Q129 73 137.5 51Q146 29 166.5 20.5Q187 12 210 8L238 3ZM216 288 418 288V643Q418 659 413 669Z" glyph-name="AE" horiz-adv-x="1006" unicode="" /><glyph d="M489 -150Q489 -171 479.5 -188Q470 -205 455 -216Q440 -227 421 -233Q402 -239 382 -239Q351 -239 324 -228.5Q297 -218 281 -207L282 -204Q302 -209 321 -209Q349 -209 372 -196.5Q395 -184 395 -150Q395 -131 380 -112Q365 -93 338 -85L401 -13Q321 -7 254.5 21Q188 49 140.5 96Q93 143 66.5 207Q40 271 40 349Q40 432 69.5 499.5Q99 567 153 615Q207 663 282.5 689Q358 715 449 715Q489 715 529.5 712Q570 709 606 705Q642 701 670.5 697Q699 693 714 691V502H710L691 539Q676 569 654.5 599Q633 629 603.5 653.5Q574 678 535 693.5Q496 709 446 709Q385 709 335.5 681.5Q286 654 251.5 606Q217 558 198.5 492Q180 426 180 349Q180 272 202 206.5Q224 141 262.5 93.5Q301 46 353 19Q405 -8 465 -8Q513 -8 549.5 12Q586 32 614 63Q642 94 661.5 130Q681 166 695 198L714 241H718L716 37Q691 27 659 17.5Q627 8 591.5 0.5Q556 -7 519 -11Q482 -15 447 -15Q436 -15 426 -14.5Q416 -14 405 -13L376 -55Q390 -56 409.5 -62.5Q429 -69 446.5 -80.5Q464 -92 476.5 -109.5Q489 -127 489 -150Z" glyph-name="Ccedilla" horiz-adv-x="767" unicode="" /><glyph d="M350 923 395 764H391L235 923ZM411 6Q450 6 480 11.5Q510 17 533.5 29.5Q557 42 577 62.5Q597 83 617 112L682 208H686L666 0H18V3L44 7Q71 11 88 20.5Q105 30 114.5 43.5Q124 57 127.5 73Q131 89 131 106V594Q131 611 127.5 627Q124 643 114.5 656.5Q105 670 88 679.5Q71 689 44 693L18 697V700H638V502H634L586 587Q568 619 545 640Q522 661 492 673Q462 685 424.5 689.5Q387 694 339 694H253V364L305 365Q336 366 359.5 369Q383 372 402 383Q421 394 436 417Q451 440 464 481L475 515H478V208H475L464 242Q451 283 436 306Q421 329 402 340Q383 351 359.5 354Q336 357 305 358L253 359V106Q253 61 273.5 33.5Q294 6 350 6Z" glyph-name="Egrave" horiz-adv-x="719" unicode="" /><glyph d="M493 923 337 764H333L378 923ZM411 6Q450 6 480 11.5Q510 17 533.5 29.5Q557 42 577 62.5Q597 83 617 112L682 208H686L666 0H18V3L44 7Q71 11 88 20.5Q105 30 114.5 43.5Q124 57 127.5 73Q131 89 131 106V594Q131 611 127.5 627Q124 643 114.5 656.5Q105 670 88 679.5Q71 689 44 693L18 697V700H638V502H634L586 587Q568 619 545 640Q522 661 492 673Q462 685 424.5 689.5Q387 694 339 694H253V364L305 365Q336 366 359.5 369Q383 372 402 383Q421 394 436 417Q451 440 464 481L475 515H478V208H475L464 242Q451 283 436 306Q421 329 402 340Q383 351 359.5 354Q336 357 305 358L253 359V106Q253 61 273.5 33.5Q294 6 350 6Z" glyph-name="Eacute" horiz-adv-x="719" unicode="" /><glyph d="M492 764 485 764L357 842L229 764H222L354 923H360ZM411 6Q450 6 480 11.5Q510 17 533.5 29.5Q557 42 577 62.5Q597 83 617 112L682 208H686L666 0H18V3L44 7Q71 11 88 20.5Q105 30 114.5 43.5Q124 57 127.5 73Q131 89 131 106V594Q131 611 127.5 627Q124 643 114.5 656.5Q105 670 88 679.5Q71 689 44 693L18 697V700H638V502H634L586 587Q568 619 545 640Q522 661 492 673Q462 685 424.5 689.5Q387 694 339 694H253V364L305 365Q336 366 359.5 369Q383 372 402 383Q421 394 436 417Q451 440 464 481L475 515H478V208H475L464 242Q451 283 436 306Q421 329 402 340Q383 351 359.5 354Q336 357 305 358L253 359V106Q253 61 273.5 33.5Q294 6 350 6Z" glyph-name="Ecircumflex" horiz-adv-x="719" unicode="" /><glyph d="M267 796Q242 796 225 813Q208 830 208 854Q208 878 225 895Q242 912 267 912Q291 912 308 895Q325 878 325 854Q325 830 308 813Q291 796 267 796ZM447 796Q422 796 405 813Q388 830 388 854Q388 878 405 895Q422 912 447 912Q471 912 488 895Q505 878 505 854Q505 830 488 813Q471 796 447 796ZM411 6Q450 6 480 11.5Q510 17 533.5 29.5Q557 42 577 62.5Q597 83 617 112L682 208H686L666 0H18V3L44 7Q71 11 88 20.5Q105 30 114.5 43.5Q124 57 127.5 73Q131 89 131 106V594Q131 611 127.5 627Q124 643 114.5 656.5Q105 670 88 679.5Q71 689 44 693L18 697V700H638V502H634L586 587Q568 619 545 640Q522 661 492 673Q462 685 424.5 689.5Q387 694 339 694H253V364L305 365Q336 366 359.5 369Q383 372 402 383Q421 394 436 417Q451 440 464 481L475 515H478V208H475L464 242Q451 283 436 306Q421 329 402 340Q383 351 359.5 354Q336 357 305 358L253 359V106Q253 61 273.5 33.5Q294 6 350 6Z" glyph-name="Edieresis" horiz-adv-x="719" unicode="" /><glyph d="M142 923 187 764H183L27 923ZM44 7Q71 11 88 20.5Q105 30 114.5 43.5Q124 57 127.5 73Q131 89 131 106V594Q131 611 127.5 627Q124 643 114.5 656.5Q105 670 88 679.5Q71 689 44 693L18 697V700H366V697L340 693Q313 689 296 679.5Q279 670 269.5 656.5Q260 643 256.5 627Q253 611 253 594V106Q253 89 256.5 73Q260 57 269.5 43.5Q279 30 296 20.5Q313 11 340 7L366 3V0H18V3Z" glyph-name="Igrave" horiz-adv-x="384" unicode="" /><glyph d="M357 923 201 764H197L242 923ZM44 7Q71 11 88 20.5Q105 30 114.5 43.5Q124 57 127.5 73Q131 89 131 106V594Q131 611 127.5 627Q124 643 114.5 656.5Q105 670 88 679.5Q71 689 44 693L18 697V700H366V697L340 693Q313 689 296 679.5Q279 670 269.5 656.5Q260 643 256.5 627Q253 611 253 594V106Q253 89 256.5 73Q260 57 269.5 43.5Q279 30 296 20.5Q313 11 340 7L366 3V0H18V3Z" glyph-name="Iacute" horiz-adv-x="384" unicode="" /><glyph d="M327 764 320 764L192 842L64 764H57L189 923H195ZM44 7Q71 11 88 20.5Q105 30 114.5 43.5Q124 57 127.5 73Q131 89 131 106V594Q131 611 127.5 627Q124 643 114.5 656.5Q105 670 88 679.5Q71 689 44 693L18 697V700H366V697L340 693Q313 689 296 679.5Q279 670 269.5 656.5Q260 643 256.5 627Q253 611 253 594V106Q253 89 256.5 73Q260 57 269.5 43.5Q279 30 296 20.5Q313 11 340 7L366 3V0H18V3Z" glyph-name="Icircumflex" horiz-adv-x="384" unicode="" /><glyph d="M102 796Q77 796 60 813Q43 830 43 854Q43 878 60 895Q77 912 102 912Q126 912 143 895Q160 878 160 854Q160 830 143 813Q126 796 102 796ZM282 796Q257 796 240 813Q223 830 223 854Q223 878 240 895Q257 912 282 912Q306 912 323 895Q340 878 340 854Q340 830 323 813Q306 796 282 796ZM44 7Q71 11 88 20.5Q105 30 114.5 43.5Q124 57 127.5 73Q131 89 131 106V594Q131 611 127.5 627Q124 643 114.5 656.5Q105 670 88 679.5Q71 689 44 693L18 697V700H366V697L340 693Q313 689 296 679.5Q279 670 269.5 656.5Q260 643 256.5 627Q253 611 253 594V106Q253 89 256.5 73Q260 57 269.5 43.5Q279 30 296 20.5Q313 11 340 7L366 3V0H18V3Z" glyph-name="Idieresis" horiz-adv-x="384" unicode="" /><glyph d="M799 353Q799 284 772.5 220.5Q746 157 694.5 108Q643 59 565.5 29.5Q488 0 386 0H19V3L45 7Q72 11 89 20.5Q106 30 115.5 43.5Q125 57 128.5 73Q132 89 132 106V359H29V366H132V594Q132 611 128.5 627Q125 643 115.5 656.5Q106 670 89 679.5Q72 689 45 693L19 697V700H386Q488 700 565.5 671.5Q643 643 694.5 595Q746 547 772.5 484.5Q799 422 799 353ZM364 6Q438 6 493.5 30Q549 54 586.5 98.5Q624 143 643 206.5Q662 270 662 350Q662 430 641.5 493.5Q621 557 581.5 601.5Q542 646 485 670Q428 694 354 694H254V366H454V359H254V109Q254 88 257.5 69Q261 50 270.5 36Q280 22 297 14Q314 6 341 6Z" glyph-name="Eth" horiz-adv-x="839" unicode="" /><glyph d="M273 794Q274 834 295.5 862.5Q317 891 359 891Q377 891 393.5 885.5Q410 880 426.5 873Q443 866 460 860.5Q477 855 495 855Q524 855 537 870.5Q550 886 553 900H559Q558 860 536.5 831.5Q515 803 473 803Q455 803 438.5 808.5Q422 814 405.5 821Q389 828 372 833.5Q355 839 337 839Q308 839 295 823.5Q282 808 279 794ZM694 -15 162 585L166 213Q167 150 176.5 112Q186 74 202.5 53Q219 32 240.5 22.5Q262 13 286 7L302 3V0H19V3L35 7Q59 13 80 22.5Q101 32 117 53Q133 74 143.5 112Q154 150 155 213V589L143 602Q103 646 70.5 668.5Q38 691 -6 697V700H250Q260 683 272.5 665.5Q285 648 302 626.5Q319 605 342.5 578.5Q366 552 397 516L693 178L690 487Q689 550 679 588Q669 626 652.5 647Q636 668 615 677.5Q594 687 570 693L554 697V700H837V697L821 693Q797 687 775.5 677.5Q754 668 737.5 647Q721 626 711 588Q701 550 701 487V-15Z" glyph-name="Ntilde" horiz-adv-x="839" unicode="" /><glyph d="M350 923 395 764H391L235 923ZM401 715Q468 715 532.5 689.5Q597 664 648 616.5Q699 569 730 501.5Q761 434 761 350Q761 266 730 198.5Q699 131 648 83.5Q597 36 532.5 10.5Q468 -15 401 -15Q334 -15 269.5 10.5Q205 36 154 83.5Q103 131 71.5 198.5Q40 266 40 350Q40 434 71.5 501.5Q103 569 154 616.5Q205 664 269.5 689.5Q334 715 401 715ZM401 710Q342 710 300 684.5Q258 659 231.5 612Q205 565 192.5 498.5Q180 432 180 350Q180 268 192.5 201.5Q205 135 231.5 88Q258 41 300 15.5Q342 -10 401 -10Q460 -10 501.5 15.5Q543 41 569.5 88Q596 135 608.5 201.5Q621 268 621 350Q621 432 608.5 498.5Q596 565 569.5 612Q543 659 501.5 684.5Q460 710 401 710Z" glyph-name="Ograve" horiz-adv-x="801" unicode="" /><glyph d="M554 923 398 764H394L439 923ZM401 715Q468 715 532.5 689.5Q597 664 648 616.5Q699 569 730 501.5Q761 434 761 350Q761 266 730 198.5Q699 131 648 83.5Q597 36 532.5 10.5Q468 -15 401 -15Q334 -15 269.5 10.5Q205 36 154 83.5Q103 131 71.5 198.5Q40 266 40 350Q40 434 71.5 501.5Q103 569 154 616.5Q205 664 269.5 689.5Q334 715 401 715ZM401 710Q342 710 300 684.5Q258 659 231.5 612Q205 565 192.5 498.5Q180 432 180 350Q180 268 192.5 201.5Q205 135 231.5 88Q258 41 300 15.5Q342 -10 401 -10Q460 -10 501.5 15.5Q543 41 569.5 88Q596 135 608.5 201.5Q621 268 621 350Q621 432 608.5 498.5Q596 565 569.5 612Q543 659 501.5 684.5Q460 710 401 710Z" glyph-name="Oacute" horiz-adv-x="801" unicode="" /><glyph d="M535 764 528 764L400 842L272 764H265L397 923H403ZM401 715Q468 715 532.5 689.5Q597 664 648 616.5Q699 569 730 501.5Q761 434 761 350Q761 266 730 198.5Q699 131 648 83.5Q597 36 532.5 10.5Q468 -15 401 -15Q334 -15 269.5 10.5Q205 36 154 83.5Q103 131 71.5 198.5Q40 266 40 350Q40 434 71.5 501.5Q103 569 154 616.5Q205 664 269.5 689.5Q334 715 401 715ZM401 710Q342 710 300 684.5Q258 659 231.5 612Q205 565 192.5 498.5Q180 432 180 350Q180 268 192.5 201.5Q205 135 231.5 88Q258 41 300 15.5Q342 -10 401 -10Q460 -10 501.5 15.5Q543 41 569.5 88Q596 135 608.5 201.5Q621 268 621 350Q621 432 608.5 498.5Q596 565 569.5 612Q543 659 501.5 684.5Q460 710 401 710Z" glyph-name="Ocircumflex" horiz-adv-x="801" unicode="" /><glyph d="M257 794Q258 834 279.5 862.5Q301 891 343 891Q361 891 377.5 885.5Q394 880 410.5 873Q427 866 444 860.5Q461 855 479 855Q508 855 521 870.5Q534 886 537 900H543Q542 860 520.5 831.5Q499 803 457 803Q439 803 422.5 808.5Q406 814 389.5 821Q373 828 356 833.5Q339 839 321 839Q292 839 279 823.5Q266 808 263 794ZM401 715Q468 715 532.5 689.5Q597 664 648 616.5Q699 569 730 501.5Q761 434 761 350Q761 266 730 198.5Q699 131 648 83.5Q597 36 532.5 10.5Q468 -15 401 -15Q334 -15 269.5 10.5Q205 36 154 83.5Q103 131 71.5 198.5Q40 266 40 350Q40 434 71.5 501.5Q103 569 154 616.5Q205 664 269.5 689.5Q334 715 401 715ZM401 710Q342 710 300 684.5Q258 659 231.5 612Q205 565 192.5 498.5Q180 432 180 350Q180 268 192.5 201.5Q205 135 231.5 88Q258 41 300 15.5Q342 -10 401 -10Q460 -10 501.5 15.5Q543 41 569.5 88Q596 135 608.5 201.5Q621 268 621 350Q621 432 608.5 498.5Q596 565 569.5 612Q543 659 501.5 684.5Q460 710 401 710Z" glyph-name="Otilde" horiz-adv-x="801" unicode="" /><glyph d="M310 796Q285 796 268 813Q251 830 251 854Q251 878 268 895Q285 912 310 912Q334 912 351 895Q368 878 368 854Q368 830 351 813Q334 796 310 796ZM490 796Q465 796 448 813Q431 830 431 854Q431 878 448 895Q465 912 490 912Q514 912 531 895Q548 878 548 854Q548 830 531 813Q514 796 490 796ZM401 715Q468 715 532.5 689.5Q597 664 648 616.5Q699 569 730 501.5Q761 434 761 350Q761 266 730 198.5Q699 131 648 83.5Q597 36 532.5 10.5Q468 -15 401 -15Q334 -15 269.5 10.5Q205 36 154 83.5Q103 131 71.5 198.5Q40 266 40 350Q40 434 71.5 501.5Q103 569 154 616.5Q205 664 269.5 689.5Q334 715 401 715ZM401 710Q342 710 300 684.5Q258 659 231.5 612Q205 565 192.5 498.5Q180 432 180 350Q180 268 192.5 201.5Q205 135 231.5 88Q258 41 300 15.5Q342 -10 401 -10Q460 -10 501.5 15.5Q543 41 569.5 88Q596 135 608.5 201.5Q621 268 621 350Q621 432 608.5 498.5Q596 565 569.5 612Q543 659 501.5 684.5Q460 710 401 710Z" glyph-name="Odieresis" horiz-adv-x="801" unicode="" /><glyph d="M95 177 275 357L95 537L101 543L281 363L461 543L467 537L287 357L467 177L461 171L281 351L101 171Z" glyph-name="multiply" horiz-adv-x="561" unicode="" /><glyph d="M401 -15Q338 -15 278.5 7Q219 29 169 70L59 -57H51L164 74Q109 122 74.5 192Q40 262 40 350Q40 434 71.5 501.5Q103 569 154 616.5Q205 664 269.5 689.5Q334 715 401 715Q465 715 526.5 692Q588 669 639 624L742 744H750L643 620Q696 572 728.5 504Q761 436 761 350Q761 266 730 198.5Q699 131 648 83.5Q597 36 532.5 10.5Q468 -15 401 -15ZM180 350Q180 284 187.5 229Q195 174 212 130L590 568Q565 636 519 673Q473 710 401 710Q342 710 300 684.5Q258 659 231.5 612Q205 565 192.5 498.5Q180 432 180 350ZM621 350Q621 413 614 465.5Q607 518 592 561L215 123Q241 60 286.5 25Q332 -10 401 -10Q460 -10 501.5 15.5Q543 41 569.5 88Q596 135 608.5 201.5Q621 268 621 350Z" glyph-name="Oslash" horiz-adv-x="802" unicode="" /><glyph d="M368 923 413 764H409L253 923ZM243 206Q243 132 287 89Q331 46 410 46Q446 46 477 58.5Q508 71 531 90Q554 109 567 131.5Q580 154 580 174V594Q580 611 576.5 627Q573 643 563.5 656.5Q554 670 537 679.5Q520 689 493 693L467 697V700H815V697L789 693Q762 689 745 679.5Q728 670 718.5 656.5Q709 643 705.5 627Q702 611 702 594V106Q702 89 705.5 73Q709 57 718.5 43.5Q728 30 745 20.5Q762 11 789 7L815 3V0H580V142Q570 121 550.5 94Q531 67 502.5 43Q474 19 436 2Q398 -15 350 -15Q290 -15 247 2Q204 19 176 47.5Q148 76 134.5 115Q121 154 121 197V594Q121 611 117.5 627Q114 643 104.5 656.5Q95 670 78 679.5Q61 689 34 693L8 697V700H356V697L330 693Q303 689 286 679.5Q269 670 259.5 656.5Q250 643 246.5 627Q243 611 243 594Z" glyph-name="Ugrave" horiz-adv-x="833" unicode="" /><glyph d="M583 923 427 764H423L468 923ZM243 206Q243 132 287 89Q331 46 410 46Q446 46 477 58.5Q508 71 531 90Q554 109 567 131.5Q580 154 580 174V594Q580 611 576.5 627Q573 643 563.5 656.5Q554 670 537 679.5Q520 689 493 693L467 697V700H815V697L789 693Q762 689 745 679.5Q728 670 718.5 656.5Q709 643 705.5 627Q702 611 702 594V106Q702 89 705.5 73Q709 57 718.5 43.5Q728 30 745 20.5Q762 11 789 7L815 3V0H580V142Q570 121 550.5 94Q531 67 502.5 43Q474 19 436 2Q398 -15 350 -15Q290 -15 247 2Q204 19 176 47.5Q148 76 134.5 115Q121 154 121 197V594Q121 611 117.5 627Q114 643 104.5 656.5Q95 670 78 679.5Q61 689 34 693L8 697V700H356V697L330 693Q303 689 286 679.5Q269 670 259.5 656.5Q250 643 246.5 627Q243 611 243 594Z" glyph-name="Uacute" horiz-adv-x="833" unicode="" /><glyph d="M553 764 546 764L418 842L290 764H283L415 923H421ZM243 206Q243 132 287 89Q331 46 410 46Q446 46 477 58.5Q508 71 531 90Q554 109 567 131.5Q580 154 580 174V594Q580 611 576.5 627Q573 643 563.5 656.5Q554 670 537 679.5Q520 689 493 693L467 697V700H815V697L789 693Q762 689 745 679.5Q728 670 718.5 656.5Q709 643 705.5 627Q702 611 702 594V106Q702 89 705.5 73Q709 57 718.5 43.5Q728 30 745 20.5Q762 11 789 7L815 3V0H580V142Q570 121 550.5 94Q531 67 502.5 43Q474 19 436 2Q398 -15 350 -15Q290 -15 247 2Q204 19 176 47.5Q148 76 134.5 115Q121 154 121 197V594Q121 611 117.5 627Q114 643 104.5 656.5Q95 670 78 679.5Q61 689 34 693L8 697V700H356V697L330 693Q303 689 286 679.5Q269 670 259.5 656.5Q250 643 246.5 627Q243 611 243 594Z" glyph-name="Ucircumflex" horiz-adv-x="833" unicode="" /><glyph d="M328 796Q303 796 286 813Q269 830 269 854Q269 878 286 895Q303 912 328 912Q352 912 369 895Q386 878 386 854Q386 830 369 813Q352 796 328 796ZM508 796Q483 796 466 813Q449 830 449 854Q449 878 466 895Q483 912 508 912Q532 912 549 895Q566 878 566 854Q566 830 549 813Q532 796 508 796ZM243 206Q243 132 287 89Q331 46 410 46Q446 46 477 58.5Q508 71 531 90Q554 109 567 131.5Q580 154 580 174V594Q580 611 576.5 627Q573 643 563.5 656.5Q554 670 537 679.5Q520 689 493 693L467 697V700H815V697L789 693Q762 689 745 679.5Q728 670 718.5 656.5Q709 643 705.5 627Q702 611 702 594V106Q702 89 705.5 73Q709 57 718.5 43.5Q728 30 745 20.5Q762 11 789 7L815 3V0H580V142Q570 121 550.5 94Q531 67 502.5 43Q474 19 436 2Q398 -15 350 -15Q290 -15 247 2Q204 19 176 47.5Q148 76 134.5 115Q121 154 121 197V594Q121 611 117.5 627Q114 643 104.5 656.5Q95 670 78 679.5Q61 689 34 693L8 697V700H356V697L330 693Q303 689 286 679.5Q269 670 259.5 656.5Q250 643 246.5 627Q243 611 243 594Z" glyph-name="Udieresis" horiz-adv-x="833" unicode="" /><glyph d="M527 923 371 764H367L412 923ZM420 355 473 441Q519 515 536.5 561.5Q554 608 550 635.5Q546 663 523.5 675Q501 687 467 693L443 697V700H733V697L728 696Q693 689 665 669.5Q637 650 608 615.5Q579 581 545 530Q511 479 465 410L423 347V99Q423 68 440.5 41.5Q458 15 510 7L536 3V0H188V3L214 7Q240 11 256.5 20Q273 29 282.5 41.5Q292 54 296 68.5Q300 83 301 99V315L109 603Q82 644 60.5 663.5Q39 683 10 691L-10 697V700H351V697L313 691Q265 683 255 657Q245 631 272 589Z" glyph-name="Yacute" horiz-adv-x="714" unicode="" /><glyph d="M123 643Q123 662 113.5 675Q104 688 76 693L50 697V700H318V697L282 692Q254 688 244.5 675.5Q235 663 235 643V550H318Q364 550 407.5 538Q451 526 484.5 502Q518 478 538 442Q558 406 558 357Q558 317 539.5 281.5Q521 246 487.5 219Q454 192 406 176Q358 160 299 160H267V163Q344 165 392.5 215Q441 265 441 357Q441 451 387 499Q333 547 243 547H235V57Q235 37 244.5 24.5Q254 12 282 8L318 3V0H50V3L76 7Q104 12 113.5 25Q123 38 123 57Z" glyph-name="Thorn" horiz-adv-x="591" unicode="" /><glyph d="M270 349Q270 368 291 401Q312 434 336.5 473.5Q361 513 382 555.5Q403 598 403 636Q403 687 378.5 717.5Q354 748 311 748Q270 748 245 727Q220 706 206 674Q190 636 187.5 590Q185 544 185 506V0H24V3L38 7Q58 12 70.5 22.5Q83 33 83 51V441H32V444H83V463Q83 516 96 568Q109 620 137 661Q165 702 209 727.5Q253 753 316 753Q354 753 383.5 742.5Q413 732 433.5 714.5Q454 697 465 675.5Q476 654 476 631Q476 587 452.5 559Q429 531 401 510.5Q373 490 349.5 473Q326 456 326 435Q326 415 340.5 393.5Q355 372 377 349.5Q399 327 424.5 303Q450 279 472 253.5Q494 228 508.5 201Q523 174 523 145Q523 113 511.5 84Q500 55 479 33Q458 11 429 -2Q400 -15 365 -15Q345 -15 326 -10.5Q307 -6 292 2.5Q277 11 268 22.5Q259 34 259 49Q259 69 272 80Q285 91 302 91Q322 91 330.5 76Q339 61 346 43.5Q353 26 362.5 11Q372 -4 393 -4Q409 -4 420.5 3Q432 10 439.5 21.5Q447 33 450.5 46.5Q454 60 454 72Q454 94 446 113.5Q438 133 424 151.5Q410 170 392 188Q374 206 354 226L324 256Q290 290 280 310.5Q270 331 270 349Z" glyph-name="germandbls" horiz-adv-x="550" unicode="" /><glyph d="M181 700 226 541H222L66 700ZM380 88Q380 59 397 48Q414 37 429 37Q442 37 452.5 41Q463 45 468 48L470 46Q464 37 455 26.5Q446 16 432.5 6.5Q419 -3 401 -9Q383 -15 361 -15Q320 -15 298 8Q276 31 274 63Q254 28 219.5 6.5Q185 -15 150 -15Q121 -15 99 -5.5Q77 4 62 19.5Q47 35 39 54.5Q31 74 31 95Q31 128 50.5 158.5Q70 189 114 206L275 269V341Q275 369 266 389Q257 409 242.5 422Q228 435 209.5 441Q191 447 171 447Q128 447 98 428Q68 409 54 380Q60 387 70 392Q80 397 91 397Q112 397 126 382.5Q140 368 140 351Q140 327 125 314.5Q110 302 92 302Q75 302 59.5 315.5Q44 329 44 353Q44 375 56.5 399.5Q69 424 92.5 445Q116 466 150 479.5Q184 493 227 493Q259 493 287.5 485.5Q316 478 337 461Q358 444 370 417Q382 390 382 351ZM135 134Q135 99 159 76Q183 53 220 53Q233 53 246.5 57Q260 61 273 68L275 263Q254 254 229.5 243Q205 232 184 216.5Q163 201 149 181Q135 161 135 134Z" glyph-name="agrave" horiz-adv-x="459" unicode="" /><glyph d="M396 700 240 541H236L281 700ZM380 88Q380 59 397 48Q414 37 429 37Q442 37 452.5 41Q463 45 468 48L470 46Q464 37 455 26.5Q446 16 432.5 6.5Q419 -3 401 -9Q383 -15 361 -15Q320 -15 298 8Q276 31 274 63Q254 28 219.5 6.5Q185 -15 150 -15Q121 -15 99 -5.5Q77 4 62 19.5Q47 35 39 54.5Q31 74 31 95Q31 128 50.5 158.5Q70 189 114 206L275 269V341Q275 369 266 389Q257 409 242.5 422Q228 435 209.5 441Q191 447 171 447Q128 447 98 428Q68 409 54 380Q60 387 70 392Q80 397 91 397Q112 397 126 382.5Q140 368 140 351Q140 327 125 314.5Q110 302 92 302Q75 302 59.5 315.5Q44 329 44 353Q44 375 56.5 399.5Q69 424 92.5 445Q116 466 150 479.5Q184 493 227 493Q259 493 287.5 485.5Q316 478 337 461Q358 444 370 417Q382 390 382 351ZM135 134Q135 99 159 76Q183 53 220 53Q233 53 246.5 57Q260 61 273 68L275 263Q254 254 229.5 243Q205 232 184 216.5Q163 201 149 181Q135 161 135 134Z" glyph-name="aacute" horiz-adv-x="459" unicode="" /><glyph d="M366 541 359 541L231 619L103 541H96L228 700H234ZM380 88Q380 59 397 48Q414 37 429 37Q442 37 452.5 41Q463 45 468 48L470 46Q464 37 455 26.5Q446 16 432.5 6.5Q419 -3 401 -9Q383 -15 361 -15Q320 -15 298 8Q276 31 274 63Q254 28 219.5 6.5Q185 -15 150 -15Q121 -15 99 -5.5Q77 4 62 19.5Q47 35 39 54.5Q31 74 31 95Q31 128 50.5 158.5Q70 189 114 206L275 269V341Q275 369 266 389Q257 409 242.5 422Q228 435 209.5 441Q191 447 171 447Q128 447 98 428Q68 409 54 380Q60 387 70 392Q80 397 91 397Q112 397 126 382.5Q140 368 140 351Q140 327 125 314.5Q110 302 92 302Q75 302 59.5 315.5Q44 329 44 353Q44 375 56.5 399.5Q69 424 92.5 445Q116 466 150 479.5Q184 493 227 493Q259 493 287.5 485.5Q316 478 337 461Q358 444 370 417Q382 390 382 351ZM135 134Q135 99 159 76Q183 53 220 53Q233 53 246.5 57Q260 61 273 68L275 263Q254 254 229.5 243Q205 232 184 216.5Q163 201 149 181Q135 161 135 134Z" glyph-name="acircumflex" horiz-adv-x="459" unicode="" /><glyph d="M88 571Q89 611 110.5 639.5Q132 668 174 668Q192 668 208.5 662.5Q225 657 241.5 650Q258 643 275 637.5Q292 632 310 632Q339 632 352 647.5Q365 663 368 677H374Q373 637 351.5 608.5Q330 580 288 580Q270 580 253.5 585.5Q237 591 220.5 598Q204 605 187 610.5Q170 616 152 616Q123 616 110 600.5Q97 585 94 571ZM380 88Q380 59 397 48Q414 37 429 37Q442 37 452.5 41Q463 45 468 48L470 46Q464 37 455 26.5Q446 16 432.5 6.5Q419 -3 401 -9Q383 -15 361 -15Q320 -15 298 8Q276 31 274 63Q254 28 219.5 6.5Q185 -15 150 -15Q121 -15 99 -5.5Q77 4 62 19.5Q47 35 39 54.5Q31 74 31 95Q31 128 50.5 158.5Q70 189 114 206L275 269V341Q275 369 266 389Q257 409 242.5 422Q228 435 209.5 441Q191 447 171 447Q128 447 98 428Q68 409 54 380Q60 387 70 392Q80 397 91 397Q112 397 126 382.5Q140 368 140 351Q140 327 125 314.5Q110 302 92 302Q75 302 59.5 315.5Q44 329 44 353Q44 375 56.5 399.5Q69 424 92.5 445Q116 466 150 479.5Q184 493 227 493Q259 493 287.5 485.5Q316 478 337 461Q358 444 370 417Q382 390 382 351ZM135 134Q135 99 159 76Q183 53 220 53Q233 53 246.5 57Q260 61 273 68L275 263Q254 254 229.5 243Q205 232 184 216.5Q163 201 149 181Q135 161 135 134Z" glyph-name="atilde" horiz-adv-x="459" unicode="" /><glyph d="M141 573Q116 573 99 590Q82 607 82 631Q82 655 99 672Q116 689 141 689Q165 689 182 672Q199 655 199 631Q199 607 182 590Q165 573 141 573ZM321 573Q296 573 279 590Q262 607 262 631Q262 655 279 672Q296 689 321 689Q345 689 362 672Q379 655 379 631Q379 607 362 590Q345 573 321 573ZM380 88Q380 59 397 48Q414 37 429 37Q442 37 452.5 41Q463 45 468 48L470 46Q464 37 455 26.5Q446 16 432.5 6.5Q419 -3 401 -9Q383 -15 361 -15Q320 -15 298 8Q276 31 274 63Q254 28 219.5 6.5Q185 -15 150 -15Q121 -15 99 -5.5Q77 4 62 19.5Q47 35 39 54.5Q31 74 31 95Q31 128 50.5 158.5Q70 189 114 206L275 269V341Q275 369 266 389Q257 409 242.5 422Q228 435 209.5 441Q191 447 171 447Q128 447 98 428Q68 409 54 380Q60 387 70 392Q80 397 91 397Q112 397 126 382.5Q140 368 140 351Q140 327 125 314.5Q110 302 92 302Q75 302 59.5 315.5Q44 329 44 353Q44 375 56.5 399.5Q69 424 92.5 445Q116 466 150 479.5Q184 493 227 493Q259 493 287.5 485.5Q316 478 337 461Q358 444 370 417Q382 390 382 351ZM135 134Q135 99 159 76Q183 53 220 53Q233 53 246.5 57Q260 61 273 68L275 263Q254 254 229.5 243Q205 232 184 216.5Q163 201 149 181Q135 161 135 134Z" glyph-name="adieresis" horiz-adv-x="459" unicode="" /><glyph d="M131 616Q131 658 160 686.5Q189 715 231 715Q273 715 302 686.5Q331 658 331 616Q331 574 302 545.5Q273 517 231 517Q189 517 160 545.5Q131 574 131 616ZM317 616Q317 653 291.5 677.5Q266 702 231 702Q196 702 170.5 677.5Q145 653 145 616Q145 578 170.5 554Q196 530 231 530Q266 530 291.5 554Q317 578 317 616ZM380 88Q380 59 397 48Q414 37 429 37Q442 37 452.5 41Q463 45 468 48L470 46Q464 37 455 26.5Q446 16 432.5 6.5Q419 -3 401 -9Q383 -15 361 -15Q320 -15 298 8Q276 31 274 63Q254 28 219.5 6.5Q185 -15 150 -15Q121 -15 99 -5.5Q77 4 62 19.5Q47 35 39 54.5Q31 74 31 95Q31 128 50.5 158.5Q70 189 114 206L275 269V341Q275 369 266 389Q257 409 242.5 422Q228 435 209.5 441Q191 447 171 447Q128 447 98 428Q68 409 54 380Q60 387 70 392Q80 397 91 397Q112 397 126 382.5Q140 368 140 351Q140 327 125 314.5Q110 302 92 302Q75 302 59.5 315.5Q44 329 44 353Q44 375 56.5 399.5Q69 424 92.5 445Q116 466 150 479.5Q184 493 227 493Q259 493 287.5 485.5Q316 478 337 461Q358 444 370 417Q382 390 382 351ZM135 134Q135 99 159 76Q183 53 220 53Q233 53 246.5 57Q260 61 273 68L275 263Q254 254 229.5 243Q205 232 184 216.5Q163 201 149 181Q135 161 135 134Z" glyph-name="aring" horiz-adv-x="459" unicode="" /><glyph d="M701 140Q699 124 686.5 98Q674 72 649.5 47Q625 22 588.5 3.5Q552 -15 502 -15Q437 -15 388.5 12.5Q340 40 311 88Q304 70 290.5 51.5Q277 33 257.5 18Q238 3 212.5 -6Q187 -15 155 -15Q126 -15 103 -5.5Q80 4 64 19.5Q48 35 39.5 54.5Q31 74 31 95Q31 128 50.5 158.5Q70 189 114 206L273 269V341Q273 369 264 389Q255 409 240.5 422Q226 435 207.5 441Q189 447 169 447Q126 447 96 428Q66 409 52 380Q58 387 68 392Q78 397 89 397Q110 397 124 382.5Q138 368 138 351Q138 327 123 314.5Q108 302 90 302Q73 302 57.5 315.5Q42 329 42 353Q42 375 54.5 399.5Q67 424 90.5 445Q114 466 148 479.5Q182 493 225 493Q267 493 301.5 480Q336 467 356 437Q385 463 421 478Q457 493 501 493Q547 493 583 478.5Q619 464 644 439Q669 414 682.5 380.5Q696 347 696 310V305H383Q382 297 382 289.5Q382 282 382 278Q382 228 394 187Q406 146 429 117Q452 88 485 72Q518 56 559 56Q585 56 607.5 63.5Q630 71 648 83Q666 95 678.5 110Q691 125 697 140ZM585 309 585 348Q585 374 581.5 399Q578 424 568.5 444.5Q559 465 542.5 477.5Q526 490 501 490Q474 490 453.5 476Q433 462 419 438Q405 414 396 381Q387 348 383 309ZM135 134Q135 99 153 78Q171 57 197 51Q223 45 253 55.5Q283 66 307 94Q273 156 273 238V263Q252 254 227.5 243Q203 232 182.5 216.5Q162 201 148.5 181Q135 161 135 134Z" glyph-name="ae" horiz-adv-x="730" unicode="" /><glyph d="M341 -150Q341 -171 331.5 -188Q322 -205 307 -216Q292 -227 273 -233Q254 -239 234 -239Q203 -239 176 -228.5Q149 -218 133 -207L134 -204Q154 -209 173 -209Q201 -209 224 -196.5Q247 -184 247 -150Q247 -131 232 -112Q217 -93 190 -85L251 -15Q201 -13 160.5 6.5Q120 26 91.5 59Q63 92 48 138Q33 184 33 238Q33 284 50.5 329.5Q68 375 100.5 411.5Q133 448 179 470.5Q225 493 281 493Q316 493 345 486Q374 479 394.5 467Q415 455 426 439Q437 423 437 406Q437 380 420 364.5Q403 349 382 349Q367 349 355.5 355.5Q344 362 338 372Q330 386 328 402.5Q326 419 323 436Q319 459 309 474.5Q299 490 275 490Q241 490 216 473Q191 456 174.5 427.5Q158 399 150 360.5Q142 322 142 278Q142 228 154 187Q166 146 189 117Q212 88 245 72Q278 56 319 56Q345 56 367.5 63.5Q390 71 408 83Q426 95 438.5 110Q451 125 457 140H461Q459 124 446.5 98Q434 72 409.5 47Q385 22 348.5 3.5Q312 -15 262 -15H256L228 -55Q242 -56 261.5 -62.5Q281 -69 298.5 -80.5Q316 -92 328.5 -109.5Q341 -127 341 -150Z" glyph-name="ccedilla" horiz-adv-x="474" unicode="" /><glyph d="M196 700 241 541H237L81 700ZM34 238Q34 288 50 334Q66 380 96 415Q126 450 168 471.5Q210 493 262 493Q308 493 344 478.5Q380 464 405 439Q430 414 443.5 380.5Q457 347 457 310V305H144Q143 297 143 289.5Q143 282 143 278Q143 228 155 187Q167 146 190 117Q213 88 246 72Q279 56 320 56Q346 56 368.5 63.5Q391 71 409 83Q427 95 439.5 110Q452 125 458 140H462Q460 124 447.5 98Q435 72 410.5 47Q386 22 349.5 3.5Q313 -15 263 -15Q210 -15 167.5 3.5Q125 22 95.5 55.5Q66 89 50 135.5Q34 182 34 238ZM346 309 346 348Q346 374 342.5 399Q339 424 329.5 444.5Q320 465 303.5 477.5Q287 490 262 490Q235 490 214.5 476Q194 462 180 438Q166 414 157 381Q148 348 144 309Z" glyph-name="egrave" horiz-adv-x="491" unicode="" /><glyph d="M411 700 255 541H251L296 700ZM34 238Q34 288 50 334Q66 380 96 415Q126 450 168 471.5Q210 493 262 493Q308 493 344 478.5Q380 464 405 439Q430 414 443.5 380.5Q457 347 457 310V305H144Q143 297 143 289.5Q143 282 143 278Q143 228 155 187Q167 146 190 117Q213 88 246 72Q279 56 320 56Q346 56 368.5 63.5Q391 71 409 83Q427 95 439.5 110Q452 125 458 140H462Q460 124 447.5 98Q435 72 410.5 47Q386 22 349.5 3.5Q313 -15 263 -15Q210 -15 167.5 3.5Q125 22 95.5 55.5Q66 89 50 135.5Q34 182 34 238ZM346 309 346 348Q346 374 342.5 399Q339 424 329.5 444.5Q320 465 303.5 477.5Q287 490 262 490Q235 490 214.5 476Q194 462 180 438Q166 414 157 381Q148 348 144 309Z" glyph-name="eacute" horiz-adv-x="491" unicode="" /><glyph d="M381 541 374 541L246 619L118 541H111L243 700H249ZM34 238Q34 288 50 334Q66 380 96 415Q126 450 168 471.5Q210 493 262 493Q308 493 344 478.5Q380 464 405 439Q430 414 443.5 380.5Q457 347 457 310V305H144Q143 297 143 289.5Q143 282 143 278Q143 228 155 187Q167 146 190 117Q213 88 246 72Q279 56 320 56Q346 56 368.5 63.5Q391 71 409 83Q427 95 439.5 110Q452 125 458 140H462Q460 124 447.5 98Q435 72 410.5 47Q386 22 349.5 3.5Q313 -15 263 -15Q210 -15 167.5 3.5Q125 22 95.5 55.5Q66 89 50 135.5Q34 182 34 238ZM346 309 346 348Q346 374 342.5 399Q339 424 329.5 444.5Q320 465 303.5 477.5Q287 490 262 490Q235 490 214.5 476Q194 462 180 438Q166 414 157 381Q148 348 144 309Z" glyph-name="ecircumflex" horiz-adv-x="491" unicode="" /><glyph d="M156 573Q131 573 114 590Q97 607 97 631Q97 655 114 672Q131 689 156 689Q180 689 197 672Q214 655 214 631Q214 607 197 590Q180 573 156 573ZM336 573Q311 573 294 590Q277 607 277 631Q277 655 294 672Q311 689 336 689Q360 689 377 672Q394 655 394 631Q394 607 377 590Q360 573 336 573ZM34 238Q34 288 50 334Q66 380 96 415Q126 450 168 471.5Q210 493 262 493Q308 493 344 478.5Q380 464 405 439Q430 414 443.5 380.5Q457 347 457 310V305H144Q143 297 143 289.5Q143 282 143 278Q143 228 155 187Q167 146 190 117Q213 88 246 72Q279 56 320 56Q346 56 368.5 63.5Q391 71 409 83Q427 95 439.5 110Q452 125 458 140H462Q460 124 447.5 98Q435 72 410.5 47Q386 22 349.5 3.5Q313 -15 263 -15Q210 -15 167.5 3.5Q125 22 95.5 55.5Q66 89 50 135.5Q34 182 34 238ZM346 309 346 348Q346 374 342.5 399Q339 424 329.5 444.5Q320 465 303.5 477.5Q287 490 262 490Q235 490 214.5 476Q194 462 180 438Q166 414 157 381Q148 348 144 309Z" glyph-name="edieresis" horiz-adv-x="491" unicode="" /><glyph d="M89 700 134 541H130L-26 700ZM197 53Q197 34 210.5 23Q224 12 244 7L259 3V0H28V3L42 7Q63 13 76.5 23.5Q90 34 90 53V417L14 448V451Q67 459 107.5 469Q148 479 197 493H199Q198 477 198 448Q198 421 197.5 381Q197 341 197 279Z" glyph-name="igrave" horiz-adv-x="276" unicode="" /><glyph d="M304 700 148 541H144L189 700ZM197 53Q197 34 210.5 23Q224 12 244 7L259 3V0H28V3L42 7Q63 13 76.5 23.5Q90 34 90 53V417L14 448V451Q67 459 107.5 469Q148 479 197 493H199Q198 477 198 448Q198 421 197.5 381Q197 341 197 279Z" glyph-name="iacute" horiz-adv-x="276" unicode="" /><glyph d="M274 541 267 541L139 619L11 541H4L136 700H142ZM197 53Q197 34 210.5 23Q224 12 244 7L259 3V0H28V3L42 7Q63 13 76.5 23.5Q90 34 90 53V417L14 448V451Q67 459 107.5 469Q148 479 197 493H199Q198 477 198 448Q198 421 197.5 381Q197 341 197 279Z" glyph-name="icircumflex" horiz-adv-x="276" unicode="" /><glyph d="M49 573Q24 573 7 590Q-10 607 -10 631Q-10 655 7 672Q24 689 49 689Q73 689 90 672Q107 655 107 631Q107 607 90 590Q73 573 49 573ZM229 573Q204 573 187 590Q170 607 170 631Q170 655 187 672Q204 689 229 689Q253 689 270 672Q287 655 287 631Q287 607 270 590Q253 573 229 573ZM197 53Q197 34 210.5 23Q224 12 244 7L259 3V0H28V3L42 7Q63 13 76.5 23.5Q90 34 90 53V417L14 448V451Q67 459 107.5 469Q148 479 197 493H199Q198 477 198 448Q198 421 197.5 381Q197 341 197 279Z" glyph-name="idieresis" horiz-adv-x="276" unicode="" /><glyph d="M515 259Q515 199 496 148.5Q477 98 444 61.5Q411 25 367 5Q323 -15 274 -15Q225 -15 181 4.5Q137 24 104 58.5Q71 93 52 139.5Q33 186 33 239Q33 292 51.5 338Q70 384 102 418.5Q134 453 176 473Q218 493 264 493Q286 493 305.5 490Q325 487 340 482Q316 520 289 557Q262 594 234 627L159 584L155 592L228 634Q190 678 156.5 711.5Q123 745 103 762L107 767Q145 749 188 722.5Q231 696 275 661L367 714L372 707L282 655Q328 618 370 573.5Q412 529 444.5 478.5Q477 428 496 373Q515 318 515 259ZM394 239Q394 308 384 355.5Q374 403 357 433Q340 463 318.5 476Q297 489 274 489Q251 489 229 476Q207 463 190.5 433Q174 403 164 355.5Q154 308 154 239Q154 170 164 122Q174 74 190.5 44.5Q207 15 229 2Q251 -11 274 -11Q297 -11 318.5 2Q340 15 357 45Q374 75 384 122.5Q394 170 394 239Z" glyph-name="eth" horiz-adv-x="550" unicode="" /><glyph d="M144 571Q145 611 166.5 639.5Q188 668 230 668Q248 668 264.5 662.5Q281 657 297.5 650Q314 643 331 637.5Q348 632 366 632Q395 632 408 647.5Q421 663 424 677H430Q429 637 407.5 608.5Q386 580 344 580Q326 580 309.5 585.5Q293 591 276.5 598Q260 605 243 610.5Q226 616 208 616Q179 616 166 600.5Q153 585 150 571ZM391 330Q391 363 382 384Q373 405 359 416Q345 427 328.5 431Q312 435 297 435Q269 435 241.5 421Q214 407 196 389V53Q196 36 209 25Q222 14 243 9L269 3V0H27V3L42 8Q62 15 75.5 24.5Q89 34 89 53V417L13 448V451Q66 459 106.5 469Q147 479 196 493H198L196 393Q204 405 218.5 422.5Q233 440 254.5 455.5Q276 471 303.5 482Q331 493 364 493Q382 493 405 487.5Q428 482 449 467Q470 452 484 425Q498 398 498 354V53Q498 36 511 25Q524 14 545 9L571 3V0H329V3L344 8Q364 15 377.5 24.5Q391 34 391 53Z" glyph-name="ntilde" horiz-adv-x="577" unicode="" /><glyph d="M224 700 269 541H265L109 700ZM515 239Q515 186 496 140Q477 94 444 59.5Q411 25 367 5Q323 -15 274 -15Q225 -15 181 4.5Q137 24 104 58.5Q71 93 52 139.5Q33 186 33 239Q33 292 52 338Q71 384 104 418.5Q137 453 181 473Q225 493 274 493Q323 493 367 473Q411 453 444 418.5Q477 384 496 338Q515 292 515 239ZM394 239Q394 308 384 355.5Q374 403 357 433Q340 463 318.5 476Q297 489 274 489Q251 489 229 476Q207 463 190.5 433Q174 403 164 355.5Q154 308 154 239Q154 170 164 122Q174 74 190.5 44.5Q207 15 229 2Q251 -11 274 -11Q297 -11 318.5 2Q340 15 357 45Q374 75 384 122.5Q394 170 394 239Z" glyph-name="ograve" horiz-adv-x="548" unicode="" /><glyph d="M439 700 283 541H279L324 700ZM515 239Q515 186 496 140Q477 94 444 59.5Q411 25 367 5Q323 -15 274 -15Q225 -15 181 4.5Q137 24 104 58.5Q71 93 52 139.5Q33 186 33 239Q33 292 52 338Q71 384 104 418.5Q137 453 181 473Q225 493 274 493Q323 493 367 473Q411 453 444 418.5Q477 384 496 338Q515 292 515 239ZM394 239Q394 308 384 355.5Q374 403 357 433Q340 463 318.5 476Q297 489 274 489Q251 489 229 476Q207 463 190.5 433Q174 403 164 355.5Q154 308 154 239Q154 170 164 122Q174 74 190.5 44.5Q207 15 229 2Q251 -11 274 -11Q297 -11 318.5 2Q340 15 357 45Q374 75 384 122.5Q394 170 394 239Z" glyph-name="oacute" horiz-adv-x="548" unicode="" /><glyph d="M409 541 402 541L274 619L146 541H139L271 700H277ZM515 239Q515 186 496 140Q477 94 444 59.5Q411 25 367 5Q323 -15 274 -15Q225 -15 181 4.5Q137 24 104 58.5Q71 93 52 139.5Q33 186 33 239Q33 292 52 338Q71 384 104 418.5Q137 453 181 473Q225 493 274 493Q323 493 367 473Q411 453 444 418.5Q477 384 496 338Q515 292 515 239ZM394 239Q394 308 384 355.5Q374 403 357 433Q340 463 318.5 476Q297 489 274 489Q251 489 229 476Q207 463 190.5 433Q174 403 164 355.5Q154 308 154 239Q154 170 164 122Q174 74 190.5 44.5Q207 15 229 2Q251 -11 274 -11Q297 -11 318.5 2Q340 15 357 45Q374 75 384 122.5Q394 170 394 239Z" glyph-name="ocircumflex" horiz-adv-x="548" unicode="" /><glyph d="M131 571Q132 611 153.5 639.5Q175 668 217 668Q235 668 251.5 662.5Q268 657 284.5 650Q301 643 318 637.5Q335 632 353 632Q382 632 395 647.5Q408 663 411 677H417Q416 637 394.5 608.5Q373 580 331 580Q313 580 296.5 585.5Q280 591 263.5 598Q247 605 230 610.5Q213 616 195 616Q166 616 153 600.5Q140 585 137 571ZM515 239Q515 186 496 140Q477 94 444 59.5Q411 25 367 5Q323 -15 274 -15Q225 -15 181 4.5Q137 24 104 58.5Q71 93 52 139.5Q33 186 33 239Q33 292 52 338Q71 384 104 418.5Q137 453 181 473Q225 493 274 493Q323 493 367 473Q411 453 444 418.5Q477 384 496 338Q515 292 515 239ZM394 239Q394 308 384 355.5Q374 403 357 433Q340 463 318.5 476Q297 489 274 489Q251 489 229 476Q207 463 190.5 433Q174 403 164 355.5Q154 308 154 239Q154 170 164 122Q174 74 190.5 44.5Q207 15 229 2Q251 -11 274 -11Q297 -11 318.5 2Q340 15 357 45Q374 75 384 122.5Q394 170 394 239Z" glyph-name="otilde" horiz-adv-x="548" unicode="" /><glyph d="M184 573Q159 573 142 590Q125 607 125 631Q125 655 142 672Q159 689 184 689Q208 689 225 672Q242 655 242 631Q242 607 225 590Q208 573 184 573ZM364 573Q339 573 322 590Q305 607 305 631Q305 655 322 672Q339 689 364 689Q388 689 405 672Q422 655 422 631Q422 607 405 590Q388 573 364 573ZM515 239Q515 186 496 140Q477 94 444 59.5Q411 25 367 5Q323 -15 274 -15Q225 -15 181 4.5Q137 24 104 58.5Q71 93 52 139.5Q33 186 33 239Q33 292 52 338Q71 384 104 418.5Q137 453 181 473Q225 493 274 493Q323 493 367 473Q411 453 444 418.5Q477 384 496 338Q515 292 515 239ZM394 239Q394 308 384 355.5Q374 403 357 433Q340 463 318.5 476Q297 489 274 489Q251 489 229 476Q207 463 190.5 433Q174 403 164 355.5Q154 308 154 239Q154 170 164 122Q174 74 190.5 44.5Q207 15 229 2Q251 -11 274 -11Q297 -11 318.5 2Q340 15 357 45Q374 75 384 122.5Q394 170 394 239Z" glyph-name="odieresis" horiz-adv-x="548" unicode="" /><glyph d="M279 456Q259 456 244.5 470.5Q230 485 230 505Q230 526 244.5 540.5Q259 555 279 555Q300 555 314.5 540.5Q329 526 329 505Q329 485 314.5 470.5Q300 456 279 456ZM71 361 489 361V353H71ZM279 161Q259 161 244.5 175.5Q230 190 230 210Q230 231 244.5 245.5Q259 260 279 260Q300 260 314.5 245.5Q329 231 329 210Q329 190 314.5 175.5Q300 161 279 161Z" glyph-name="divide" horiz-adv-x="561" unicode="" /><glyph d="M274 -15Q231 -15 192.5 0Q154 15 122 42L44 -52H36L117 46Q79 81 56 130.5Q33 180 33 239Q33 292 52 338Q71 384 104 418.5Q137 453 181 473Q225 493 274 493Q320 493 361 476Q402 459 434 429L505 515H513L438 424Q473 389 494 341.5Q515 294 515 239Q515 186 496 140Q477 94 444 59.5Q411 25 367 5Q323 -15 274 -15ZM154 239Q154 198 157.5 165.5Q161 133 167 107L382 366Q366 433 336.5 461Q307 489 274 489Q251 489 229 476Q207 463 190.5 433Q174 403 164 355.5Q154 308 154 239ZM394 239Q394 308 383 358L169 99Q186 39 214 14Q242 -11 274 -11Q297 -11 318.5 2Q340 15 357 45Q374 75 384 122.5Q394 170 394 239Z" glyph-name="oslash" horiz-adv-x="548" unicode="" /><glyph d="M230 700 275 541H271L115 700ZM552 31 552 28Q537 26 509.5 20Q482 14 453 7.5Q424 1 400.5 -5.5Q377 -12 369 -15H367L370 85Q363 74 350 57Q337 40 317 24Q297 8 270.5 -3.5Q244 -15 210 -15Q185 -15 161 -6.5Q137 2 118.5 19Q100 36 89 63Q78 90 78 126V423Q78 440 65.5 451.5Q53 463 31 468L6 474V477H185V137Q185 110 192.5 92Q200 74 212.5 63Q225 52 241.5 47.5Q258 43 275 43Q301 43 326.5 56Q352 69 370 89V423Q370 440 357 451.5Q344 463 323 468L297 474V477H477V52Z" glyph-name="ugrave" horiz-adv-x="561" unicode="" /><glyph d="M445 700 289 541H285L330 700ZM552 31 552 28Q537 26 509.5 20Q482 14 453 7.5Q424 1 400.5 -5.5Q377 -12 369 -15H367L370 85Q363 74 350 57Q337 40 317 24Q297 8 270.5 -3.5Q244 -15 210 -15Q185 -15 161 -6.5Q137 2 118.5 19Q100 36 89 63Q78 90 78 126V423Q78 440 65.5 451.5Q53 463 31 468L6 474V477H185V137Q185 110 192.5 92Q200 74 212.5 63Q225 52 241.5 47.5Q258 43 275 43Q301 43 326.5 56Q352 69 370 89V423Q370 440 357 451.5Q344 463 323 468L297 474V477H477V52Z" glyph-name="uacute" horiz-adv-x="561" unicode="" /><glyph d="M415 541 408 541L280 619L152 541H145L277 700H283ZM552 31 552 28Q537 26 509.5 20Q482 14 453 7.5Q424 1 400.5 -5.5Q377 -12 369 -15H367L370 85Q363 74 350 57Q337 40 317 24Q297 8 270.5 -3.5Q244 -15 210 -15Q185 -15 161 -6.5Q137 2 118.5 19Q100 36 89 63Q78 90 78 126V423Q78 440 65.5 451.5Q53 463 31 468L6 474V477H185V137Q185 110 192.5 92Q200 74 212.5 63Q225 52 241.5 47.5Q258 43 275 43Q301 43 326.5 56Q352 69 370 89V423Q370 440 357 451.5Q344 463 323 468L297 474V477H477V52Z" glyph-name="ucircumflex" horiz-adv-x="561" unicode="" /><glyph d="M190 573Q165 573 148 590Q131 607 131 631Q131 655 148 672Q165 689 190 689Q214 689 231 672Q248 655 248 631Q248 607 231 590Q214 573 190 573ZM370 573Q345 573 328 590Q311 607 311 631Q311 655 328 672Q345 689 370 689Q394 689 411 672Q428 655 428 631Q428 607 411 590Q394 573 370 573ZM552 31 552 28Q537 26 509.5 20Q482 14 453 7.5Q424 1 400.5 -5.5Q377 -12 369 -15H367L370 85Q363 74 350 57Q337 40 317 24Q297 8 270.5 -3.5Q244 -15 210 -15Q185 -15 161 -6.5Q137 2 118.5 19Q100 36 89 63Q78 90 78 126V423Q78 440 65.5 451.5Q53 463 31 468L6 474V477H185V137Q185 110 192.5 92Q200 74 212.5 63Q225 52 241.5 47.5Q258 43 275 43Q301 43 326.5 56Q352 69 370 89V423Q370 440 357 451.5Q344 463 323 468L297 474V477H477V52Z" glyph-name="udieresis" horiz-adv-x="561" unicode="" /><glyph d="M418 700 262 541H258L303 700ZM51 -176Q51 -151 68 -133.5Q85 -116 110 -116Q122 -116 135.5 -120.5Q149 -125 162 -127Q175 -129 186 -125.5Q197 -122 204 -105L250 -1L68 410Q44 464 3 472L-7 474V477H249V474L233 472Q202 468 192.5 449Q183 430 200 388L306 129L388 323Q410 374 409.5 403.5Q409 433 396 448Q383 463 362.5 467.5Q342 472 323 473L315 474V477H513V474L509 473Q489 468 473 453.5Q457 439 440.5 411.5Q424 384 405 342Q386 300 359 238L182 -173Q167 -208 149.5 -221.5Q132 -235 111 -235Q86 -235 68.5 -218Q51 -201 51 -176Z" glyph-name="yacute" horiz-adv-x="499" unicode="" /><glyph d="M175 -162Q175 -182 184.5 -192.5Q194 -203 222 -211L247 -217V-220H6V-217L20 -213Q48 -205 58 -193Q68 -181 68 -162V670L-8 701V704Q45 712 85.5 722Q126 732 175 746H177L175 421Q197 452 236 472.5Q275 493 323 493Q366 493 404 475.5Q442 458 470.5 426.5Q499 395 516 350.5Q533 306 533 251Q533 197 515.5 148.5Q498 100 465 63.5Q432 27 385 6Q338 -15 279 -15Q250 -15 224 -11Q198 -7 175 -1ZM175 98Q175 43 206.5 16.5Q238 -10 280 -10Q320 -10 347 11Q374 32 390.5 65Q407 98 414 138.5Q421 179 421 218Q421 263 409.5 302Q398 341 376 369.5Q354 398 321 414Q288 430 246 430Q227 430 210 426.5Q193 423 175 415Z" glyph-name="thorn" horiz-adv-x="567" unicode="" /><glyph d="M163 573Q138 573 121 590Q104 607 104 631Q104 655 121 672Q138 689 163 689Q187 689 204 672Q221 655 221 631Q221 607 204 590Q187 573 163 573ZM343 573Q318 573 301 590Q284 607 284 631Q284 655 301 672Q318 689 343 689Q367 689 384 672Q401 655 401 631Q401 607 384 590Q367 573 343 573ZM51 -176Q51 -151 68 -133.5Q85 -116 110 -116Q122 -116 135.5 -120.5Q149 -125 162 -127Q175 -129 186 -125.5Q197 -122 204 -105L250 -1L68 410Q44 464 3 472L-7 474V477H249V474L233 472Q202 468 192.5 449Q183 430 200 388L306 129L388 323Q410 374 409.5 403.5Q409 433 396 448Q383 463 362.5 467.5Q342 472 323 473L315 474V477H513V474L509 473Q489 468 473 453.5Q457 439 440.5 411.5Q424 384 405 342Q386 300 359 238L182 -173Q167 -208 149.5 -221.5Q132 -235 111 -235Q86 -235 68.5 -218Q51 -201 51 -176Z" glyph-name="ydieresis" horiz-adv-x="499" unicode="" /><glyph d="M195 807 195 847H460V807ZM244 0 -23 0V3Q2 7 22.5 18Q43 29 62 52Q81 75 100 111Q119 147 140 200L287 576L236 700H373L612 136Q630 93 646.5 68.5Q663 44 677.5 31.5Q692 19 705 14Q718 9 729 6L739 3V0H391V3L415 5Q471 10 486 34.5Q501 59 474 124L403 295H185L149 201Q136 167 127.5 133.5Q119 100 123.5 73.5Q128 47 149 29Q170 11 215 6L244 3ZM400 302 291 567L188 302Z" glyph-name="Amacron" horiz-adv-x="714" unicode="" /><glyph d="M98 584 98 624H363V584ZM380 88Q380 59 397 48Q414 37 429 37Q442 37 452.5 41Q463 45 468 48L470 46Q464 37 455 26.5Q446 16 432.5 6.5Q419 -3 401 -9Q383 -15 361 -15Q320 -15 298 8Q276 31 274 63Q254 28 219.5 6.5Q185 -15 150 -15Q121 -15 99 -5.5Q77 4 62 19.5Q47 35 39 54.5Q31 74 31 95Q31 128 50.5 158.5Q70 189 114 206L275 269V341Q275 369 266 389Q257 409 242.5 422Q228 435 209.5 441Q191 447 171 447Q128 447 98 428Q68 409 54 380Q60 387 70 392Q80 397 91 397Q112 397 126 382.5Q140 368 140 351Q140 327 125 314.5Q110 302 92 302Q75 302 59.5 315.5Q44 329 44 353Q44 375 56.5 399.5Q69 424 92.5 445Q116 466 150 479.5Q184 493 227 493Q259 493 287.5 485.5Q316 478 337 461Q358 444 370 417Q382 390 382 351ZM135 134Q135 99 159 76Q183 53 220 53Q233 53 246.5 57Q260 61 273 68L275 263Q254 254 229.5 243Q205 232 184 216.5Q163 201 149 181Q135 161 135 134Z" glyph-name="amacron" horiz-adv-x="459" unicode="" /><glyph d="M328 843Q389 843 424.5 860.5Q460 878 460 913V917H466V908Q466 853 431.5 814.5Q397 776 328 776Q259 776 224.5 814.5Q190 853 190 908V917H196V913Q196 878 231.5 860.5Q267 843 328 843ZM244 0 -23 0V3Q2 7 22.5 18Q43 29 62 52Q81 75 100 111Q119 147 140 200L287 576L236 700H373L612 136Q630 93 646.5 68.5Q663 44 677.5 31.5Q692 19 705 14Q718 9 729 6L739 3V0H391V3L415 5Q471 10 486 34.5Q501 59 474 124L403 295H185L149 201Q136 167 127.5 133.5Q119 100 123.5 73.5Q128 47 149 29Q170 11 215 6L244 3ZM400 302 291 567L188 302Z" glyph-name="Abreve" horiz-adv-x="714" unicode="" /><glyph d="M231 620Q292 620 327.5 637.5Q363 655 363 690V694H369V685Q369 630 334.5 591.5Q300 553 231 553Q162 553 127.5 591.5Q93 630 93 685V694H99V690Q99 655 134.5 637.5Q170 620 231 620ZM380 88Q380 59 397 48Q414 37 429 37Q442 37 452.5 41Q463 45 468 48L470 46Q464 37 455 26.5Q446 16 432.5 6.5Q419 -3 401 -9Q383 -15 361 -15Q320 -15 298 8Q276 31 274 63Q254 28 219.5 6.5Q185 -15 150 -15Q121 -15 99 -5.5Q77 4 62 19.5Q47 35 39 54.5Q31 74 31 95Q31 128 50.5 158.5Q70 189 114 206L275 269V341Q275 369 266 389Q257 409 242.5 422Q228 435 209.5 441Q191 447 171 447Q128 447 98 428Q68 409 54 380Q60 387 70 392Q80 397 91 397Q112 397 126 382.5Q140 368 140 351Q140 327 125 314.5Q110 302 92 302Q75 302 59.5 315.5Q44 329 44 353Q44 375 56.5 399.5Q69 424 92.5 445Q116 466 150 479.5Q184 493 227 493Q259 493 287.5 485.5Q316 478 337 461Q358 444 370 417Q382 390 382 351ZM135 134Q135 99 159 76Q183 53 220 53Q233 53 246.5 57Q260 61 273 68L275 263Q254 254 229.5 243Q205 232 184 216.5Q163 201 149 181Q135 161 135 134Z" glyph-name="abreve" horiz-adv-x="459" unicode="" /><glyph d="M653 -176Q639 -182 614 -188.5Q589 -195 561 -195Q533 -195 514 -182Q495 -169 495 -144Q495 -118 527.5 -81.5Q560 -45 627 0H391V3L415 5Q471 10 486 34.5Q501 59 474 124L403 295H185L149 201Q136 167 127.5 133.5Q119 100 123.5 73.5Q128 47 149 29Q170 11 215 6L244 3V0H-23V3Q2 7 22.5 18Q43 29 62 52Q81 75 100 111Q119 147 140 200L287 576L236 700H373L612 136Q630 93 646.5 68.5Q663 44 677.5 31.5Q692 19 705 14Q718 9 729 6L739 3V0H630Q612 -31 593.5 -64.5Q575 -98 575 -124Q575 -146 587 -159.5Q599 -173 628 -173Q633 -173 640.5 -173Q648 -173 653 -172ZM400 302 291 567L188 302Z" glyph-name="Aogonek" horiz-adv-x="714" unicode="" /><glyph d="M427 -176Q413 -182 388 -188.5Q363 -195 335 -195Q307 -195 288 -182Q269 -169 269 -144Q269 -121 296.5 -88Q324 -55 381 -13Q376 -14 371 -14.5Q366 -15 361 -15Q320 -15 298 8Q276 31 274 63Q254 28 219.5 6.5Q185 -15 150 -15Q121 -15 99 -5.5Q77 4 62 19.5Q47 35 39 54.5Q31 74 31 95Q31 128 50.5 158.5Q70 189 114 206L275 269V341Q275 369 266 389Q257 409 242.5 422Q228 435 209.5 441Q191 447 171 447Q128 447 98 428Q68 409 54 380Q60 387 70 392Q80 397 91 397Q112 397 126 382.5Q140 368 140 351Q140 327 125 314.5Q110 302 92 302Q75 302 59.5 315.5Q44 329 44 353Q44 375 56.5 399.5Q69 424 92.5 445Q116 466 150 479.5Q184 493 227 493Q259 493 287.5 485.5Q316 478 337 461Q358 444 370 417Q382 390 382 351L380 88Q380 59 397 48Q414 37 429 37Q442 37 452.5 41Q463 45 468 48L470 46Q462 32 444 15.5Q426 -1 399 -9Q382 -38 365.5 -69Q349 -100 349 -124Q349 -146 361 -159.5Q373 -173 402 -173Q407 -173 414.5 -173Q422 -173 427 -172ZM135 134Q135 99 159 76Q183 53 220 53Q233 53 246.5 57Q260 61 273 68L275 263Q254 254 229.5 243Q205 232 184 216.5Q163 201 149 181Q135 161 135 134Z" glyph-name="aogonek" horiz-adv-x="459" unicode="" /><glyph d="M550 923 394 764H390L435 923ZM180 349Q180 272 202 206.5Q224 141 262.5 93.5Q301 46 353 19Q405 -8 465 -8Q513 -8 549.5 12Q586 32 614 63Q642 94 661.5 130Q681 166 695 198L714 241H718L716 37Q691 27 659 17.5Q627 8 591.5 0.5Q556 -7 519 -11Q482 -15 447 -15Q357 -15 282.5 10.5Q208 36 154 83Q100 130 70 197.5Q40 265 40 349Q40 432 69.5 499.5Q99 567 153 615Q207 663 282.5 689Q358 715 449 715Q489 715 529.5 712Q570 709 606 705Q642 701 670.5 697Q699 693 714 691V502H710L691 539Q676 569 654.5 599Q633 629 603.5 653.5Q574 678 535 693.5Q496 709 446 709Q385 709 335.5 681.5Q286 654 251.5 606Q217 558 198.5 492Q180 426 180 349Z" glyph-name="Cacute" horiz-adv-x="767" unicode="" /><glyph d="M402 700 246 541H242L287 700ZM262 -15Q209 -15 166.5 3.5Q124 22 94.5 55.5Q65 89 49 135.5Q33 182 33 238Q33 284 50.5 329.5Q68 375 100.5 411.5Q133 448 179 470.5Q225 493 281 493Q316 493 345 486Q374 479 394.5 467Q415 455 426 439Q437 423 437 406Q437 380 420 364.5Q403 349 382 349Q367 349 355.5 355.5Q344 362 338 372Q330 386 328 402.5Q326 419 323 436Q319 459 309 474.5Q299 490 275 490Q241 490 216 473Q191 456 174.5 427.5Q158 399 150 360.5Q142 322 142 278Q142 228 154 187Q166 146 189 117Q212 88 245 72Q278 56 319 56Q345 56 367.5 63.5Q390 71 408 83Q426 95 438.5 110Q451 125 457 140H461Q459 124 446.5 98Q434 72 409.5 47Q385 22 348.5 3.5Q312 -15 262 -15Z" glyph-name="cacute" horiz-adv-x="474" unicode="" /><glyph d="M520 764 513 764L385 842L257 764H250L382 923H388ZM180 349Q180 272 202 206.5Q224 141 262.5 93.5Q301 46 353 19Q405 -8 465 -8Q513 -8 549.5 12Q586 32 614 63Q642 94 661.5 130Q681 166 695 198L714 241H718L716 37Q691 27 659 17.5Q627 8 591.5 0.5Q556 -7 519 -11Q482 -15 447 -15Q357 -15 282.5 10.5Q208 36 154 83Q100 130 70 197.5Q40 265 40 349Q40 432 69.5 499.5Q99 567 153 615Q207 663 282.5 689Q358 715 449 715Q489 715 529.5 712Q570 709 606 705Q642 701 670.5 697Q699 693 714 691V502H710L691 539Q676 569 654.5 599Q633 629 603.5 653.5Q574 678 535 693.5Q496 709 446 709Q385 709 335.5 681.5Q286 654 251.5 606Q217 558 198.5 492Q180 426 180 349Z" glyph-name="Ccircumflex" horiz-adv-x="767" unicode="" /><glyph d="M372 541 365 541L237 619L109 541H102L234 700H240ZM262 -15Q209 -15 166.5 3.5Q124 22 94.5 55.5Q65 89 49 135.5Q33 182 33 238Q33 284 50.5 329.5Q68 375 100.5 411.5Q133 448 179 470.5Q225 493 281 493Q316 493 345 486Q374 479 394.5 467Q415 455 426 439Q437 423 437 406Q437 380 420 364.5Q403 349 382 349Q367 349 355.5 355.5Q344 362 338 372Q330 386 328 402.5Q326 419 323 436Q319 459 309 474.5Q299 490 275 490Q241 490 216 473Q191 456 174.5 427.5Q158 399 150 360.5Q142 322 142 278Q142 228 154 187Q166 146 189 117Q212 88 245 72Q278 56 319 56Q345 56 367.5 63.5Q390 71 408 83Q426 95 438.5 110Q451 125 457 140H461Q459 124 446.5 98Q434 72 409.5 47Q385 22 348.5 3.5Q312 -15 262 -15Z" glyph-name="ccircumflex" horiz-adv-x="474" unicode="" /><glyph d="M385 774Q358 774 339 793Q320 812 320 838Q320 864 339 883Q358 902 385 902Q411 902 430 883Q449 864 449 838Q449 812 430 793Q411 774 385 774ZM180 349Q180 272 202 206.5Q224 141 262.5 93.5Q301 46 353 19Q405 -8 465 -8Q513 -8 549.5 12Q586 32 614 63Q642 94 661.5 130Q681 166 695 198L714 241H718L716 37Q691 27 659 17.5Q627 8 591.5 0.5Q556 -7 519 -11Q482 -15 447 -15Q357 -15 282.5 10.5Q208 36 154 83Q100 130 70 197.5Q40 265 40 349Q40 432 69.5 499.5Q99 567 153 615Q207 663 282.5 689Q358 715 449 715Q489 715 529.5 712Q570 709 606 705Q642 701 670.5 697Q699 693 714 691V502H710L691 539Q676 569 654.5 599Q633 629 603.5 653.5Q574 678 535 693.5Q496 709 446 709Q385 709 335.5 681.5Q286 654 251.5 606Q217 558 198.5 492Q180 426 180 349Z" glyph-name="Cdotaccent" horiz-adv-x="767" unicode="" /><glyph d="M237 551Q210 551 191 570Q172 589 172 615Q172 641 191 660Q210 679 237 679Q263 679 282 660Q301 641 301 615Q301 589 282 570Q263 551 237 551ZM262 -15Q209 -15 166.5 3.5Q124 22 94.5 55.5Q65 89 49 135.5Q33 182 33 238Q33 284 50.5 329.5Q68 375 100.5 411.5Q133 448 179 470.5Q225 493 281 493Q316 493 345 486Q374 479 394.5 467Q415 455 426 439Q437 423 437 406Q437 380 420 364.5Q403 349 382 349Q367 349 355.5 355.5Q344 362 338 372Q330 386 328 402.5Q326 419 323 436Q319 459 309 474.5Q299 490 275 490Q241 490 216 473Q191 456 174.5 427.5Q158 399 150 360.5Q142 322 142 278Q142 228 154 187Q166 146 189 117Q212 88 245 72Q278 56 319 56Q345 56 367.5 63.5Q390 71 408 83Q426 95 438.5 110Q451 125 457 140H461Q459 124 446.5 98Q434 72 409.5 47Q385 22 348.5 3.5Q312 -15 262 -15Z" glyph-name="cdotaccent" horiz-adv-x="474" unicode="" /><glyph d="M250 923 257 923L385 845L513 923H520L388 764H382ZM180 349Q180 272 202 206.5Q224 141 262.5 93.5Q301 46 353 19Q405 -8 465 -8Q513 -8 549.5 12Q586 32 614 63Q642 94 661.5 130Q681 166 695 198L714 241H718L716 37Q691 27 659 17.5Q627 8 591.5 0.5Q556 -7 519 -11Q482 -15 447 -15Q357 -15 282.5 10.5Q208 36 154 83Q100 130 70 197.5Q40 265 40 349Q40 432 69.5 499.5Q99 567 153 615Q207 663 282.5 689Q358 715 449 715Q489 715 529.5 712Q570 709 606 705Q642 701 670.5 697Q699 693 714 691V502H710L691 539Q676 569 654.5 599Q633 629 603.5 653.5Q574 678 535 693.5Q496 709 446 709Q385 709 335.5 681.5Q286 654 251.5 606Q217 558 198.5 492Q180 426 180 349Z" glyph-name="Ccaron" horiz-adv-x="767" unicode="" /><glyph d="M102 700 109 700L237 622L365 700H372L240 541H234ZM262 -15Q209 -15 166.5 3.5Q124 22 94.5 55.5Q65 89 49 135.5Q33 182 33 238Q33 284 50.5 329.5Q68 375 100.5 411.5Q133 448 179 470.5Q225 493 281 493Q316 493 345 486Q374 479 394.5 467Q415 455 426 439Q437 423 437 406Q437 380 420 364.5Q403 349 382 349Q367 349 355.5 355.5Q344 362 338 372Q330 386 328 402.5Q326 419 323 436Q319 459 309 474.5Q299 490 275 490Q241 490 216 473Q191 456 174.5 427.5Q158 399 150 360.5Q142 322 142 278Q142 228 154 187Q166 146 189 117Q212 88 245 72Q278 56 319 56Q345 56 367.5 63.5Q390 71 408 83Q426 95 438.5 110Q451 125 457 140H461Q459 124 446.5 98Q434 72 409.5 47Q385 22 348.5 3.5Q312 -15 262 -15Z" glyph-name="ccaron" horiz-adv-x="474" unicode="" /><glyph d="M285 923 292 923L420 845L548 923H555L423 764H417ZM18 700 385 700Q487 700 564.5 671.5Q642 643 693.5 595Q745 547 771.5 484.5Q798 422 798 353Q798 284 771.5 220.5Q745 157 693.5 108Q642 59 564.5 29.5Q487 0 385 0H18V3L44 7Q71 11 88 20.5Q105 30 114.5 43.5Q124 57 127.5 73Q131 89 131 106V594Q131 611 127.5 627Q124 643 114.5 656.5Q105 670 88 679.5Q71 689 44 693L18 697ZM363 6Q437 6 492.5 30Q548 54 585.5 98.5Q623 143 642 206.5Q661 270 661 350Q661 430 640.5 493.5Q620 557 580.5 601.5Q541 646 484 670Q427 694 353 694H253V109Q253 88 256.5 69Q260 50 269.5 36Q279 22 296 14Q313 6 340 6Z" glyph-name="Dcaron" horiz-adv-x="838" unicode="" /><glyph d="M499 52 564 31V28Q555 27 532 21.5Q509 16 482 9.5Q455 3 429.5 -4Q404 -11 390 -15H388L392 57Q370 26 330.5 5.5Q291 -15 238 -15Q198 -15 161 1Q124 17 95.5 47.5Q67 78 50.5 123.5Q34 169 34 227Q34 278 51.5 326Q69 374 103 411Q137 448 186.5 470.5Q236 493 300 493Q320 493 344.5 489Q369 485 392 478V690L316 721V724Q369 732 409.5 742Q450 752 499 766H501Q500 750 500 721Q500 694 499.5 654Q499 614 499 552ZM556 467Q590 468 617 479Q644 490 663.5 507.5Q683 525 693.5 548.5Q704 572 705 599Q705 618 700 631Q698 636 694 637.5Q690 639 686 631Q678 612 661.5 596.5Q645 581 618 581Q584 581 566.5 601.5Q549 622 549 647Q549 673 567.5 694Q586 715 621 715Q640 715 657 706Q674 697 686.5 681.5Q699 666 706 645.5Q713 625 713 602Q713 573 701.5 547.5Q690 522 669.5 503.5Q649 485 620 473.5Q591 462 556 461ZM146 260Q146 215 157.5 176Q169 137 191 108.5Q213 80 246 64Q279 48 321 48Q340 48 357 51.5Q374 55 392 63V380Q392 407 383.5 428Q375 449 362 462.5Q349 476 333 483Q317 490 302 490Q260 490 230.5 470Q201 450 182 417.5Q163 385 154.5 344Q146 303 146 260Z" glyph-name="dcaron" horiz-adv-x="620" unicode="" /><glyph d="M799 353Q799 284 772.5 220.5Q746 157 694.5 108Q643 59 565.5 29.5Q488 0 386 0H19V3L45 7Q72 11 89 20.5Q106 30 115.5 43.5Q125 57 128.5 73Q132 89 132 106V359H29V366H132V594Q132 611 128.5 627Q125 643 115.5 656.5Q106 670 89 679.5Q72 689 45 693L19 697V700H386Q488 700 565.5 671.5Q643 643 694.5 595Q746 547 772.5 484.5Q799 422 799 353ZM364 6Q438 6 493.5 30Q549 54 586.5 98.5Q624 143 643 206.5Q662 270 662 350Q662 430 641.5 493.5Q621 557 581.5 601.5Q542 646 485 670Q428 694 354 694H254V366H454V359H254V109Q254 88 257.5 69Q261 50 270.5 36Q280 22 297 14Q314 6 341 6Z" glyph-name="Dcroat" horiz-adv-x="839" unicode="" /><glyph d="M564 28Q555 27 532 21.5Q509 16 482 9.5Q455 3 429.5 -4Q404 -11 390 -15H388L392 57Q370 26 330.5 5.5Q291 -15 238 -15Q198 -15 161 1Q124 17 95.5 47.5Q67 78 50.5 123.5Q34 169 34 227Q34 278 51.5 326Q69 374 103 411Q137 448 186.5 470.5Q236 493 300 493Q320 493 344.5 489Q369 485 392 478V588H256V595H392V690L316 721V724Q369 732 409.5 742Q450 752 499 766H501Q500 753 500 729Q500 708 499.5 676Q499 644 499 595H561V588H499V552V52L564 31ZM146 260Q146 215 157.5 176Q169 137 191 108.5Q213 80 246 64Q279 48 321 48Q340 48 357 51.5Q374 55 392 63V380Q392 407 383.5 428Q375 449 362 462.5Q349 476 333 483Q317 490 302 490Q260 490 230.5 470Q201 450 182 417.5Q163 385 154.5 344Q146 303 146 260Z" glyph-name="dcroat" horiz-adv-x="575" unicode="" /><glyph d="M224 807 224 847H489V807ZM411 6Q450 6 480 11.5Q510 17 533.5 29.5Q557 42 577 62.5Q597 83 617 112L682 208H686L666 0H18V3L44 7Q71 11 88 20.5Q105 30 114.5 43.5Q124 57 127.5 73Q131 89 131 106V594Q131 611 127.5 627Q124 643 114.5 656.5Q105 670 88 679.5Q71 689 44 693L18 697V700H638V502H634L586 587Q568 619 545 640Q522 661 492 673Q462 685 424.5 689.5Q387 694 339 694H253V364L305 365Q336 366 359.5 369Q383 372 402 383Q421 394 436 417Q451 440 464 481L475 515H478V208H475L464 242Q451 283 436 306Q421 329 402 340Q383 351 359.5 354Q336 357 305 358L253 359V106Q253 61 273.5 33.5Q294 6 350 6Z" glyph-name="Emacron" horiz-adv-x="719" unicode="" /><glyph d="M113 584 113 624H378V584ZM34 238Q34 288 50 334Q66 380 96 415Q126 450 168 471.5Q210 493 262 493Q308 493 344 478.5Q380 464 405 439Q430 414 443.5 380.5Q457 347 457 310V305H144Q143 297 143 289.5Q143 282 143 278Q143 228 155 187Q167 146 190 117Q213 88 246 72Q279 56 320 56Q346 56 368.5 63.5Q391 71 409 83Q427 95 439.5 110Q452 125 458 140H462Q460 124 447.5 98Q435 72 410.5 47Q386 22 349.5 3.5Q313 -15 263 -15Q210 -15 167.5 3.5Q125 22 95.5 55.5Q66 89 50 135.5Q34 182 34 238ZM346 309 346 348Q346 374 342.5 399Q339 424 329.5 444.5Q320 465 303.5 477.5Q287 490 262 490Q235 490 214.5 476Q194 462 180 438Q166 414 157 381Q148 348 144 309Z" glyph-name="emacron" horiz-adv-x="491" unicode="" /><glyph d="M357 843Q418 843 453.5 860.5Q489 878 489 913V917H495V908Q495 853 460.5 814.5Q426 776 357 776Q288 776 253.5 814.5Q219 853 219 908V917H225V913Q225 878 260.5 860.5Q296 843 357 843ZM411 6Q450 6 480 11.5Q510 17 533.5 29.5Q557 42 577 62.5Q597 83 617 112L682 208H686L666 0H18V3L44 7Q71 11 88 20.5Q105 30 114.5 43.5Q124 57 127.5 73Q131 89 131 106V594Q131 611 127.5 627Q124 643 114.5 656.5Q105 670 88 679.5Q71 689 44 693L18 697V700H638V502H634L586 587Q568 619 545 640Q522 661 492 673Q462 685 424.5 689.5Q387 694 339 694H253V364L305 365Q336 366 359.5 369Q383 372 402 383Q421 394 436 417Q451 440 464 481L475 515H478V208H475L464 242Q451 283 436 306Q421 329 402 340Q383 351 359.5 354Q336 357 305 358L253 359V106Q253 61 273.5 33.5Q294 6 350 6Z" glyph-name="Ebreve" horiz-adv-x="719" unicode="" /><glyph d="M246 620Q307 620 342.5 637.5Q378 655 378 690V694H384V685Q384 630 349.5 591.5Q315 553 246 553Q177 553 142.5 591.5Q108 630 108 685V694H114V690Q114 655 149.5 637.5Q185 620 246 620ZM34 238Q34 288 50 334Q66 380 96 415Q126 450 168 471.5Q210 493 262 493Q308 493 344 478.5Q380 464 405 439Q430 414 443.5 380.5Q457 347 457 310V305H144Q143 297 143 289.5Q143 282 143 278Q143 228 155 187Q167 146 190 117Q213 88 246 72Q279 56 320 56Q346 56 368.5 63.5Q391 71 409 83Q427 95 439.5 110Q452 125 458 140H462Q460 124 447.5 98Q435 72 410.5 47Q386 22 349.5 3.5Q313 -15 263 -15Q210 -15 167.5 3.5Q125 22 95.5 55.5Q66 89 50 135.5Q34 182 34 238ZM346 309 346 348Q346 374 342.5 399Q339 424 329.5 444.5Q320 465 303.5 477.5Q287 490 262 490Q235 490 214.5 476Q194 462 180 438Q166 414 157 381Q148 348 144 309Z" glyph-name="ebreve" horiz-adv-x="491" unicode="" /><glyph d="M357 774Q330 774 311 793Q292 812 292 838Q292 864 311 883Q330 902 357 902Q383 902 402 883Q421 864 421 838Q421 812 402 793Q383 774 357 774ZM411 6Q450 6 480 11.5Q510 17 533.5 29.5Q557 42 577 62.5Q597 83 617 112L682 208H686L666 0H18V3L44 7Q71 11 88 20.5Q105 30 114.5 43.5Q124 57 127.5 73Q131 89 131 106V594Q131 611 127.5 627Q124 643 114.5 656.5Q105 670 88 679.5Q71 689 44 693L18 697V700H638V502H634L586 587Q568 619 545 640Q522 661 492 673Q462 685 424.5 689.5Q387 694 339 694H253V364L305 365Q336 366 359.5 369Q383 372 402 383Q421 394 436 417Q451 440 464 481L475 515H478V208H475L464 242Q451 283 436 306Q421 329 402 340Q383 351 359.5 354Q336 357 305 358L253 359V106Q253 61 273.5 33.5Q294 6 350 6Z" glyph-name="Edotaccent" horiz-adv-x="719" unicode="" /><glyph d="M246 551Q219 551 200 570Q181 589 181 615Q181 641 200 660Q219 679 246 679Q272 679 291 660Q310 641 310 615Q310 589 291 570Q272 551 246 551ZM34 238Q34 288 50 334Q66 380 96 415Q126 450 168 471.5Q210 493 262 493Q308 493 344 478.5Q380 464 405 439Q430 414 443.5 380.5Q457 347 457 310V305H144Q143 297 143 289.5Q143 282 143 278Q143 228 155 187Q167 146 190 117Q213 88 246 72Q279 56 320 56Q346 56 368.5 63.5Q391 71 409 83Q427 95 439.5 110Q452 125 458 140H462Q460 124 447.5 98Q435 72 410.5 47Q386 22 349.5 3.5Q313 -15 263 -15Q210 -15 167.5 3.5Q125 22 95.5 55.5Q66 89 50 135.5Q34 182 34 238ZM346 309 346 348Q346 374 342.5 399Q339 424 329.5 444.5Q320 465 303.5 477.5Q287 490 262 490Q235 490 214.5 476Q194 462 180 438Q166 414 157 381Q148 348 144 309Z" glyph-name="edotaccent" horiz-adv-x="491" unicode="" /><glyph d="M623 -176Q609 -182 584 -188.5Q559 -195 531 -195Q503 -195 484 -182Q465 -169 465 -144Q465 -118 497.5 -81.5Q530 -45 597 0H18V3L44 7Q71 11 88 20.5Q105 30 114.5 43.5Q124 57 127.5 73Q131 89 131 106V594Q131 611 127.5 627Q124 643 114.5 656.5Q105 670 88 679.5Q71 689 44 693L18 697V700H638V502H634L586 587Q568 619 545 640Q522 661 492 673Q462 685 424.5 689.5Q387 694 339 694H253V364L305 365Q336 366 359.5 369Q383 372 402 383Q421 394 436 417Q451 440 464 481L475 515H478V208H475L464 242Q451 283 436 306Q421 329 402 340Q383 351 359.5 354Q336 357 305 358L253 359V106Q253 61 273.5 33.5Q294 6 350 6H411Q450 6 480 11.5Q510 17 533.5 29.5Q557 42 577 62.5Q597 83 617 112L682 208H686L666 0H600Q582 -31 563.5 -64.5Q545 -98 545 -124Q545 -146 557 -159.5Q569 -173 598 -173Q603 -173 610.5 -173Q618 -173 623 -172Z" glyph-name="Eogonek" horiz-adv-x="719" unicode="" /><glyph d="M392 -156Q378 -162 353 -168.5Q328 -175 300 -175Q272 -175 253 -162Q234 -149 234 -124Q234 -102 258 -71.5Q282 -41 332 -4Q301 -15 263 -15Q210 -15 167.5 3.5Q125 22 95.5 55.5Q66 89 50 135.5Q34 182 34 238Q34 288 50 334Q66 380 96 415Q126 450 168 471.5Q210 493 262 493Q308 493 344 478.5Q380 464 405 439Q430 414 443.5 380.5Q457 347 457 310V305H144Q143 297 143 289.5Q143 282 143 278Q143 228 155 187Q167 146 190 117Q213 88 246 72Q279 56 320 56Q346 56 368.5 63.5Q391 71 409 83Q427 95 439.5 110Q452 125 458 140H462Q461 129 454.5 112.5Q448 96 436 77.5Q424 59 406 41.5Q388 24 364 10Q347 -19 330.5 -49.5Q314 -80 314 -104Q314 -126 326 -139.5Q338 -153 367 -153Q372 -153 379.5 -153Q387 -153 392 -152ZM346 309 346 348Q346 374 342.5 399Q339 424 329.5 444.5Q320 465 303.5 477.5Q287 490 262 490Q235 490 214.5 476Q194 462 180 438Q166 414 157 381Q148 348 144 309Z" glyph-name="eogonek" horiz-adv-x="491" unicode="" /><glyph d="M222 923 229 923L357 845L485 923H492L360 764H354ZM411 6Q450 6 480 11.5Q510 17 533.5 29.5Q557 42 577 62.5Q597 83 617 112L682 208H686L666 0H18V3L44 7Q71 11 88 20.5Q105 30 114.5 43.5Q124 57 127.5 73Q131 89 131 106V594Q131 611 127.5 627Q124 643 114.5 656.5Q105 670 88 679.5Q71 689 44 693L18 697V700H638V502H634L586 587Q568 619 545 640Q522 661 492 673Q462 685 424.5 689.5Q387 694 339 694H253V364L305 365Q336 366 359.5 369Q383 372 402 383Q421 394 436 417Q451 440 464 481L475 515H478V208H475L464 242Q451 283 436 306Q421 329 402 340Q383 351 359.5 354Q336 357 305 358L253 359V106Q253 61 273.5 33.5Q294 6 350 6Z" glyph-name="Ecaron" horiz-adv-x="719" unicode="" /><glyph d="M111 700 118 700L246 622L374 700H381L249 541H243ZM34 238Q34 288 50 334Q66 380 96 415Q126 450 168 471.5Q210 493 262 493Q308 493 344 478.5Q380 464 405 439Q430 414 443.5 380.5Q457 347 457 310V305H144Q143 297 143 289.5Q143 282 143 278Q143 228 155 187Q167 146 190 117Q213 88 246 72Q279 56 320 56Q346 56 368.5 63.5Q391 71 409 83Q427 95 439.5 110Q452 125 458 140H462Q460 124 447.5 98Q435 72 410.5 47Q386 22 349.5 3.5Q313 -15 263 -15Q210 -15 167.5 3.5Q125 22 95.5 55.5Q66 89 50 135.5Q34 182 34 238ZM346 309 346 348Q346 374 342.5 399Q339 424 329.5 444.5Q320 465 303.5 477.5Q287 490 262 490Q235 490 214.5 476Q194 462 180 438Q166 414 157 381Q148 348 144 309Z" glyph-name="ecaron" horiz-adv-x="491" unicode="" /><glyph d="M537 764 530 764L402 842L274 764H267L399 923H405ZM481 -4Q558 -4 587 14Q616 32 616 58V198Q616 232 600.5 252Q585 272 534 277L486 281V284H815V281L788 277Q770 274 760 271Q750 268 745 260Q740 252 739 238Q738 224 738 199V61H794V55Q773 53 735.5 41.5Q698 30 651.5 17.5Q605 5 552 -5Q499 -15 446 -15Q345 -15 269 14.5Q193 44 142 93.5Q91 143 65 208Q39 273 39 343Q39 426 70.5 494Q102 562 157.5 611.5Q213 661 290 688Q367 715 458 715Q502 715 545.5 711.5Q589 708 627 702.5Q665 697 695.5 691.5Q726 686 742 683L743 492H739L720 529Q705 559 682 590.5Q659 622 627 648.5Q595 675 553 692Q511 709 458 709Q400 709 349 681.5Q298 654 260 606Q222 558 200.5 492Q179 426 179 349Q179 276 199 211.5Q219 147 257.5 99Q296 51 351.5 23.5Q407 -4 478 -4Z" glyph-name="Gcircumflex" horiz-adv-x="836" unicode="" /><glyph d="M368 554 361 554L233 632L105 554H98L230 713H236ZM448 413Q427 413 410 409Q430 377 430 340Q430 309 415.5 281Q401 253 375 232.5Q349 212 314 200Q279 188 238 188Q203 188 173.5 196Q144 204 120 218Q107 195 107 175Q107 150 122 130.5Q137 111 186 108L335 99Q408 95 451.5 67.5Q495 40 495 -25Q495 -62 476 -99.5Q457 -137 420.5 -167Q384 -197 331 -216Q278 -235 209 -235Q109 -235 56.5 -199.5Q4 -164 4 -113Q4 -93 14 -75.5Q24 -58 40 -44.5Q56 -31 76.5 -23Q97 -15 118 -13L120 -14Q99 -37 91.5 -62Q84 -87 84 -106Q84 -156 127 -186.5Q170 -217 255 -217Q288 -217 319 -209.5Q350 -202 373.5 -187Q397 -172 411 -149Q425 -126 425 -96Q425 -69 416 -52Q407 -35 389.5 -25Q372 -15 347.5 -10Q323 -5 293 -3L161 6Q108 10 72.5 35Q37 60 37 106Q37 124 44.5 141.5Q52 159 63.5 174Q75 189 89 201Q103 213 115 220Q83 242 64 273Q45 304 45 340Q45 372 59.5 400Q74 428 100 448.5Q126 469 161.5 481Q197 493 238 493Q293 493 337 471.5Q381 450 405 415Q412 427 423 440.5Q434 454 448.5 466Q463 478 481 485.5Q499 493 519 493Q524 493 535 492Q546 491 553 488V483Q553 467 548.5 439.5Q544 412 535 393Q487 413 448 413ZM238 489Q211 489 194.5 477.5Q178 466 169 445.5Q160 425 157.5 398Q155 371 155 340Q155 309 157.5 282Q160 255 169 235Q178 215 194.5 203.5Q211 192 238 192Q265 192 281.5 203.5Q298 215 306.5 235Q315 255 317.5 282Q320 309 320 340Q320 371 317.5 398Q315 425 306.5 445.5Q298 466 281.5 477.5Q265 489 238 489Z" glyph-name="gcircumflex" horiz-adv-x="539" unicode="" /><glyph d="M402 843Q463 843 498.5 860.5Q534 878 534 913V917H540V908Q540 853 505.5 814.5Q471 776 402 776Q333 776 298.5 814.5Q264 853 264 908V917H270V913Q270 878 305.5 860.5Q341 843 402 843ZM481 -4Q558 -4 587 14Q616 32 616 58V198Q616 232 600.5 252Q585 272 534 277L486 281V284H815V281L788 277Q770 274 760 271Q750 268 745 260Q740 252 739 238Q738 224 738 199V61H794V55Q773 53 735.5 41.5Q698 30 651.5 17.5Q605 5 552 -5Q499 -15 446 -15Q345 -15 269 14.5Q193 44 142 93.5Q91 143 65 208Q39 273 39 343Q39 426 70.5 494Q102 562 157.5 611.5Q213 661 290 688Q367 715 458 715Q502 715 545.5 711.5Q589 708 627 702.5Q665 697 695.5 691.5Q726 686 742 683L743 492H739L720 529Q705 559 682 590.5Q659 622 627 648.5Q595 675 553 692Q511 709 458 709Q400 709 349 681.5Q298 654 260 606Q222 558 200.5 492Q179 426 179 349Q179 276 199 211.5Q219 147 257.5 99Q296 51 351.5 23.5Q407 -4 478 -4Z" glyph-name="Gbreve" horiz-adv-x="836" unicode="" /><glyph d="M241 623Q302 623 337.5 640.5Q373 658 373 693V697H379V688Q379 633 344.5 594.5Q310 556 241 556Q172 556 137.5 594.5Q103 633 103 688V697H109V693Q109 658 144.5 640.5Q180 623 241 623ZM448 413Q427 413 410 409Q430 377 430 340Q430 309 415.5 281Q401 253 375 232.5Q349 212 314 200Q279 188 238 188Q203 188 173.5 196Q144 204 120 218Q107 195 107 175Q107 150 122 130.5Q137 111 186 108L335 99Q408 95 451.5 67.5Q495 40 495 -25Q495 -62 476 -99.5Q457 -137 420.5 -167Q384 -197 331 -216Q278 -235 209 -235Q109 -235 56.5 -199.5Q4 -164 4 -113Q4 -93 14 -75.5Q24 -58 40 -44.5Q56 -31 76.5 -23Q97 -15 118 -13L120 -14Q99 -37 91.5 -62Q84 -87 84 -106Q84 -156 127 -186.5Q170 -217 255 -217Q288 -217 319 -209.5Q350 -202 373.5 -187Q397 -172 411 -149Q425 -126 425 -96Q425 -69 416 -52Q407 -35 389.5 -25Q372 -15 347.5 -10Q323 -5 293 -3L161 6Q108 10 72.5 35Q37 60 37 106Q37 124 44.5 141.5Q52 159 63.5 174Q75 189 89 201Q103 213 115 220Q83 242 64 273Q45 304 45 340Q45 372 59.5 400Q74 428 100 448.5Q126 469 161.5 481Q197 493 238 493Q293 493 337 471.5Q381 450 405 415Q412 427 423 440.5Q434 454 448.5 466Q463 478 481 485.5Q499 493 519 493Q524 493 535 492Q546 491 553 488V483Q553 467 548.5 439.5Q544 412 535 393Q487 413 448 413ZM238 489Q211 489 194.5 477.5Q178 466 169 445.5Q160 425 157.5 398Q155 371 155 340Q155 309 157.5 282Q160 255 169 235Q178 215 194.5 203.5Q211 192 238 192Q265 192 281.5 203.5Q298 215 306.5 235Q315 255 317.5 282Q320 309 320 340Q320 371 317.5 398Q315 425 306.5 445.5Q298 466 281.5 477.5Q265 489 238 489Z" glyph-name="gbreve" horiz-adv-x="539" unicode="" /><glyph d="M402 774Q375 774 356 793Q337 812 337 838Q337 864 356 883Q375 902 402 902Q428 902 447 883Q466 864 466 838Q466 812 447 793Q428 774 402 774ZM481 -4Q558 -4 587 14Q616 32 616 58V198Q616 232 600.5 252Q585 272 534 277L486 281V284H815V281L788 277Q770 274 760 271Q750 268 745 260Q740 252 739 238Q738 224 738 199V61H794V55Q773 53 735.5 41.5Q698 30 651.5 17.5Q605 5 552 -5Q499 -15 446 -15Q345 -15 269 14.5Q193 44 142 93.5Q91 143 65 208Q39 273 39 343Q39 426 70.5 494Q102 562 157.5 611.5Q213 661 290 688Q367 715 458 715Q502 715 545.5 711.5Q589 708 627 702.5Q665 697 695.5 691.5Q726 686 742 683L743 492H739L720 529Q705 559 682 590.5Q659 622 627 648.5Q595 675 553 692Q511 709 458 709Q400 709 349 681.5Q298 654 260 606Q222 558 200.5 492Q179 426 179 349Q179 276 199 211.5Q219 147 257.5 99Q296 51 351.5 23.5Q407 -4 478 -4Z" glyph-name="Gdotaccent" horiz-adv-x="836" unicode="" /><glyph d="M263 551Q236 551 217 570Q198 589 198 615Q198 641 217 660Q236 679 263 679Q289 679 308 660Q327 641 327 615Q327 589 308 570Q289 551 263 551ZM448 413Q427 413 410 409Q430 377 430 340Q430 309 415.5 281Q401 253 375 232.5Q349 212 314 200Q279 188 238 188Q203 188 173.5 196Q144 204 120 218Q107 195 107 175Q107 150 122 130.5Q137 111 186 108L335 99Q408 95 451.5 67.5Q495 40 495 -25Q495 -62 476 -99.5Q457 -137 420.5 -167Q384 -197 331 -216Q278 -235 209 -235Q109 -235 56.5 -199.5Q4 -164 4 -113Q4 -93 14 -75.5Q24 -58 40 -44.5Q56 -31 76.5 -23Q97 -15 118 -13L120 -14Q99 -37 91.5 -62Q84 -87 84 -106Q84 -156 127 -186.5Q170 -217 255 -217Q288 -217 319 -209.5Q350 -202 373.5 -187Q397 -172 411 -149Q425 -126 425 -96Q425 -69 416 -52Q407 -35 389.5 -25Q372 -15 347.5 -10Q323 -5 293 -3L161 6Q108 10 72.5 35Q37 60 37 106Q37 124 44.5 141.5Q52 159 63.5 174Q75 189 89 201Q103 213 115 220Q83 242 64 273Q45 304 45 340Q45 372 59.5 400Q74 428 100 448.5Q126 469 161.5 481Q197 493 238 493Q293 493 337 471.5Q381 450 405 415Q412 427 423 440.5Q434 454 448.5 466Q463 478 481 485.5Q499 493 519 493Q524 493 535 492Q546 491 553 488V483Q553 467 548.5 439.5Q544 412 535 393Q487 413 448 413ZM238 489Q211 489 194.5 477.5Q178 466 169 445.5Q160 425 157.5 398Q155 371 155 340Q155 309 157.5 282Q160 255 169 235Q178 215 194.5 203.5Q211 192 238 192Q265 192 281.5 203.5Q298 215 306.5 235Q315 255 317.5 282Q320 309 320 340Q320 371 317.5 398Q315 425 306.5 445.5Q298 466 281.5 477.5Q265 489 238 489Z" glyph-name="gdotaccent" horiz-adv-x="539" unicode="" /><glyph d="M481 -4Q558 -4 587 14Q616 32 616 58V198Q616 232 600.5 252Q585 272 534 277L486 281V284H815V281L788 277Q770 274 760 271Q750 268 745 260Q740 252 739 238Q738 224 738 199V61H794V55Q773 53 735.5 41.5Q698 30 651.5 17.5Q605 5 552 -5Q499 -15 446 -15Q345 -15 269 14.5Q193 44 142 93.5Q91 143 65 208Q39 273 39 343Q39 426 70.5 494Q102 562 157.5 611.5Q213 661 290 688Q367 715 458 715Q502 715 545.5 711.5Q589 708 627 702.5Q665 697 695.5 691.5Q726 686 742 683L743 492H739L720 529Q705 559 682 590.5Q659 622 627 648.5Q595 675 553 692Q511 709 458 709Q400 709 349 681.5Q298 654 260 606Q222 558 200.5 492Q179 426 179 349Q179 276 199 211.5Q219 147 257.5 99Q296 51 351.5 23.5Q407 -4 478 -4ZM340 -270Q403 -268 439 -232.5Q475 -197 477 -148Q477 -131 472 -118Q470 -114 466.5 -112Q463 -110 459 -118Q451 -135 436.5 -149.5Q422 -164 397 -164Q365 -164 348.5 -145Q332 -126 332 -103Q332 -79 349.5 -60Q367 -41 400 -41Q417 -41 432.5 -49.5Q448 -58 459.5 -72Q471 -86 477.5 -105Q484 -124 484 -145Q484 -199 444 -236Q404 -273 340 -275Z" glyph-name="Gcommaaccent" horiz-adv-x="836" unicode="" /><glyph d="M290 763Q232 761 198 728Q164 695 162 649Q162 641 163 633.5Q164 626 166 621Q168 617 171.5 615.5Q175 614 178 621Q186 638 200 651Q214 664 237 664Q266 664 281 646.5Q296 629 296 608Q296 585 280 567Q264 549 234 549Q201 549 178 578Q155 607 155 646Q155 697 192.5 731.5Q230 766 290 768ZM448 413Q427 413 410 409Q430 377 430 340Q430 309 415.5 281Q401 253 375 232.5Q349 212 314 200Q279 188 238 188Q203 188 173.5 196Q144 204 120 218Q107 195 107 175Q107 150 122 130.5Q137 111 186 108L335 99Q408 95 451.5 67.5Q495 40 495 -25Q495 -58 476 -95Q457 -132 420.5 -163Q384 -194 331 -214.5Q278 -235 209 -235Q109 -235 56.5 -199.5Q4 -164 4 -113Q4 -93 14 -75.5Q24 -58 40 -44.5Q56 -31 76.5 -23Q97 -15 118 -13L120 -14Q99 -37 91.5 -62Q84 -87 84 -106Q84 -156 127 -186Q170 -216 255 -216Q288 -216 319 -208.5Q350 -201 373.5 -186Q397 -171 411 -148.5Q425 -126 425 -96Q425 -69 416 -52Q407 -35 389.5 -25Q372 -15 347.5 -10Q323 -5 293 -3L161 6Q108 10 72.5 35Q37 60 37 106Q37 124 44.5 141.5Q52 159 63.5 174Q75 189 89 201Q103 213 115 220Q83 242 64 273Q45 304 45 340Q45 372 59.5 400Q74 428 100 448.5Q126 469 161.5 481Q197 493 238 493Q293 493 337 471.5Q381 450 405 415Q412 427 423 440.5Q434 454 448.5 466Q463 478 481 485.5Q499 493 519 493Q524 493 535 492Q546 491 553 488V483Q553 467 548.5 439.5Q544 412 535 393Q487 413 448 413ZM238 489Q211 489 194.5 477.5Q178 466 169 445.5Q160 425 157.5 398Q155 371 155 340Q155 309 157.5 282Q160 255 169 235Q178 215 194.5 203.5Q211 192 238 192Q265 192 281.5 203.5Q298 215 306.5 235Q315 255 317.5 282Q320 309 320 340Q320 371 317.5 398Q315 425 306.5 445.5Q298 466 281.5 477.5Q265 489 238 489Z" glyph-name="gcommaaccent" horiz-adv-x="539" unicode="" /><glyph d="M566 764 559 764L431 842L303 764H296L428 923H434ZM522 7Q549 11 566 20.5Q583 30 592.5 43.5Q602 57 605.5 73Q609 89 609 106V367H253V106Q253 89 256.5 73Q260 57 269.5 43.5Q279 30 296 20.5Q313 11 340 7L366 3V0H18V3L44 7Q71 11 88 20.5Q105 30 114.5 43.5Q124 57 127.5 73Q131 89 131 106V594Q131 611 127.5 627Q124 643 114.5 656.5Q105 670 88 679.5Q71 689 44 693L18 697V700H366V697L340 693Q313 689 296 679.5Q279 670 269.5 656.5Q260 643 256.5 627Q253 611 253 594V374H609V594Q609 611 605.5 627Q602 643 592.5 656.5Q583 670 566 679.5Q549 689 522 693L496 697V700H844V697L818 693Q791 689 774 679.5Q757 670 747.5 656.5Q738 643 734.5 627Q731 611 731 594V106Q731 89 734.5 73Q738 57 747.5 43.5Q757 30 774 20.5Q791 11 818 7L844 3V0H496V3Z" glyph-name="Hcircumflex" horiz-adv-x="862" unicode="" /><glyph d="M417 814 410 814L282 892L154 814H147L279 973H285ZM487 54Q487 37 499.5 25.5Q512 14 534 9L559 3V0H318V3L333 8Q353 15 366.5 25Q380 35 380 54V330Q380 363 371 384Q362 405 348 416Q334 427 317.5 431Q301 435 286 435Q258 435 230.5 421Q203 407 185 389V54Q185 37 198 25.5Q211 14 232 9L258 3V0H16V3L31 8Q51 15 64.5 25Q78 35 78 54V690L2 721V724Q55 732 95.5 742Q136 752 185 766H187Q186 750 186 721Q186 694 185.5 654Q185 614 185 552V393Q193 405 207.5 422.5Q222 440 243.5 455.5Q265 471 292.5 482Q320 493 353 493Q371 493 394 487.5Q417 482 438 467Q459 452 473 425Q487 398 487 354Z" glyph-name="hcircumflex" horiz-adv-x="566" unicode="" /><glyph d="M522 7Q549 11 566 20.5Q583 30 592.5 43.5Q602 57 605.5 73Q609 89 609 106V367H253V106Q253 89 256.5 73Q260 57 269.5 43.5Q279 30 296 20.5Q313 11 340 7L366 3V0H18V3L44 7Q71 11 88 20.5Q105 30 114.5 43.5Q124 57 127.5 73Q131 89 131 106V541H43V548H131V594Q131 611 127.5 627Q124 643 114.5 656.5Q105 670 88 679.5Q71 689 44 693L18 697V700H366V697L340 693Q313 689 296 679.5Q279 670 269.5 656.5Q260 643 256.5 627Q253 611 253 594V548H609V594Q609 611 605.5 627Q602 643 592.5 656.5Q583 670 566 679.5Q549 689 522 693L496 697V700H844V697L818 693Q791 689 774 679.5Q757 670 747.5 656.5Q738 643 734.5 627Q731 611 731 594V548H818V541H731V106Q731 89 734.5 73Q738 57 747.5 43.5Q757 30 774 20.5Q791 11 818 7L844 3V0H496V3ZM609 374 609 541H253V374Z" glyph-name="Hbar" horiz-adv-x="862" unicode="" /><glyph d="M258 0 16 0V3L31 8Q51 15 64.5 25Q78 35 78 54V588H3V595H78V690L2 721V724Q55 732 95.5 742Q136 752 185 766H187Q186 753 186 729Q186 708 185.5 676Q185 644 185 595H308V588H185V552V393Q193 405 207.5 422.5Q222 440 243.5 455.5Q265 471 292.5 482Q320 493 353 493Q371 493 394 487.5Q417 482 438 467Q459 452 473 425Q487 398 487 354V54Q487 37 499.5 25.5Q512 14 534 9L559 3V0H318V3L333 8Q353 15 366.5 25Q380 35 380 54V330Q380 363 371 384Q362 405 348 416Q334 427 317.5 431Q301 435 286 435Q258 435 230.5 421Q203 407 185 389V54Q185 37 198 25.5Q211 14 232 9L258 3Z" glyph-name="hbar" horiz-adv-x="566" unicode="" /><glyph d="M49 794Q50 834 71.5 862.5Q93 891 135 891Q153 891 169.5 885.5Q186 880 202.5 873Q219 866 236 860.5Q253 855 271 855Q300 855 313 870.5Q326 886 329 900H335Q334 860 312.5 831.5Q291 803 249 803Q231 803 214.5 808.5Q198 814 181.5 821Q165 828 148 833.5Q131 839 113 839Q84 839 71 823.5Q58 808 55 794ZM44 7Q71 11 88 20.5Q105 30 114.5 43.5Q124 57 127.5 73Q131 89 131 106V594Q131 611 127.5 627Q124 643 114.5 656.5Q105 670 88 679.5Q71 689 44 693L18 697V700H366V697L340 693Q313 689 296 679.5Q279 670 269.5 656.5Q260 643 256.5 627Q253 611 253 594V106Q253 89 256.5 73Q260 57 269.5 43.5Q279 30 296 20.5Q313 11 340 7L366 3V0H18V3Z" glyph-name="Itilde" horiz-adv-x="384" unicode="" /><glyph d="M-4 571Q-3 611 18.5 639.5Q40 668 82 668Q100 668 116.5 662.5Q133 657 149.5 650Q166 643 183 637.5Q200 632 218 632Q247 632 260 647.5Q273 663 276 677H282Q281 637 259.5 608.5Q238 580 196 580Q178 580 161.5 585.5Q145 591 128.5 598Q112 605 95 610.5Q78 616 60 616Q31 616 18 600.5Q5 585 2 571ZM197 53Q197 34 210.5 23Q224 12 244 7L259 3V0H28V3L42 7Q63 13 76.5 23.5Q90 34 90 53V417L14 448V451Q67 459 107.5 469Q148 479 197 493H199Q198 477 198 448Q198 421 197.5 381Q197 341 197 279Z" glyph-name="itilde" horiz-adv-x="276" unicode="" /><glyph d="M59 807 59 847H324V807ZM44 7Q71 11 88 20.5Q105 30 114.5 43.5Q124 57 127.5 73Q131 89 131 106V594Q131 611 127.5 627Q124 643 114.5 656.5Q105 670 88 679.5Q71 689 44 693L18 697V700H366V697L340 693Q313 689 296 679.5Q279 670 269.5 656.5Q260 643 256.5 627Q253 611 253 594V106Q253 89 256.5 73Q260 57 269.5 43.5Q279 30 296 20.5Q313 11 340 7L366 3V0H18V3Z" glyph-name="Imacron" horiz-adv-x="384" unicode="" /><glyph d="M6 584 6 624H271V584ZM197 53Q197 34 210.5 23Q224 12 244 7L259 3V0H28V3L42 7Q63 13 76.5 23.5Q90 34 90 53V417L14 448V451Q67 459 107.5 469Q148 479 197 493H199Q198 477 198 448Q198 421 197.5 381Q197 341 197 279Z" glyph-name="imacron" horiz-adv-x="276" unicode="" /><glyph d="M192 843Q253 843 288.5 860.5Q324 878 324 913V917H330V908Q330 853 295.5 814.5Q261 776 192 776Q123 776 88.5 814.5Q54 853 54 908V917H60V913Q60 878 95.5 860.5Q131 843 192 843ZM44 7Q71 11 88 20.5Q105 30 114.5 43.5Q124 57 127.5 73Q131 89 131 106V594Q131 611 127.5 627Q124 643 114.5 656.5Q105 670 88 679.5Q71 689 44 693L18 697V700H366V697L340 693Q313 689 296 679.5Q279 670 269.5 656.5Q260 643 256.5 627Q253 611 253 594V106Q253 89 256.5 73Q260 57 269.5 43.5Q279 30 296 20.5Q313 11 340 7L366 3V0H18V3Z" glyph-name="Ibreve" horiz-adv-x="384" unicode="" /><glyph d="M139 620Q200 620 235.5 637.5Q271 655 271 690V694H277V685Q277 630 242.5 591.5Q208 553 139 553Q70 553 35.5 591.5Q1 630 1 685V694H7V690Q7 655 42.5 637.5Q78 620 139 620ZM197 53Q197 34 210.5 23Q224 12 244 7L259 3V0H28V3L42 7Q63 13 76.5 23.5Q90 34 90 53V417L14 448V451Q67 459 107.5 469Q148 479 197 493H199Q198 477 198 448Q198 421 197.5 381Q197 341 197 279Z" glyph-name="ibreve" horiz-adv-x="276" unicode="" /><glyph d="M244 -195Q226 -195 209 -190.5Q192 -186 178.5 -177Q165 -168 157 -154.5Q149 -141 149 -122Q149 -98 176.5 -66Q204 -34 278 0H18V3L44 7Q71 11 88 20.5Q105 30 114.5 43.5Q124 57 127.5 73Q131 89 131 106V594Q131 611 127.5 627Q124 643 114.5 656.5Q105 670 88 679.5Q71 689 44 693L18 697V700H366V697L340 693Q313 689 296 679.5Q279 670 269.5 656.5Q260 643 256.5 627Q253 611 253 594V106Q253 89 256.5 73Q260 57 269.5 43.5Q279 30 296 20.5Q313 11 340 7L366 3V0H283Q258 -23 246.5 -52.5Q235 -82 235 -108Q235 -140 255.5 -156.5Q276 -173 311 -173Q316 -173 323.5 -173Q331 -173 336 -172V-176Q322 -182 297 -188.5Q272 -195 244 -195Z" glyph-name="Iogonek" horiz-adv-x="384" unicode="" /><glyph d="M141 609Q114 609 95.5 627Q77 645 77 672Q77 698 95.5 716.5Q114 735 141 735Q168 735 186.5 716.5Q205 698 205 672Q205 645 186.5 627Q168 609 141 609ZM204 -176Q190 -182 165 -188.5Q140 -195 112 -195Q84 -195 65 -182Q46 -169 46 -144Q46 -118 78.5 -81.5Q111 -45 178 0H28V3L42 7Q63 13 76.5 23.5Q90 34 90 53V417L14 448V451Q67 459 107.5 469Q148 479 197 493H199Q198 477 198 448Q198 421 197.5 381Q197 341 197 279V53Q197 34 210.5 23Q224 12 244 7L259 3V0H181Q163 -31 144.5 -64.5Q126 -98 126 -124Q126 -146 138 -159.5Q150 -173 179 -173Q184 -173 191.5 -173Q199 -173 204 -172Z" glyph-name="iogonek" horiz-adv-x="276" unicode="" /><glyph d="M192 774Q165 774 146 793Q127 812 127 838Q127 864 146 883Q165 902 192 902Q218 902 237 883Q256 864 256 838Q256 812 237 793Q218 774 192 774ZM44 7Q71 11 88 20.5Q105 30 114.5 43.5Q124 57 127.5 73Q131 89 131 106V594Q131 611 127.5 627Q124 643 114.5 656.5Q105 670 88 679.5Q71 689 44 693L18 697V700H366V697L340 693Q313 689 296 679.5Q279 670 269.5 656.5Q260 643 256.5 627Q253 611 253 594V106Q253 89 256.5 73Q260 57 269.5 43.5Q279 30 296 20.5Q313 11 340 7L366 3V0H18V3Z" glyph-name="Idotaccent" horiz-adv-x="384" unicode="" /><glyph d="M197 53Q197 34 210.5 23Q224 12 244 7L259 3V0H28V3L42 7Q63 13 76.5 23.5Q90 34 90 53V417L14 448V451Q67 459 107.5 469Q148 479 197 493H199Q198 477 198 448Q198 421 197.5 381Q197 341 197 279Z" glyph-name="dotlessi" horiz-adv-x="276" unicode="" /><glyph d="M44 7Q71 11 88 20.5Q105 30 114.5 43.5Q124 57 127.5 73Q131 89 131 106V594Q131 611 127.5 627Q124 643 114.5 656.5Q105 670 88 679.5Q71 689 44 693L18 697V700H366V697L340 693Q313 689 296 679.5Q279 670 269.5 656.5Q260 643 256.5 627Q253 611 253 594V106Q253 89 256.5 73Q260 57 269.5 43.5Q279 30 296 20.5Q313 11 340 7L366 3V0H18V3ZM516 594Q516 611 512.5 627Q509 643 499.5 656.5Q490 670 473 679.5Q456 689 429 693L403 697V700H731V697L705 693Q662 686 650 660.5Q638 635 638 594V19Q638 -22 624.5 -51Q611 -80 589 -98.5Q567 -117 539 -126Q511 -135 482 -135Q440 -135 407.5 -120.5Q375 -106 358 -92L360 -88Q375 -96 391.5 -98.5Q408 -101 421 -101Q440 -101 457.5 -96Q475 -91 488 -77.5Q501 -64 508.5 -41Q516 -18 516 18Z" glyph-name="IJ" horiz-adv-x="757" unicode="" /><glyph d="M421 582Q392 582 373 601Q354 620 354 649Q354 677 373 696Q392 715 421 715Q450 715 469 696Q488 677 488 649Q488 620 469 601Q450 582 421 582ZM141 582Q112 582 93 601Q74 620 74 649Q74 677 93 696Q112 715 141 715Q170 715 189 696Q208 677 208 649Q208 620 189 601Q170 582 141 582ZM478 -54Q478 -101 465 -135Q452 -169 430.5 -191.5Q409 -214 382.5 -224.5Q356 -235 329 -235Q302 -235 272 -225.5Q242 -216 223 -197L225 -193Q252 -206 277 -206Q316 -206 343.5 -176Q371 -146 371 -98V417L295 448V451Q348 459 388.5 469Q429 479 478 493H480Q479 477 479 448Q479 421 478.5 381Q478 341 478 279ZM197 53Q197 34 210.5 23Q224 12 244 7L259 3V0H28V3L42 7Q63 13 76.5 23.5Q90 34 90 53V417L14 448V451Q67 459 107.5 469Q148 479 197 493H199Q198 477 198 448Q198 421 197.5 381Q197 341 197 279Z" glyph-name="ij" horiz-adv-x="546" unicode="" /><glyph d="M321 764 314 764L186 842L58 764H51L183 923H189ZM128 594Q128 611 124.5 627Q121 643 111.5 656.5Q102 670 85 679.5Q68 689 41 693L15 697V700H343V697L317 693Q274 686 262 660.5Q250 635 250 594V19Q250 -22 236.5 -51Q223 -80 200.5 -98.5Q178 -117 149.5 -126Q121 -135 90 -135Q52 -135 19.5 -120.5Q-13 -106 -30 -92L-28 -88Q-13 -96 3.5 -98.5Q20 -101 33 -101Q52 -101 69.5 -96Q87 -91 100 -77.5Q113 -64 120.5 -41Q128 -18 128 18Z" glyph-name="Jcircumflex" horiz-adv-x="369" unicode="" /><glyph d="M267 541 260 541L132 619L4 541H-3L129 700H135ZM192 -54Q192 -101 180.5 -134.5Q169 -168 148.5 -190Q128 -212 101 -222Q74 -232 43 -232Q16 -232 -15 -224Q-46 -216 -65 -197L-61 -193Q-34 -206 -9 -206Q30 -206 57.5 -181Q85 -156 85 -108V417L9 448V451Q62 459 102.5 469Q143 479 192 493H194Q193 477 193 448Q193 421 192.5 381Q192 341 192 279Z" glyph-name="jcircumflex" horiz-adv-x="260" unicode="" /><glyph d="M508 539Q549 577 562.5 604Q576 631 571 648.5Q566 666 546 675.5Q526 685 500 689L448 697V700H746V697L735 694Q721 690 700 678Q679 666 653.5 647.5Q628 629 599 605.5Q570 582 540 555L390 420L567 191Q603 144 631 111.5Q659 79 681.5 58Q704 37 723 25.5Q742 14 762 8L779 3V0Q729 -9 693 -12Q657 -15 628 -12Q596 -9 573.5 2Q551 13 532.5 31Q514 49 496.5 73Q479 97 457 127L283 361H253V106Q253 89 255 73Q257 57 265 43.5Q273 30 289 20.5Q305 11 332 7L358 3V0H18V3L44 7Q71 11 88 20.5Q105 30 114.5 43.5Q124 57 127.5 73Q131 89 131 106V594Q131 611 127.5 627Q124 643 114.5 656.5Q105 670 88 679.5Q71 689 44 693L18 697V700H366V697L340 693Q313 689 296 679.5Q279 670 269.5 656.5Q260 643 256.5 627Q253 611 253 594V368H260Q276 368 290 369.5Q304 371 318.5 377Q333 383 350 395Q367 407 390 428ZM317 -270Q380 -268 416 -232.5Q452 -197 454 -148Q454 -131 449 -118Q447 -114 443.5 -112Q440 -110 436 -118Q428 -135 413.5 -149.5Q399 -164 374 -164Q342 -164 325.5 -145Q309 -126 309 -103Q309 -79 326.5 -60Q344 -41 377 -41Q394 -41 409.5 -49.5Q425 -58 436.5 -72Q448 -86 454.5 -105Q461 -124 461 -145Q461 -199 421 -236Q381 -273 317 -275Z" glyph-name="Kcommaaccent" horiz-adv-x="761" unicode="" /><glyph d="M276 320 430 115Q452 86 468.5 66.5Q485 47 498.5 35Q512 23 523 16.5Q534 10 543 7L555 3V0H445Q426 0 411.5 3Q397 6 381 17Q365 28 346 51Q327 74 300 113L196 264H185V54Q185 33 197 23.5Q209 14 232 9L258 3V0H16V3L31 8Q54 15 66 24Q78 33 78 54V690L2 721V724Q55 732 95.5 742Q136 752 185 766H187Q186 750 186 721Q186 694 185.5 654Q185 614 185 552V268H209L310 355Q366 402 366 433Q366 463 322 469L288 474V477H518V474L506 471Q486 466 452.5 450.5Q419 435 370 396ZM206 -270Q269 -268 305 -232.5Q341 -197 343 -148Q343 -131 338 -118Q336 -114 332.5 -112Q329 -110 325 -118Q317 -135 302.5 -149.5Q288 -164 263 -164Q231 -164 214.5 -145Q198 -126 198 -103Q198 -79 215.5 -60Q233 -41 266 -41Q283 -41 298.5 -49.5Q314 -58 325.5 -72Q337 -86 343.5 -105Q350 -124 350 -145Q350 -199 310 -236Q270 -273 206 -275Z" glyph-name="kcommaaccent" horiz-adv-x="535" unicode="" /><glyph d="M185 54Q185 33 197 23.5Q209 14 232 9L258 3V0H16V3L31 8Q54 15 66 24Q78 33 78 54V423Q78 444 66 453Q54 462 31 469L16 474V477H258V474L232 468Q209 463 197 453.5Q185 444 185 423V228H233L339 342Q369 374 379.5 396.5Q390 419 385 434.5Q380 450 360.5 459Q341 468 311 471L283 474V477H545V474L533 471Q491 460 451 434.5Q411 409 388 384L311 304L444 104Q465 75 479.5 58Q494 41 505 31Q516 21 526 16.5Q536 12 549 7L564 3V0H446Q426 0 410.5 1.5Q395 3 379.5 13.5Q364 24 346.5 46.5Q329 69 304 111L229 224H185Z" glyph-name="kgreenlandic" horiz-adv-x="550" unicode="" /><glyph d="M348 923 192 764H188L233 923ZM131 594Q131 611 127.5 627Q124 643 114.5 656.5Q105 670 88 679.5Q71 689 44 693L18 697V700H366V697L340 693Q313 689 296 679.5Q279 670 269.5 656.5Q260 643 256.5 627Q253 611 253 594V106Q253 61 273.5 33.5Q294 6 350 6H382Q426 6 459.5 13Q493 20 519.5 34Q546 48 566.5 70Q587 92 606 122L660 208H664L646 0H18V3L44 7Q71 11 88 20.5Q105 30 114.5 43.5Q124 57 127.5 73Q131 89 131 106Z" glyph-name="Lacute" horiz-adv-x="679" unicode="" /><glyph d="M298 973 142 814H138L183 973ZM186 53Q186 34 199.5 23Q213 12 233 7L248 3V0H17V3L31 7Q52 13 65.5 23.5Q79 34 79 53V690L3 721V724Q56 732 96.5 742Q137 752 186 766H188Q187 750 187 721Q187 694 186.5 654Q186 614 186 552Z" glyph-name="lacute" horiz-adv-x="265" unicode="" /><glyph d="M131 594Q131 611 127.5 627Q124 643 114.5 656.5Q105 670 88 679.5Q71 689 44 693L18 697V700H366V697L340 693Q313 689 296 679.5Q279 670 269.5 656.5Q260 643 256.5 627Q253 611 253 594V106Q253 61 273.5 33.5Q294 6 350 6H382Q426 6 459.5 13Q493 20 519.5 34Q546 48 566.5 70Q587 92 606 122L660 208H664L646 0H18V3L44 7Q71 11 88 20.5Q105 30 114.5 43.5Q124 57 127.5 73Q131 89 131 106ZM271 -270Q334 -268 370 -232.5Q406 -197 408 -148Q408 -131 403 -118Q401 -114 397.5 -112Q394 -110 390 -118Q382 -135 367.5 -149.5Q353 -164 328 -164Q296 -164 279.5 -145Q263 -126 263 -103Q263 -79 280.5 -60Q298 -41 331 -41Q348 -41 363.5 -49.5Q379 -58 390.5 -72Q402 -86 408.5 -105Q415 -124 415 -145Q415 -199 375 -236Q335 -273 271 -275Z" glyph-name="Lcommaaccent" horiz-adv-x="679" unicode="" /><glyph d="M186 53Q186 34 199.5 23Q213 12 233 7L248 3V0H17V3L31 7Q52 13 65.5 23.5Q79 34 79 53V690L3 721V724Q56 732 96.5 742Q137 752 186 766H188Q187 750 187 721Q187 694 186.5 654Q186 614 186 552ZM71 -270Q134 -268 170 -232.5Q206 -197 208 -148Q208 -131 203 -118Q201 -114 197.5 -112Q194 -110 190 -118Q182 -135 167.5 -149.5Q153 -164 128 -164Q96 -164 79.5 -145Q63 -126 63 -103Q63 -79 80.5 -60Q98 -41 131 -41Q148 -41 163.5 -49.5Q179 -58 190.5 -72Q202 -86 208.5 -105Q215 -124 215 -145Q215 -199 175 -236Q135 -273 71 -275Z" glyph-name="lcommaaccent" horiz-adv-x="265" unicode="" /><glyph d="M450 467Q484 468 511 479Q538 490 557.5 507.5Q577 525 587.5 548.5Q598 572 599 599Q599 618 594 631Q592 636 588 637.5Q584 639 580 631Q572 612 555.5 596.5Q539 581 512 581Q478 581 460.5 601.5Q443 622 443 647Q443 673 461.5 694Q480 715 515 715Q534 715 551 706Q568 697 580.5 681.5Q593 666 600 645.5Q607 625 607 602Q607 573 595.5 547.5Q584 522 563.5 503.5Q543 485 514 473.5Q485 462 450 461ZM131 594Q131 611 127.5 627Q124 643 114.5 656.5Q105 670 88 679.5Q71 689 44 693L18 697V700H366V697L340 693Q313 689 296 679.5Q279 670 269.5 656.5Q260 643 256.5 627Q253 611 253 594V106Q253 61 273.5 33.5Q294 6 350 6H382Q426 6 459.5 13Q493 20 519.5 34Q546 48 566.5 70Q587 92 606 122L660 208H664L646 0H18V3L44 7Q71 11 88 20.5Q105 30 114.5 43.5Q124 57 127.5 73Q131 89 131 106Z" glyph-name="Lcaron" horiz-adv-x="681" unicode="" /><glyph d="M186 53Q186 34 199.5 23Q213 12 233 7L248 3V0H17V3L31 7Q52 13 65.5 23.5Q79 34 79 53V690L3 721V724Q56 732 96.5 742Q137 752 186 766H188Q187 750 187 721Q187 694 186.5 654Q186 614 186 552ZM253 468Q316 470 352 505.5Q388 541 390 590Q390 607 385 620Q383 624 379.5 626Q376 628 372 620Q364 603 349.5 588.5Q335 574 310 574Q278 574 261.5 593Q245 612 245 635Q245 659 262.5 678Q280 697 313 697Q330 697 345.5 688.5Q361 680 372.5 666Q384 652 390.5 633Q397 614 397 593Q397 539 357 502Q317 465 253 463Z" glyph-name="lcaron" horiz-adv-x="308" unicode="" /><glyph d="M131 594Q131 611 127.5 627Q124 643 114.5 656.5Q105 670 88 679.5Q71 689 44 693L18 697V700H366V697L340 693Q313 689 296 679.5Q279 670 269.5 656.5Q260 643 256.5 627Q253 611 253 594V106Q253 61 273.5 33.5Q294 6 350 6H382Q426 6 459.5 13Q493 20 519.5 34Q546 48 566.5 70Q587 92 606 122L660 208H664L646 0H18V3L44 7Q71 11 88 20.5Q105 30 114.5 43.5Q124 57 127.5 73Q131 89 131 106ZM456 286Q424 286 401 309Q378 332 378 364Q378 397 401 420Q424 443 456 443Q489 443 512 420Q535 397 535 364Q535 332 512 309Q489 286 456 286Z" glyph-name="Ldot" horiz-adv-x="679" unicode="" /><glyph d="M186 53Q186 34 199.5 23Q213 12 233 7L248 3V0H17V3L31 7Q52 13 65.5 23.5Q79 34 79 53V670L3 701V704Q56 712 96.5 722Q137 732 186 746H188Q187 730 187 701Q187 674 186.5 634Q186 594 186 532ZM330 291Q301 291 280.5 311.5Q260 332 260 361Q260 390 280.5 411Q301 432 330 432Q359 432 380 411Q401 390 401 361Q401 332 380 311.5Q359 291 330 291Z" glyph-name="ldot" horiz-adv-x="396" unicode="" /><glyph d="M646 0 18 0V3L44 7Q71 11 88 20.5Q105 30 114.5 43.5Q124 57 127.5 73Q131 89 131 106V286L42 260V266L131 292V594Q131 611 127.5 627Q124 643 114.5 656.5Q105 670 88 679.5Q71 689 44 693L18 697V700H366V697L340 693Q313 689 296 679.5Q279 670 269.5 656.5Q260 643 256.5 627Q253 611 253 594V328L452 386V380L253 322V106Q253 61 273.5 33.5Q294 6 350 6H382Q426 6 459.5 13Q493 20 519.5 34Q546 48 566.5 70Q587 92 606 122L660 208H664Z" glyph-name="Lslash" horiz-adv-x="679" unicode="" /><glyph d="M190 334 238 348V339L190 325V53Q190 34 203.5 23Q217 12 237 7L252 3V0H21V3L35 7Q56 13 69.5 23.5Q83 34 83 53V293L39 280V289L83 302V670L7 701V704Q60 712 100.5 722Q141 732 190 746H192Q191 730 191 701Q191 674 190.5 634Q190 594 190 532Z" glyph-name="lslash" horiz-adv-x="276" unicode="" /><glyph d="M581 923 425 764H421L466 923ZM694 -15 162 585L166 213Q167 150 176.5 112Q186 74 202.5 53Q219 32 240.5 22.5Q262 13 286 7L302 3V0H19V3L35 7Q59 13 80 22.5Q101 32 117 53Q133 74 143.5 112Q154 150 155 213V589L143 602Q103 646 70.5 668.5Q38 691 -6 697V700H250Q260 683 272.5 665.5Q285 648 302 626.5Q319 605 342.5 578.5Q366 552 397 516L693 178L690 487Q689 550 679 588Q669 626 652.5 647Q636 668 615 677.5Q594 687 570 693L554 697V700H837V697L821 693Q797 687 775.5 677.5Q754 668 737.5 647Q721 626 711 588Q701 550 701 487V-15Z" glyph-name="Nacute" horiz-adv-x="839" unicode="" /><glyph d="M452 700 296 541H292L337 700ZM391 330Q391 363 382 384Q373 405 359 416Q345 427 328.5 431Q312 435 297 435Q269 435 241.5 421Q214 407 196 389V53Q196 36 209 25Q222 14 243 9L269 3V0H27V3L42 8Q62 15 75.5 24.5Q89 34 89 53V417L13 448V451Q66 459 106.5 469Q147 479 196 493H198L196 393Q204 405 218.5 422.5Q233 440 254.5 455.5Q276 471 303.5 482Q331 493 364 493Q382 493 405 487.5Q428 482 449 467Q470 452 484 425Q498 398 498 354V53Q498 36 511 25Q524 14 545 9L571 3V0H329V3L344 8Q364 15 377.5 24.5Q391 34 391 53Z" glyph-name="nacute" horiz-adv-x="577" unicode="" /><glyph d="M694 -15 162 585L166 213Q167 150 176.5 112Q186 74 202.5 53Q219 32 240.5 22.5Q262 13 286 7L302 3V0H19V3L35 7Q59 13 80 22.5Q101 32 117 53Q133 74 143.5 112Q154 150 155 213V589L143 602Q103 646 70.5 668.5Q38 691 -6 697V700H250Q260 683 272.5 665.5Q285 648 302 626.5Q319 605 342.5 578.5Q366 552 397 516L693 178L690 487Q689 550 679 588Q669 626 652.5 647Q636 668 615 677.5Q594 687 570 693L554 697V700H837V697L821 693Q797 687 775.5 677.5Q754 668 737.5 647Q721 626 711 588Q701 550 701 487V-15ZM354 -270Q417 -268 453 -232.5Q489 -197 491 -148Q491 -131 486 -118Q484 -114 480.5 -112Q477 -110 473 -118Q465 -135 450.5 -149.5Q436 -164 411 -164Q379 -164 362.5 -145Q346 -126 346 -103Q346 -79 363.5 -60Q381 -41 414 -41Q431 -41 446.5 -49.5Q462 -58 473.5 -72Q485 -86 491.5 -105Q498 -124 498 -145Q498 -199 458 -236Q418 -273 354 -275Z" glyph-name="Ncommaaccent" horiz-adv-x="839" unicode="" /><glyph d="M391 330Q391 363 382 384Q373 405 359 416Q345 427 328.5 431Q312 435 297 435Q269 435 241.5 421Q214 407 196 389V53Q196 36 209 25Q222 14 243 9L269 3V0H27V3L42 8Q62 15 75.5 24.5Q89 34 89 53V417L13 448V451Q66 459 106.5 469Q147 479 196 493H198L196 393Q204 405 218.5 422.5Q233 440 254.5 455.5Q276 471 303.5 482Q331 493 364 493Q382 493 405 487.5Q428 482 449 467Q470 452 484 425Q498 398 498 354V53Q498 36 511 25Q524 14 545 9L571 3V0H329V3L344 8Q364 15 377.5 24.5Q391 34 391 53ZM225 -270Q288 -268 324 -232.5Q360 -197 362 -148Q362 -131 357 -118Q355 -114 351.5 -112Q348 -110 344 -118Q336 -135 321.5 -149.5Q307 -164 282 -164Q250 -164 233.5 -145Q217 -126 217 -103Q217 -79 234.5 -60Q252 -41 285 -41Q302 -41 317.5 -49.5Q333 -58 344.5 -72Q356 -86 362.5 -105Q369 -124 369 -145Q369 -199 329 -236Q289 -273 225 -275Z" glyph-name="ncommaaccent" horiz-adv-x="577" unicode="" /><glyph d="M281 923 288 923L416 845L544 923H551L419 764H413ZM694 -15 162 585L166 213Q167 150 176.5 112Q186 74 202.5 53Q219 32 240.5 22.5Q262 13 286 7L302 3V0H19V3L35 7Q59 13 80 22.5Q101 32 117 53Q133 74 143.5 112Q154 150 155 213V589L143 602Q103 646 70.5 668.5Q38 691 -6 697V700H250Q260 683 272.5 665.5Q285 648 302 626.5Q319 605 342.5 578.5Q366 552 397 516L693 178L690 487Q689 550 679 588Q669 626 652.5 647Q636 668 615 677.5Q594 687 570 693L554 697V700H837V697L821 693Q797 687 775.5 677.5Q754 668 737.5 647Q721 626 711 588Q701 550 701 487V-15Z" glyph-name="Ncaron" horiz-adv-x="839" unicode="" /><glyph d="M152 700 159 700L287 622L415 700H422L290 541H284ZM391 330Q391 363 382 384Q373 405 359 416Q345 427 328.5 431Q312 435 297 435Q269 435 241.5 421Q214 407 196 389V53Q196 36 209 25Q222 14 243 9L269 3V0H27V3L42 8Q62 15 75.5 24.5Q89 34 89 53V417L13 448V451Q66 459 106.5 469Q147 479 196 493H198L196 393Q204 405 218.5 422.5Q233 440 254.5 455.5Q276 471 303.5 482Q331 493 364 493Q382 493 405 487.5Q428 482 449 467Q470 452 484 425Q498 398 498 354V53Q498 36 511 25Q524 14 545 9L571 3V0H329V3L344 8Q364 15 377.5 24.5Q391 34 391 53Z" glyph-name="ncaron" horiz-adv-x="577" unicode="" /><glyph d="M56 536Q119 538 155 573.5Q191 609 193 658Q193 675 188 688Q186 692 182.5 694Q179 696 175 688Q167 671 152.5 656.5Q138 642 113 642Q81 642 64.5 661Q48 680 48 703Q48 727 65.5 746Q83 765 116 765Q133 765 148.5 756.5Q164 748 175.5 734Q187 720 193.5 701Q200 682 200 661Q200 607 160 570Q120 533 56 531ZM391 330Q391 363 382 384Q373 405 359 416Q345 427 328.5 431Q312 435 297 435Q269 435 241.5 421Q214 407 196 389V53Q196 36 209 25Q222 14 243 9L269 3V0H27V3L42 8Q62 15 75.5 24.5Q89 34 89 53V417L13 448V451Q66 459 106.5 469Q147 479 196 493H198L196 393Q204 405 218.5 422.5Q233 440 254.5 455.5Q276 471 303.5 482Q331 493 364 493Q382 493 405 487.5Q428 482 449 467Q470 452 484 425Q498 398 498 354V53Q498 36 511 25Q524 14 545 9L571 3V0H329V3L344 8Q364 15 377.5 24.5Q391 34 391 53Z" glyph-name="napostrophe" horiz-adv-x="577" unicode="" /><glyph d="M561 -208Q588 -208 612 -199.5Q636 -191 654 -174Q672 -157 682.5 -130.5Q693 -104 693 -68V-14L162 585L166 213Q167 150 176.5 112Q186 74 202.5 53Q219 32 240.5 22.5Q262 13 286 7L302 3V0H19V3L35 7Q59 13 80 22.5Q101 32 117 53Q133 74 143.5 112Q154 150 155 213V589L143 602Q103 646 70.5 668.5Q38 691 -6 697V700H250Q260 683 272.5 665.5Q285 648 302 626.5Q319 605 342.5 578.5Q366 552 397 516L693 178L690 487Q689 550 679 588Q669 626 652.5 647Q636 668 615 677.5Q594 687 570 693L554 697V700H837V697L821 693Q797 687 775.5 677.5Q754 668 737.5 647Q721 626 711 588Q701 550 701 487V-68Q701 -105 690 -132.5Q679 -160 660 -178.5Q641 -197 615 -206Q589 -215 560 -215Q541 -215 522 -210.5Q503 -206 487.5 -196Q472 -186 462 -171Q452 -156 452 -136Q452 -114 467.5 -98Q483 -82 505 -82Q527 -82 543.5 -98Q560 -114 560 -136Q560 -161 552.5 -178Q545 -195 539 -206Q544 -208 551.5 -208Q559 -208 561 -208Z" glyph-name="Eng" horiz-adv-x="839" unicode="" /><glyph d="M391 309Q391 378 362 406.5Q333 435 293 435Q265 435 239.5 421Q214 407 196 389V53Q196 36 209 25Q222 14 243 9L269 3V0H27V3L42 8Q62 15 75.5 24.5Q89 34 89 53V417L13 448V451Q66 459 106.5 469Q147 479 196 493H198L196 393Q204 405 217.5 422.5Q231 440 250.5 455.5Q270 471 295 482Q320 493 349 493Q378 493 405 484.5Q432 476 452.5 455Q473 434 485.5 399.5Q498 365 498 314V-60Q498 -102 485 -134Q472 -166 449.5 -187.5Q427 -209 397 -220Q367 -231 332 -231Q310 -231 288 -224.5Q266 -218 248.5 -205.5Q231 -193 220.5 -173.5Q210 -154 210 -128Q210 -105 224.5 -89Q239 -73 259 -73Q282 -73 294.5 -88Q307 -103 307 -120Q307 -138 294.5 -152Q282 -166 260 -166Q248 -166 237 -160Q226 -154 221 -146L219 -147Q226 -179 249 -196Q272 -213 300 -213Q317 -213 333.5 -207.5Q350 -202 362.5 -189Q375 -176 383 -154Q391 -132 391 -98Z" glyph-name="eng" horiz-adv-x="556" unicode="" /><glyph d="M267 807 267 847H532V807ZM401 715Q468 715 532.5 689.5Q597 664 648 616.5Q699 569 730 501.5Q761 434 761 350Q761 266 730 198.5Q699 131 648 83.5Q597 36 532.5 10.5Q468 -15 401 -15Q334 -15 269.5 10.5Q205 36 154 83.5Q103 131 71.5 198.5Q40 266 40 350Q40 434 71.5 501.5Q103 569 154 616.5Q205 664 269.5 689.5Q334 715 401 715ZM401 710Q342 710 300 684.5Q258 659 231.5 612Q205 565 192.5 498.5Q180 432 180 350Q180 268 192.5 201.5Q205 135 231.5 88Q258 41 300 15.5Q342 -10 401 -10Q460 -10 501.5 15.5Q543 41 569.5 88Q596 135 608.5 201.5Q621 268 621 350Q621 432 608.5 498.5Q596 565 569.5 612Q543 659 501.5 684.5Q460 710 401 710Z" glyph-name="Omacron" horiz-adv-x="801" unicode="" /><glyph d="M141 584 141 624H406V584ZM515 239Q515 186 496 140Q477 94 444 59.5Q411 25 367 5Q323 -15 274 -15Q225 -15 181 4.5Q137 24 104 58.5Q71 93 52 139.5Q33 186 33 239Q33 292 52 338Q71 384 104 418.5Q137 453 181 473Q225 493 274 493Q323 493 367 473Q411 453 444 418.5Q477 384 496 338Q515 292 515 239ZM394 239Q394 308 384 355.5Q374 403 357 433Q340 463 318.5 476Q297 489 274 489Q251 489 229 476Q207 463 190.5 433Q174 403 164 355.5Q154 308 154 239Q154 170 164 122Q174 74 190.5 44.5Q207 15 229 2Q251 -11 274 -11Q297 -11 318.5 2Q340 15 357 45Q374 75 384 122.5Q394 170 394 239Z" glyph-name="omacron" horiz-adv-x="548" unicode="" /><glyph d="M400 843Q461 843 496.5 860.5Q532 878 532 913V917H538V908Q538 853 503.5 814.5Q469 776 400 776Q331 776 296.5 814.5Q262 853 262 908V917H268V913Q268 878 303.5 860.5Q339 843 400 843ZM401 715Q468 715 532.5 689.5Q597 664 648 616.5Q699 569 730 501.5Q761 434 761 350Q761 266 730 198.5Q699 131 648 83.5Q597 36 532.5 10.5Q468 -15 401 -15Q334 -15 269.5 10.5Q205 36 154 83.5Q103 131 71.5 198.5Q40 266 40 350Q40 434 71.5 501.5Q103 569 154 616.5Q205 664 269.5 689.5Q334 715 401 715ZM401 710Q342 710 300 684.5Q258 659 231.5 612Q205 565 192.5 498.5Q180 432 180 350Q180 268 192.5 201.5Q205 135 231.5 88Q258 41 300 15.5Q342 -10 401 -10Q460 -10 501.5 15.5Q543 41 569.5 88Q596 135 608.5 201.5Q621 268 621 350Q621 432 608.5 498.5Q596 565 569.5 612Q543 659 501.5 684.5Q460 710 401 710Z" glyph-name="Obreve" horiz-adv-x="801" unicode="" /><glyph d="M274 620Q335 620 370.5 637.5Q406 655 406 690V694H412V685Q412 630 377.5 591.5Q343 553 274 553Q205 553 170.5 591.5Q136 630 136 685V694H142V690Q142 655 177.5 637.5Q213 620 274 620ZM515 239Q515 186 496 140Q477 94 444 59.5Q411 25 367 5Q323 -15 274 -15Q225 -15 181 4.5Q137 24 104 58.5Q71 93 52 139.5Q33 186 33 239Q33 292 52 338Q71 384 104 418.5Q137 453 181 473Q225 493 274 493Q323 493 367 473Q411 453 444 418.5Q477 384 496 338Q515 292 515 239ZM394 239Q394 308 384 355.5Q374 403 357 433Q340 463 318.5 476Q297 489 274 489Q251 489 229 476Q207 463 190.5 433Q174 403 164 355.5Q154 308 154 239Q154 170 164 122Q174 74 190.5 44.5Q207 15 229 2Q251 -11 274 -11Q297 -11 318.5 2Q340 15 357 45Q374 75 384 122.5Q394 170 394 239Z" glyph-name="obreve" horiz-adv-x="548" unicode="" /><glyph d="M461 923 325 764H321L366 923ZM619 923 483 764H479L524 923ZM401 715Q468 715 532.5 689.5Q597 664 648 616.5Q699 569 730 501.5Q761 434 761 350Q761 266 730 198.5Q699 131 648 83.5Q597 36 532.5 10.5Q468 -15 401 -15Q334 -15 269.5 10.5Q205 36 154 83.5Q103 131 71.5 198.5Q40 266 40 350Q40 434 71.5 501.5Q103 569 154 616.5Q205 664 269.5 689.5Q334 715 401 715ZM401 710Q342 710 300 684.5Q258 659 231.5 612Q205 565 192.5 498.5Q180 432 180 350Q180 268 192.5 201.5Q205 135 231.5 88Q258 41 300 15.5Q342 -10 401 -10Q460 -10 501.5 15.5Q543 41 569.5 88Q596 135 608.5 201.5Q621 268 621 350Q621 432 608.5 498.5Q596 565 569.5 612Q543 659 501.5 684.5Q460 710 401 710Z" glyph-name="Ohungarumlaut" horiz-adv-x="801" unicode="" /><glyph d="M335 700 199 541H195L240 700ZM493 700 357 541H353L398 700ZM515 239Q515 186 496 140Q477 94 444 59.5Q411 25 367 5Q323 -15 274 -15Q225 -15 181 4.5Q137 24 104 58.5Q71 93 52 139.5Q33 186 33 239Q33 292 52 338Q71 384 104 418.5Q137 453 181 473Q225 493 274 493Q323 493 367 473Q411 453 444 418.5Q477 384 496 338Q515 292 515 239ZM394 239Q394 308 384 355.5Q374 403 357 433Q340 463 318.5 476Q297 489 274 489Q251 489 229 476Q207 463 190.5 433Q174 403 164 355.5Q154 308 154 239Q154 170 164 122Q174 74 190.5 44.5Q207 15 229 2Q251 -11 274 -11Q297 -11 318.5 2Q340 15 357 45Q374 75 384 122.5Q394 170 394 239Z" glyph-name="ohungarumlaut" horiz-adv-x="548" unicode="" /><glyph d="M40 353Q40 422 66.5 484.5Q93 547 144.5 595Q196 643 273.5 671.5Q351 700 453 700H1092V502H1088L1040 587Q1022 619 1000.5 640Q979 661 951 673Q923 685 887 689.5Q851 694 803 694H707V364L759 365Q790 366 813.5 369Q837 372 856 383Q875 394 890 417Q905 440 918 481L929 515H932V208H929L918 242Q905 283 890 306Q875 329 856 340Q837 351 813.5 354Q790 357 759 358L707 359V106Q707 61 727.5 33.5Q748 6 804 6H865Q904 6 934 11.5Q964 17 987.5 29.5Q1011 42 1031 62.5Q1051 83 1071 112L1136 208H1140L1120 0H453Q351 0 273.5 29.5Q196 59 144.5 108Q93 157 66.5 220.5Q40 284 40 353ZM498 6Q525 6 542 14Q559 22 568.5 36Q578 50 581.5 69Q585 88 585 109V694H485Q412 694 354.5 670Q297 646 257.5 601.5Q218 557 197.5 493.5Q177 430 177 350Q177 270 196 206.5Q215 143 252.5 98.5Q290 54 346 30Q402 6 475 6Z" glyph-name="OE" horiz-adv-x="1173" unicode="" /><glyph d="M608 -15Q552 -15 506 5Q460 25 430 61Q399 26 356.5 5.5Q314 -15 264 -15Q215 -15 172.5 4.5Q130 24 99 58.5Q68 93 50.5 139.5Q33 186 33 239Q33 292 50.5 338Q68 384 99 418.5Q130 453 172.5 473Q215 493 264 493Q315 493 359 471.5Q403 450 435 412Q465 449 508.5 471Q552 493 607 493Q653 493 689 478.5Q725 464 750 439Q775 414 788.5 380.5Q802 347 802 310V305H489Q488 297 488 289.5Q488 282 488 278Q488 228 500 187Q512 146 535 117Q558 88 591 72Q624 56 665 56Q691 56 713.5 63.5Q736 71 754 83Q772 95 784.5 110Q797 125 803 140H807Q805 124 792.5 98Q780 72 755.5 47Q731 22 694.5 3.5Q658 -15 608 -15ZM691 309 691 348Q691 374 687.5 399Q684 424 674.5 444.5Q665 465 648.5 477.5Q632 490 607 490Q580 490 559.5 476Q539 462 525 438Q511 414 502 381Q493 348 489 309ZM374 239Q374 308 365.5 355.5Q357 403 342 433Q327 463 307 476Q287 489 264 489Q241 489 221 476Q201 463 186 433Q171 403 162.5 355.5Q154 308 154 239Q154 170 162.5 122Q171 74 186 44.5Q201 15 221 2Q241 -11 264 -11Q287 -11 307 2Q327 15 342 44.5Q357 74 365.5 121.5Q374 169 374 238Z" glyph-name="oe" horiz-adv-x="836" unicode="" /><glyph d="M531 923 375 764H371L416 923ZM358 700Q420 700 471 687.5Q522 675 558.5 651Q595 627 615 593.5Q635 560 635 518Q635 449 583 407Q531 365 442 349L587 174Q625 128 653.5 97.5Q682 67 705.5 47.5Q729 28 748.5 18.5Q768 9 788 5L799 3V0Q749 -9 718 -12Q687 -15 658 -12Q626 -9 600.5 2Q575 13 553 30.5Q531 48 511 72Q491 96 469 125L315 332H253V106Q253 89 255 73Q257 57 265 43.5Q273 30 289 20.5Q305 11 332 7L358 3V0H18V3L44 7Q71 11 88 20.5Q105 30 114.5 43.5Q124 57 127.5 73Q131 89 131 106V594Q131 611 127.5 627Q124 643 114.5 656.5Q105 670 88 679.5Q71 689 44 693L18 697V700ZM253 338 278 338Q395 338 450 385Q505 432 505 515Q505 562 489 596Q473 630 444.5 651.5Q416 673 378 683.5Q340 694 295 694H253Z" glyph-name="Racute" horiz-adv-x="762" unicode="" /><glyph d="M357 707 201 548H197L242 707ZM13 448 13 451Q66 459 106.5 469Q147 479 196 493H198L196 383Q204 395 219 414Q234 433 255.5 450.5Q277 468 303.5 480.5Q330 493 359 493Q365 493 370.5 493Q376 493 382 492Q380 475 376 456Q373 439 368 419.5Q363 400 355 380Q301 402 259 397.5Q217 393 196 379V54Q196 22 242 12L286 3V0H27V3L42 8Q62 15 75.5 25Q89 35 89 54V417Z" glyph-name="racute" horiz-adv-x="384" unicode="" /><glyph d="M358 700Q420 700 471 687.5Q522 675 558.5 651Q595 627 615 593.5Q635 560 635 518Q635 449 583 407Q531 365 442 349L587 174Q625 128 653.5 97.5Q682 67 705.5 47.5Q729 28 748.5 18.5Q768 9 788 5L799 3V0Q749 -9 718 -12Q687 -15 658 -12Q626 -9 600.5 2Q575 13 553 30.5Q531 48 511 72Q491 96 469 125L315 332H253V106Q253 89 255 73Q257 57 265 43.5Q273 30 289 20.5Q305 11 332 7L358 3V0H18V3L44 7Q71 11 88 20.5Q105 30 114.5 43.5Q124 57 127.5 73Q131 89 131 106V594Q131 611 127.5 627Q124 643 114.5 656.5Q105 670 88 679.5Q71 689 44 693L18 697V700ZM253 338 278 338Q395 338 450 385Q505 432 505 515Q505 562 489 596Q473 630 444.5 651.5Q416 673 378 683.5Q340 694 295 694H253ZM304 -270Q367 -268 403 -232.5Q439 -197 441 -148Q441 -131 436 -118Q434 -114 430.5 -112Q427 -110 423 -118Q415 -135 400.5 -149.5Q386 -164 361 -164Q329 -164 312.5 -145Q296 -126 296 -103Q296 -79 313.5 -60Q331 -41 364 -41Q381 -41 396.5 -49.5Q412 -58 423.5 -72Q435 -86 441.5 -105Q448 -124 448 -145Q448 -199 408 -236Q368 -273 304 -275Z" glyph-name="Rcommaaccent" horiz-adv-x="762" unicode="" /><glyph d="M13 448 13 451Q66 459 106.5 469Q147 479 196 493H198L196 383Q204 395 219 414Q234 433 255.5 450.5Q277 468 303.5 480.5Q330 493 359 493Q365 493 370.5 493Q376 493 382 492Q380 475 376 456Q373 439 368 419.5Q363 400 355 380Q301 402 259 397.5Q217 393 196 379V54Q196 22 242 12L286 3V0H27V3L42 8Q62 15 75.5 25Q89 35 89 54V417ZM82 -270Q145 -268 181 -232.5Q217 -197 219 -148Q219 -131 214 -118Q212 -114 208.5 -112Q205 -110 201 -118Q193 -135 178.5 -149.5Q164 -164 139 -164Q107 -164 90.5 -145Q74 -126 74 -103Q74 -79 91.5 -60Q109 -41 142 -41Q159 -41 174.5 -49.5Q190 -58 201.5 -72Q213 -86 219.5 -105Q226 -124 226 -145Q226 -199 186 -236Q146 -273 82 -275Z" glyph-name="rcommaaccent" horiz-adv-x="384" unicode="" /><glyph d="M231 923 238 923L366 845L494 923H501L369 764H363ZM358 700Q420 700 471 687.5Q522 675 558.5 651Q595 627 615 593.5Q635 560 635 518Q635 449 583 407Q531 365 442 349L587 174Q625 128 653.5 97.5Q682 67 705.5 47.5Q729 28 748.5 18.5Q768 9 788 5L799 3V0Q749 -9 718 -12Q687 -15 658 -12Q626 -9 600.5 2Q575 13 553 30.5Q531 48 511 72Q491 96 469 125L315 332H253V106Q253 89 255 73Q257 57 265 43.5Q273 30 289 20.5Q305 11 332 7L358 3V0H18V3L44 7Q71 11 88 20.5Q105 30 114.5 43.5Q124 57 127.5 73Q131 89 131 106V594Q131 611 127.5 627Q124 643 114.5 656.5Q105 670 88 679.5Q71 689 44 693L18 697V700ZM253 338 278 338Q395 338 450 385Q505 432 505 515Q505 562 489 596Q473 630 444.5 651.5Q416 673 378 683.5Q340 694 295 694H253Z" glyph-name="Rcaron" horiz-adv-x="762" unicode="" /><glyph d="M57 707 64 707L192 629L320 707H327L195 548H189ZM13 448 13 451Q66 459 106.5 469Q147 479 196 493H198L196 383Q204 395 219 414Q234 433 255.5 450.5Q277 468 303.5 480.5Q330 493 359 493Q365 493 370.5 493Q376 493 382 492Q380 475 376 456Q373 439 368 419.5Q363 400 355 380Q301 402 259 397.5Q217 393 196 379V54Q196 22 242 12L286 3V0H27V3L42 8Q62 15 75.5 25Q89 35 89 54V417Z" glyph-name="rcaron" horiz-adv-x="384" unicode="" /><glyph d="M454 923 298 764H294L339 923ZM543 203Q543 158 525 118Q507 78 473.5 48.5Q440 19 392.5 2Q345 -15 286 -15Q250 -15 217 -10Q184 -5 155 2Q126 9 100.5 16Q75 23 53 26V247H57Q71 198 91.5 151.5Q112 105 140 69Q168 33 204 11.5Q240 -10 286 -10Q323 -10 352 2Q381 14 401 34Q421 54 431.5 81.5Q442 109 442 139Q442 168 431.5 189.5Q421 211 403 228Q385 245 361.5 259Q338 273 312 286L211 340Q184 355 159 371Q134 387 115 407.5Q96 428 84.5 454.5Q73 481 73 517Q73 560 90.5 596Q108 632 140 658.5Q172 685 216 700Q260 715 313 715Q345 715 376 710Q407 705 434.5 699Q462 693 484.5 687Q507 681 520 679L517 517H513Q500 553 484 587.5Q468 622 445 649Q422 676 390 692.5Q358 709 312 709Q285 709 259.5 700Q234 691 214.5 673.5Q195 656 183.5 631.5Q172 607 172 576Q172 531 197 503.5Q222 476 266 453L363 401Q395 384 427.5 366.5Q460 349 485.5 326.5Q511 304 527 274.5Q543 245 543 203Z" glyph-name="Sacute" horiz-adv-x="586" unicode="" /><glyph d="M387 700 231 541H227L272 700ZM216 -15Q190 -15 164.5 -10.5Q139 -6 116.5 0Q94 6 75 11Q56 16 44 16V165H48Q63 127 80.5 95Q98 63 119 39.5Q140 16 164.5 3Q189 -10 219 -10Q273 -10 299 18Q325 46 325 82Q325 107 315 123.5Q305 140 287.5 153Q270 166 247 176Q224 186 197 198Q168 211 142 223.5Q116 236 96.5 252.5Q77 269 65.5 291Q54 313 54 346Q54 378 67.5 405Q81 432 105.5 451.5Q130 471 163.5 482Q197 493 237 493Q278 493 314 485Q350 477 375 477L370 359H366Q353 386 340 410Q327 434 312 451Q297 468 278.5 478Q260 488 234 488Q186 488 161.5 460.5Q137 433 137 397Q137 362 160 342Q183 322 227 302Q257 288 288.5 276Q320 264 345.5 247Q371 230 387 206Q403 182 403 144Q403 112 389.5 83Q376 54 351 32.5Q326 11 292 -2Q258 -15 216 -15Z" glyph-name="sacute" horiz-adv-x="435" unicode="" /><glyph d="M424 764 417 764L289 842L161 764H154L286 923H292ZM543 203Q543 158 525 118Q507 78 473.5 48.5Q440 19 392.5 2Q345 -15 286 -15Q250 -15 217 -10Q184 -5 155 2Q126 9 100.5 16Q75 23 53 26V247H57Q71 198 91.5 151.5Q112 105 140 69Q168 33 204 11.5Q240 -10 286 -10Q323 -10 352 2Q381 14 401 34Q421 54 431.5 81.5Q442 109 442 139Q442 168 431.5 189.5Q421 211 403 228Q385 245 361.5 259Q338 273 312 286L211 340Q184 355 159 371Q134 387 115 407.5Q96 428 84.5 454.5Q73 481 73 517Q73 560 90.5 596Q108 632 140 658.5Q172 685 216 700Q260 715 313 715Q345 715 376 710Q407 705 434.5 699Q462 693 484.5 687Q507 681 520 679L517 517H513Q500 553 484 587.5Q468 622 445 649Q422 676 390 692.5Q358 709 312 709Q285 709 259.5 700Q234 691 214.5 673.5Q195 656 183.5 631.5Q172 607 172 576Q172 531 197 503.5Q222 476 266 453L363 401Q395 384 427.5 366.5Q460 349 485.5 326.5Q511 304 527 274.5Q543 245 543 203Z" glyph-name="Scircumflex" horiz-adv-x="586" unicode="" /><glyph d="M357 541 350 541L222 619L94 541H87L219 700H225ZM216 -15Q190 -15 164.5 -10.5Q139 -6 116.5 0Q94 6 75 11Q56 16 44 16V165H48Q63 127 80.5 95Q98 63 119 39.5Q140 16 164.5 3Q189 -10 219 -10Q273 -10 299 18Q325 46 325 82Q325 107 315 123.5Q305 140 287.5 153Q270 166 247 176Q224 186 197 198Q168 211 142 223.5Q116 236 96.5 252.5Q77 269 65.5 291Q54 313 54 346Q54 378 67.5 405Q81 432 105.5 451.5Q130 471 163.5 482Q197 493 237 493Q278 493 314 485Q350 477 375 477L370 359H366Q353 386 340 410Q327 434 312 451Q297 468 278.5 478Q260 488 234 488Q186 488 161.5 460.5Q137 433 137 397Q137 362 160 342Q183 322 227 302Q257 288 288.5 276Q320 264 345.5 247Q371 230 387 206Q403 182 403 144Q403 112 389.5 83Q376 54 351 32.5Q326 11 292 -2Q258 -15 216 -15Z" glyph-name="scircumflex" horiz-adv-x="435" unicode="" /><glyph d="M393 -150Q393 -171 383.5 -188Q374 -205 359 -216Q344 -227 325 -233Q306 -239 286 -239Q255 -239 228 -228.5Q201 -218 185 -207L186 -204Q206 -209 225 -209Q253 -209 276 -196.5Q299 -184 299 -150Q299 -131 284 -112Q269 -93 242 -85L304 -15H286Q250 -15 217 -10Q184 -5 155 2Q126 9 100.5 16Q75 23 53 26V247H57Q71 198 91.5 151.5Q112 105 140 69Q168 33 204 11.5Q240 -10 286 -10Q292 -10 297.5 -10Q303 -10 309 -9L311 -6H314L312 -8Q374 0 408 42Q442 84 442 139Q442 168 431.5 189.5Q421 211 403 228Q385 245 361.5 259Q338 273 312 286L211 340Q184 355 159 371Q134 387 115 407.5Q96 428 84.5 454.5Q73 481 73 517Q73 560 90.5 596Q108 632 140 658.5Q172 685 216 700Q260 715 313 715Q345 715 376 710Q407 705 434.5 699Q462 693 484.5 687Q507 681 520 679L517 517H513Q500 553 484 587.5Q468 622 445 649Q422 676 390 692.5Q358 709 312 709Q285 709 259.5 700Q234 691 214.5 673.5Q195 656 183.5 631.5Q172 607 172 576Q172 531 197 503.5Q222 476 266 453L363 401Q395 384 427.5 366.5Q460 349 485.5 326.5Q511 304 527 274.5Q543 245 543 203Q543 160 526.5 122Q510 84 479.5 54.5Q449 25 405.5 7Q362 -11 308 -14L280 -55Q294 -56 313.5 -62.5Q333 -69 350.5 -80.5Q368 -92 380.5 -109.5Q393 -127 393 -150Z" glyph-name="Scedilla" horiz-adv-x="586" unicode="" /><glyph d="M310 -156Q310 -177 300.5 -194Q291 -211 276 -222Q261 -233 242 -239Q223 -245 203 -245Q172 -245 145 -234.5Q118 -224 102 -213L103 -210Q123 -215 142 -215Q170 -215 193 -202.5Q216 -190 216 -156Q216 -137 201 -118Q186 -99 159 -91L226 -15H216Q190 -15 164.5 -10.5Q139 -6 116.5 0Q94 6 75 11Q56 16 44 16V165H48Q63 127 80.5 95Q98 63 119 39.5Q140 16 164.5 3Q189 -10 219 -10Q273 -10 299 18Q325 46 325 82Q325 107 315 123.5Q305 140 287.5 153Q270 166 247 176Q224 186 197 198Q168 211 142 223.5Q116 236 96.5 252.5Q77 269 65.5 291Q54 313 54 346Q54 378 67.5 405Q81 432 105.5 451.5Q130 471 163.5 482Q197 493 237 493Q278 493 314 485Q350 477 375 477L370 359H366Q353 386 340 410Q327 434 312 451Q297 468 278.5 478Q260 488 234 488Q186 488 161.5 460.5Q137 433 137 397Q137 362 160 342Q183 322 227 302Q257 288 288.5 276Q320 264 345.5 247Q371 230 387 206Q403 182 403 144Q403 113 390.5 85.5Q378 58 355 36Q332 14 300 0.5Q268 -13 229 -15L197 -61Q211 -62 230.5 -68.5Q250 -75 267.5 -86.5Q285 -98 297.5 -115.5Q310 -133 310 -156Z" glyph-name="scedilla" horiz-adv-x="435" unicode="" /><glyph d="M154 923 161 923L289 845L417 923H424L292 764H286ZM543 203Q543 158 525 118Q507 78 473.5 48.5Q440 19 392.5 2Q345 -15 286 -15Q250 -15 217 -10Q184 -5 155 2Q126 9 100.5 16Q75 23 53 26V247H57Q71 198 91.5 151.5Q112 105 140 69Q168 33 204 11.5Q240 -10 286 -10Q323 -10 352 2Q381 14 401 34Q421 54 431.5 81.5Q442 109 442 139Q442 168 431.5 189.5Q421 211 403 228Q385 245 361.5 259Q338 273 312 286L211 340Q184 355 159 371Q134 387 115 407.5Q96 428 84.5 454.5Q73 481 73 517Q73 560 90.5 596Q108 632 140 658.5Q172 685 216 700Q260 715 313 715Q345 715 376 710Q407 705 434.5 699Q462 693 484.5 687Q507 681 520 679L517 517H513Q500 553 484 587.5Q468 622 445 649Q422 676 390 692.5Q358 709 312 709Q285 709 259.5 700Q234 691 214.5 673.5Q195 656 183.5 631.5Q172 607 172 576Q172 531 197 503.5Q222 476 266 453L363 401Q395 384 427.5 366.5Q460 349 485.5 326.5Q511 304 527 274.5Q543 245 543 203Z" glyph-name="Scaron" horiz-adv-x="586" unicode="" /><glyph d="M87 700 94 700L222 622L350 700H357L225 541H219ZM216 -15Q190 -15 164.5 -10.5Q139 -6 116.5 0Q94 6 75 11Q56 16 44 16V165H48Q63 127 80.5 95Q98 63 119 39.5Q140 16 164.5 3Q189 -10 219 -10Q273 -10 299 18Q325 46 325 82Q325 107 315 123.5Q305 140 287.5 153Q270 166 247 176Q224 186 197 198Q168 211 142 223.5Q116 236 96.5 252.5Q77 269 65.5 291Q54 313 54 346Q54 378 67.5 405Q81 432 105.5 451.5Q130 471 163.5 482Q197 493 237 493Q278 493 314 485Q350 477 375 477L370 359H366Q353 386 340 410Q327 434 312 451Q297 468 278.5 478Q260 488 234 488Q186 488 161.5 460.5Q137 433 137 397Q137 362 160 342Q183 322 227 302Q257 288 288.5 276Q320 264 345.5 247Q371 230 387 206Q403 182 403 144Q403 112 389.5 83Q376 54 351 32.5Q326 11 292 -2Q258 -15 216 -15Z" glyph-name="scaron" horiz-adv-x="435" unicode="" /><glyph d="M288 694 242 694Q205 694 178 684.5Q151 675 131 657.5Q111 640 94.5 614.5Q78 589 61 557L27 492H23V700H675V492H671L637 557Q620 589 603.5 614.5Q587 640 567 657.5Q547 675 520.5 684.5Q494 694 456 694H410V106Q410 89 413.5 73Q417 57 426.5 43.5Q436 30 453 20.5Q470 11 497 7L523 3V0H175V3L201 7Q228 11 245 20.5Q262 30 271.5 43.5Q281 57 284.5 73Q288 89 288 106ZM290 -270Q353 -268 389 -232.5Q425 -197 427 -148Q427 -131 422 -118Q420 -114 416.5 -112Q413 -110 409 -118Q401 -135 386.5 -149.5Q372 -164 347 -164Q315 -164 298.5 -145Q282 -126 282 -103Q282 -79 299.5 -60Q317 -41 350 -41Q367 -41 382.5 -49.5Q398 -58 409.5 -72Q421 -86 427.5 -105Q434 -124 434 -145Q434 -199 394 -236Q354 -273 290 -275Z" glyph-name="Tcommaaccent" horiz-adv-x="698" unicode="" /><glyph d="M194 -15Q140 -15 108 14.5Q76 44 76 100V471H10V477H76L181 620H183V477H310V471H183V102Q183 61 207 44Q231 27 260 27Q283 27 299 36.5Q315 46 326 60L329 58Q323 46 311 33Q299 20 282 9.5Q265 -1 243 -8Q221 -15 194 -15ZM98 -270Q161 -268 197 -232.5Q233 -197 235 -148Q235 -131 230 -118Q228 -114 224.5 -112Q221 -110 217 -118Q209 -135 194.5 -149.5Q180 -164 155 -164Q123 -164 106.5 -145Q90 -126 90 -103Q90 -79 107.5 -60Q125 -41 158 -41Q175 -41 190.5 -49.5Q206 -58 217.5 -72Q229 -86 235.5 -105Q242 -124 242 -145Q242 -199 202 -236Q162 -273 98 -275Z" glyph-name="tcommaaccent" horiz-adv-x="317" unicode="" /><glyph d="M214 923 221 923L349 845L477 923H484L352 764H346ZM288 694 242 694Q205 694 178 684.5Q151 675 131 657.5Q111 640 94.5 614.5Q78 589 61 557L27 492H23V700H675V492H671L637 557Q620 589 603.5 614.5Q587 640 567 657.5Q547 675 520.5 684.5Q494 694 456 694H410V106Q410 89 413.5 73Q417 57 426.5 43.5Q436 30 453 20.5Q470 11 497 7L523 3V0H175V3L201 7Q228 11 245 20.5Q262 30 271.5 43.5Q281 57 284.5 73Q288 89 288 106Z" glyph-name="Tcaron" horiz-adv-x="698" unicode="" /><glyph d="M244 557Q278 558 305 569Q332 580 351.5 597.5Q371 615 381.5 638.5Q392 662 393 689Q393 708 388 721Q386 726 382 727.5Q378 729 374 721Q366 702 349.5 686.5Q333 671 306 671Q272 671 254.5 691.5Q237 712 237 737Q237 763 255.5 784Q274 805 309 805Q328 805 345 796Q362 787 374.5 771.5Q387 756 394 735.5Q401 715 401 692Q401 663 389.5 637.5Q378 612 357.5 593.5Q337 575 308 563.5Q279 552 244 551ZM194 -15Q140 -15 108 14.5Q76 44 76 100V471H10V477H76L181 620H183V477H310V471H183V102Q183 61 207 44Q231 27 260 27Q283 27 299 36.5Q315 46 326 60L329 58Q323 46 311 33Q299 20 282 9.5Q265 -1 243 -8Q221 -15 194 -15Z" glyph-name="tcaron" horiz-adv-x="317" unicode="" /><glyph d="M523 0 175 0V3L201 7Q228 11 245 20.5Q262 30 271.5 43.5Q281 57 284.5 73Q288 89 288 106V359H167V366H288V694H242Q205 694 178 684.5Q151 675 131 657.5Q111 640 94.5 614.5Q78 589 61 557L27 492H23V700H675V492H671L637 557Q620 589 603.5 614.5Q587 640 567 657.5Q547 675 520.5 684.5Q494 694 456 694H410V366H532V359H410V106Q410 89 413.5 73Q417 57 426.5 43.5Q436 30 453 20.5Q470 11 497 7L523 3Z" glyph-name="Tbar" horiz-adv-x="698" unicode="" /><glyph d="M330 58Q324 46 312 33Q300 20 283 9.5Q266 -1 244 -8Q222 -15 195 -15Q141 -15 109 14.5Q77 44 77 100V328H11V334H77V471H11V477H77L182 620H184V477H311V471H184V334H311V328H184V102Q184 61 208 44Q232 27 261 27Q284 27 300 36.5Q316 46 327 60Z" glyph-name="tbar" horiz-adv-x="319" unicode="" /><glyph d="M275 794Q276 834 297.5 862.5Q319 891 361 891Q379 891 395.5 885.5Q412 880 428.5 873Q445 866 462 860.5Q479 855 497 855Q526 855 539 870.5Q552 886 555 900H561Q560 860 538.5 831.5Q517 803 475 803Q457 803 440.5 808.5Q424 814 407.5 821Q391 828 374 833.5Q357 839 339 839Q310 839 297 823.5Q284 808 281 794ZM243 206Q243 132 287 89Q331 46 410 46Q446 46 477 58.5Q508 71 531 90Q554 109 567 131.5Q580 154 580 174V594Q580 611 576.5 627Q573 643 563.5 656.5Q554 670 537 679.5Q520 689 493 693L467 697V700H815V697L789 693Q762 689 745 679.5Q728 670 718.5 656.5Q709 643 705.5 627Q702 611 702 594V106Q702 89 705.5 73Q709 57 718.5 43.5Q728 30 745 20.5Q762 11 789 7L815 3V0H580V142Q570 121 550.5 94Q531 67 502.5 43Q474 19 436 2Q398 -15 350 -15Q290 -15 247 2Q204 19 176 47.5Q148 76 134.5 115Q121 154 121 197V594Q121 611 117.5 627Q114 643 104.5 656.5Q95 670 78 679.5Q61 689 34 693L8 697V700H356V697L330 693Q303 689 286 679.5Q269 670 259.5 656.5Q250 643 246.5 627Q243 611 243 594Z" glyph-name="Utilde" horiz-adv-x="833" unicode="" /><glyph d="M137 571Q138 611 159.5 639.5Q181 668 223 668Q241 668 257.5 662.5Q274 657 290.5 650Q307 643 324 637.5Q341 632 359 632Q388 632 401 647.5Q414 663 417 677H423Q422 637 400.5 608.5Q379 580 337 580Q319 580 302.5 585.5Q286 591 269.5 598Q253 605 236 610.5Q219 616 201 616Q172 616 159 600.5Q146 585 143 571ZM552 31 552 28Q537 26 509.5 20Q482 14 453 7.5Q424 1 400.5 -5.5Q377 -12 369 -15H367L370 85Q363 74 350 57Q337 40 317 24Q297 8 270.5 -3.5Q244 -15 210 -15Q185 -15 161 -6.5Q137 2 118.5 19Q100 36 89 63Q78 90 78 126V423Q78 440 65.5 451.5Q53 463 31 468L6 474V477H185V137Q185 110 192.5 92Q200 74 212.5 63Q225 52 241.5 47.5Q258 43 275 43Q301 43 326.5 56Q352 69 370 89V423Q370 440 357 451.5Q344 463 323 468L297 474V477H477V52Z" glyph-name="utilde" horiz-adv-x="561" unicode="" /><glyph d="M285 807 285 847H550V807ZM243 206Q243 132 287 89Q331 46 410 46Q446 46 477 58.5Q508 71 531 90Q554 109 567 131.5Q580 154 580 174V594Q580 611 576.5 627Q573 643 563.5 656.5Q554 670 537 679.5Q520 689 493 693L467 697V700H815V697L789 693Q762 689 745 679.5Q728 670 718.5 656.5Q709 643 705.5 627Q702 611 702 594V106Q702 89 705.5 73Q709 57 718.5 43.5Q728 30 745 20.5Q762 11 789 7L815 3V0H580V142Q570 121 550.5 94Q531 67 502.5 43Q474 19 436 2Q398 -15 350 -15Q290 -15 247 2Q204 19 176 47.5Q148 76 134.5 115Q121 154 121 197V594Q121 611 117.5 627Q114 643 104.5 656.5Q95 670 78 679.5Q61 689 34 693L8 697V700H356V697L330 693Q303 689 286 679.5Q269 670 259.5 656.5Q250 643 246.5 627Q243 611 243 594Z" glyph-name="Umacron" horiz-adv-x="833" unicode="" /><glyph d="M147 584 147 624H412V584ZM552 31 552 28Q537 26 509.5 20Q482 14 453 7.5Q424 1 400.5 -5.5Q377 -12 369 -15H367L370 85Q363 74 350 57Q337 40 317 24Q297 8 270.5 -3.5Q244 -15 210 -15Q185 -15 161 -6.5Q137 2 118.5 19Q100 36 89 63Q78 90 78 126V423Q78 440 65.5 451.5Q53 463 31 468L6 474V477H185V137Q185 110 192.5 92Q200 74 212.5 63Q225 52 241.5 47.5Q258 43 275 43Q301 43 326.5 56Q352 69 370 89V423Q370 440 357 451.5Q344 463 323 468L297 474V477H477V52Z" glyph-name="umacron" horiz-adv-x="561" unicode="" /><glyph d="M418 843Q479 843 514.5 860.5Q550 878 550 913V917H556V908Q556 853 521.5 814.5Q487 776 418 776Q349 776 314.5 814.5Q280 853 280 908V917H286V913Q286 878 321.5 860.5Q357 843 418 843ZM243 206Q243 132 287 89Q331 46 410 46Q446 46 477 58.5Q508 71 531 90Q554 109 567 131.5Q580 154 580 174V594Q580 611 576.5 627Q573 643 563.5 656.5Q554 670 537 679.5Q520 689 493 693L467 697V700H815V697L789 693Q762 689 745 679.5Q728 670 718.5 656.5Q709 643 705.5 627Q702 611 702 594V106Q702 89 705.5 73Q709 57 718.5 43.5Q728 30 745 20.5Q762 11 789 7L815 3V0H580V142Q570 121 550.5 94Q531 67 502.5 43Q474 19 436 2Q398 -15 350 -15Q290 -15 247 2Q204 19 176 47.5Q148 76 134.5 115Q121 154 121 197V594Q121 611 117.5 627Q114 643 104.5 656.5Q95 670 78 679.5Q61 689 34 693L8 697V700H356V697L330 693Q303 689 286 679.5Q269 670 259.5 656.5Q250 643 246.5 627Q243 611 243 594Z" glyph-name="Ubreve" horiz-adv-x="833" unicode="" /><glyph d="M280 620Q341 620 376.5 637.5Q412 655 412 690V694H418V685Q418 630 383.5 591.5Q349 553 280 553Q211 553 176.5 591.5Q142 630 142 685V694H148V690Q148 655 183.5 637.5Q219 620 280 620ZM552 31 552 28Q537 26 509.5 20Q482 14 453 7.5Q424 1 400.5 -5.5Q377 -12 369 -15H367L370 85Q363 74 350 57Q337 40 317 24Q297 8 270.5 -3.5Q244 -15 210 -15Q185 -15 161 -6.5Q137 2 118.5 19Q100 36 89 63Q78 90 78 126V423Q78 440 65.5 451.5Q53 463 31 468L6 474V477H185V137Q185 110 192.5 92Q200 74 212.5 63Q225 52 241.5 47.5Q258 43 275 43Q301 43 326.5 56Q352 69 370 89V423Q370 440 357 451.5Q344 463 323 468L297 474V477H477V52Z" glyph-name="ubreve" horiz-adv-x="561" unicode="" /><glyph d="M318 839Q318 881 347 909.5Q376 938 418 938Q460 938 489 909.5Q518 881 518 839Q518 797 489 768.5Q460 740 418 740Q376 740 347 768.5Q318 797 318 839ZM504 839Q504 876 478.5 900.5Q453 925 418 925Q383 925 357.5 900.5Q332 876 332 839Q332 801 357.5 777Q383 753 418 753Q453 753 478.5 777Q504 801 504 839ZM243 206Q243 132 287 89Q331 46 410 46Q446 46 477 58.5Q508 71 531 90Q554 109 567 131.5Q580 154 580 174V594Q580 611 576.5 627Q573 643 563.5 656.5Q554 670 537 679.5Q520 689 493 693L467 697V700H815V697L789 693Q762 689 745 679.5Q728 670 718.5 656.5Q709 643 705.5 627Q702 611 702 594V106Q702 89 705.5 73Q709 57 718.5 43.5Q728 30 745 20.5Q762 11 789 7L815 3V0H580V142Q570 121 550.5 94Q531 67 502.5 43Q474 19 436 2Q398 -15 350 -15Q290 -15 247 2Q204 19 176 47.5Q148 76 134.5 115Q121 154 121 197V594Q121 611 117.5 627Q114 643 104.5 656.5Q95 670 78 679.5Q61 689 34 693L8 697V700H356V697L330 693Q303 689 286 679.5Q269 670 259.5 656.5Q250 643 246.5 627Q243 611 243 594Z" glyph-name="Uring" horiz-adv-x="833" unicode="" /><glyph d="M180 616Q180 658 209 686.5Q238 715 280 715Q322 715 351 686.5Q380 658 380 616Q380 574 351 545.5Q322 517 280 517Q238 517 209 545.5Q180 574 180 616ZM366 616Q366 653 340.5 677.5Q315 702 280 702Q245 702 219.5 677.5Q194 653 194 616Q194 578 219.5 554Q245 530 280 530Q315 530 340.5 554Q366 578 366 616ZM552 31 552 28Q537 26 509.5 20Q482 14 453 7.5Q424 1 400.5 -5.5Q377 -12 369 -15H367L370 85Q363 74 350 57Q337 40 317 24Q297 8 270.5 -3.5Q244 -15 210 -15Q185 -15 161 -6.5Q137 2 118.5 19Q100 36 89 63Q78 90 78 126V423Q78 440 65.5 451.5Q53 463 31 468L6 474V477H185V137Q185 110 192.5 92Q200 74 212.5 63Q225 52 241.5 47.5Q258 43 275 43Q301 43 326.5 56Q352 69 370 89V423Q370 440 357 451.5Q344 463 323 468L297 474V477H477V52Z" glyph-name="uring" horiz-adv-x="561" unicode="" /><glyph d="M449 923 313 764H309L354 923ZM607 923 471 764H467L512 923ZM243 206Q243 132 287 89Q331 46 410 46Q446 46 477 58.5Q508 71 531 90Q554 109 567 131.5Q580 154 580 174V594Q580 611 576.5 627Q573 643 563.5 656.5Q554 670 537 679.5Q520 689 493 693L467 697V700H815V697L789 693Q762 689 745 679.5Q728 670 718.5 656.5Q709 643 705.5 627Q702 611 702 594V106Q702 89 705.5 73Q709 57 718.5 43.5Q728 30 745 20.5Q762 11 789 7L815 3V0H580V142Q570 121 550.5 94Q531 67 502.5 43Q474 19 436 2Q398 -15 350 -15Q290 -15 247 2Q204 19 176 47.5Q148 76 134.5 115Q121 154 121 197V594Q121 611 117.5 627Q114 643 104.5 656.5Q95 670 78 679.5Q61 689 34 693L8 697V700H356V697L330 693Q303 689 286 679.5Q269 670 259.5 656.5Q250 643 246.5 627Q243 611 243 594Z" glyph-name="Uhungarumlaut" horiz-adv-x="833" unicode="" /><glyph d="M298 700 162 541H158L203 700ZM456 700 320 541H316L361 700ZM552 31 552 28Q537 26 509.5 20Q482 14 453 7.5Q424 1 400.5 -5.5Q377 -12 369 -15H367L370 85Q363 74 350 57Q337 40 317 24Q297 8 270.5 -3.5Q244 -15 210 -15Q185 -15 161 -6.5Q137 2 118.5 19Q100 36 89 63Q78 90 78 126V423Q78 440 65.5 451.5Q53 463 31 468L6 474V477H185V137Q185 110 192.5 92Q200 74 212.5 63Q225 52 241.5 47.5Q258 43 275 43Q301 43 326.5 56Q352 69 370 89V423Q370 440 357 451.5Q344 463 323 468L297 474V477H477V52Z" glyph-name="uhungarumlaut" horiz-adv-x="561" unicode="" /><glyph d="M733 -176Q719 -182 694 -188.5Q669 -195 641 -195Q613 -195 594 -182Q575 -169 575 -144Q575 -118 607.5 -81.5Q640 -45 707 0H580V142Q570 121 550.5 94Q531 67 502.5 43Q474 19 436 2Q398 -15 350 -15Q290 -15 247 2Q204 19 176 47.5Q148 76 134.5 115Q121 154 121 197V594Q121 611 117.5 627Q114 643 104.5 656.5Q95 670 78 679.5Q61 689 34 693L8 697V700H356V697L330 693Q303 689 286 679.5Q269 670 259.5 656.5Q250 643 246.5 627Q243 611 243 594V206Q243 132 287 89Q331 46 410 46Q446 46 477 58.5Q508 71 531 90Q554 109 567 131.5Q580 154 580 174V594Q580 611 576.5 627Q573 643 563.5 656.5Q554 670 537 679.5Q520 689 493 693L467 697V700H815V697L789 693Q762 689 745 679.5Q728 670 718.5 656.5Q709 643 705.5 627Q702 611 702 594V106Q702 89 705.5 73Q709 57 718.5 43.5Q728 30 745 20.5Q762 11 789 7L815 3V0H710Q692 -31 673.5 -64.5Q655 -98 655 -124Q655 -146 667 -159.5Q679 -173 708 -173Q713 -173 720.5 -173Q728 -173 733 -172Z" glyph-name="Uogonek" horiz-adv-x="833" unicode="" /><glyph d="M414 -176Q400 -182 375 -188.5Q350 -195 322 -195Q294 -195 275 -182Q256 -169 256 -144Q256 -121 283 -88Q310 -55 367 -14L370 85Q363 74 350 57Q337 40 317 24Q297 8 270.5 -3.5Q244 -15 210 -15Q185 -15 161 -6.5Q137 2 118.5 19Q100 36 89 63Q78 90 78 126V423Q78 440 65.5 451.5Q53 463 31 468L6 474V477H185V137Q185 110 192.5 92Q200 74 212.5 63Q225 52 241.5 47.5Q258 43 275 43Q301 43 326.5 56Q352 69 370 89V423Q370 440 357 451.5Q344 463 323 468L297 474V477H477V52L552 31V28Q539 26 517 21.5Q495 17 471 11.5Q447 6 424 0.5Q401 -5 386 -9Q369 -38 352.5 -69Q336 -100 336 -124Q336 -146 348 -159.5Q360 -173 389 -173Q394 -173 401.5 -173Q409 -173 414 -172Z" glyph-name="uogonek" horiz-adv-x="561" unicode="" /><glyph d="M673 764 666 764L538 842L410 764H403L535 923H541ZM542 456 346 -15H333L104 554Q86 598 70 624Q54 650 39 664.5Q24 679 11 685Q-2 691 -13 694L-23 697V700H325V697L311 695Q248 686 235.5 649Q223 612 249 546L404 145L538 467L494 574Q479 610 467.5 632Q456 654 444.5 666.5Q433 679 421 685Q409 691 393 694L377 697V700H715V697L701 695Q674 691 655 684Q636 677 627 664Q618 651 619 629.5Q620 608 632 576L798 146L907 449Q927 504 939 547.5Q951 591 949 622Q947 653 926.5 671.5Q906 690 861 694L832 697V700H1099V697Q1071 686 1048.5 672.5Q1026 659 1005.5 633.5Q985 608 964 565Q943 522 917 450L748 -15H735Z" glyph-name="Wcircumflex" horiz-adv-x="1067" unicode="" /><glyph d="M525 541 518 541L390 619L262 541H255L387 700H393ZM394 312 255 -9H250L93 355Q78 390 68 410.5Q58 431 48 444Q35 460 23.5 464.5Q12 469 1 471L-11 473V477H257V473L241 472Q203 470 192 450Q181 430 198 387L306 123L391 320L327 477H448L581 123L671 328Q694 380 694 408.5Q694 437 683 451Q672 465 654.5 468Q637 471 624 472L614 473V477H792V473L788 472Q768 467 752 452.5Q736 438 721 414Q706 390 690.5 356Q675 322 656 278L530 -9H525Z" glyph-name="wcircumflex" horiz-adv-x="778" unicode="" /><glyph d="M497 764 490 764L362 842L234 764H227L359 923H365ZM420 355 473 441Q519 515 536.5 561.5Q554 608 550 635.5Q546 663 523.5 675Q501 687 467 693L443 697V700H733V697L728 696Q693 689 665 669.5Q637 650 608 615.5Q579 581 545 530Q511 479 465 410L423 347V99Q423 68 440.5 41.5Q458 15 510 7L536 3V0H188V3L214 7Q240 11 256.5 20Q273 29 282.5 41.5Q292 54 296 68.5Q300 83 301 99V315L109 603Q82 644 60.5 663.5Q39 683 10 691L-10 697V700H351V697L313 691Q265 683 255 657Q245 631 272 589Z" glyph-name="Ycircumflex" horiz-adv-x="714" unicode="" /></font>
</defs>
</svg>
